<?xml version="1.0" standalone="no"?><!DOCTYPE svg PUBLIC "-//W3C//DTD SVG 1.1//EN" "http://www.w3.org/Graphics/SVG/1.1/DTD/svg11.dtd"><svg width="100%" height="100%" viewBox="0 0 53 44" version="1.1" xmlns="http://www.w3.org/2000/svg" xmlns:xlink="http://www.w3.org/1999/xlink" xml:space="preserve" style="fill-rule:evenodd;clip-rule:evenodd;stroke-linejoin:round;stroke-miterlimit:1.41421;"><path id="Users_2_x40_2x.png" d="M5.86667,32.8778c1.58889,-0.488889 4.52222,-2.32222 4.52222,-6.47778c0,-3.78889 -1.22222,-5.37778 -1.83333,-6.35556l-0.122222,-0.122222c0,-0.122222 -0.244444,-0.855556 0.122222,-2.2c0.122222,-0.488889 0,-1.1 -0.122222,-1.58889c-0.488889,-1.1 -1.46667,-3.05556 -0.733333,-4.64444c1.1,-2.56667 1.46667,-2.81111 2.68889,-3.3c0.122222,0 0.244444,-0.122222 0.366667,-0.122222c0.122222,-0.244444 1.34444,-0.733333 2.68889,-0.733333c0.611111,0 1.1,0.122222 1.46667,0.366667c0.122222,-0.366667 0.244444,-0.855556 0.366667,-1.22222c0.122222,-0.366667 0.366667,-0.733333 0.488889,-0.977778c-0.733333,-0.488889 -1.58889,-0.611111 -2.32222,-0.611111c-1.83333,0 -3.42222,0.611111 -4.15556,0.977778c-1.95556,0.855556 -2.81111,1.71111 -4.03333,4.64444c-1.1,2.56667 0.244444,5.25556 0.855556,6.6c-0.733333,3.17778 0.244444,4.27778 0.244444,4.27778c0.611111,0.733333 1.46667,1.83333 1.46667,5.01111c0,3.54444 -2.68889,4.15556 -2.68889,4.15556c-2.2,0.733333 -5.13333,2.44444 -5.13333,7.33333c0,0 0,1.22222 1.22222,1.22222l5.5,0c0.244444,-0.855556 0.733333,-1.71111 1.1,-2.44444l-5.25556,0c0.366667,-2.32222 1.83333,-3.17778 3.3,-3.78889ZM36.6667,33.2444c0,0 -4.4,-1.1 -4.4,-5.62222c0,-4.03333 1.83333,-5.37778 2.44444,-6.35556c0,0 1.46667,-1.22222 0.488889,-5.25556c1.58889,-2.2 2.07778,-5.86667 0.122222,-10.2667c-1.1,-2.56667 -2.07778,-4.03333 -3.54444,-4.88889c-0.977778,-0.611111 -2.2,-0.855556 -3.42222,-0.855556c-2.2,0 -4.27778,0.733333 -5.13333,1.34444c-2.44444,1.1 -4.03333,2.07778 -5.62222,5.98889c-1.34444,3.17778 0.244444,6.72222 0.977778,8.55556c-0.977778,4.03333 0.366667,5.37778 0.366667,5.37778c0.733333,0.977778 2.44444,2.44444 2.44444,6.35556c0,4.52222 -4.4,5.62222 -4.4,5.62222c-2.56667,0.977778 -8.43333,2.93333 -8.43333,9.53333c0,0 0,1.22222 1.22222,1.22222l34.2222,0c1.22222,0 1.22222,-1.22222 1.22222,-1.22222c0,-6.6 -5.86667,-8.55556 -8.55556,-9.53333ZM11.1222,41.5556c0.611111,-3.42222 3.54444,-4.76667 6.72222,-5.86667l0.122222,0c2.2,-0.611111 6.11111,-2.93333 6.11111,-7.94444c0,-4.27778 -1.71111,-6.35556 -2.68889,-7.45556c-0.244444,-0.244444 -0.366667,-0.488889 -0.366667,-0.488889c-0.122222,-0.122222 -0.488889,-1.1 0.122222,-3.3c0.244444,-1.1 -0.122222,-1.58889 -0.122222,-1.58889c-0.611111,-1.46667 -1.95556,-4.27778 -0.977778,-6.6c1.22222,-3.17778 2.32222,-3.78889 4.4,-4.64444c0.122222,0 0.244444,-0.122222 0.366667,-0.244444c0.122222,-0.244444 1.71111,-0.977778 3.54444,-0.977778c0.855556,0 1.71111,0.122222 2.32222,0.488889c0.733333,0.366667 1.46667,1.22222 2.44444,3.66667c1.95556,4.52222 0.733333,6.96667 0.122222,7.82222c-0.366667,0.611111 -0.611111,1.34444 -0.366667,1.95556c0.488889,2.07778 0.122222,2.93333 0.122222,3.05556c0,0 -0.366667,0.366667 -0.488889,0.611111c-0.977778,1.1 -2.68889,3.17778 -2.68889,7.45556c0,5.01111 3.91111,7.33333 6.11111,7.94444l0.122222,0c3.05556,1.1 6.11111,2.44444 6.72222,5.86667l-31.6556,0l0,0.244444ZM48.6444,30.5556c0,0 -2.68889,-0.611111 -2.68889,-4.15556c0,-3.17778 0.977778,-4.27778 1.46667,-5.01111c0,0 1.1,-1.1 0.244444,-4.27778c0.611111,-1.34444 1.95556,-4.15556 0.855556,-6.6c-1.22222,-3.05556 -2.07778,-3.78889 -4.03333,-4.64444c-0.733333,-0.366667 -2.32222,-0.977778 -4.15556,-0.977778c-0.855556,0 -1.71111,0.122222 -2.44444,0.488889c0.366667,0.733333 0.611111,1.58889 0.733333,2.32222l0.122222,0c0.366667,-0.244444 0.977778,-0.366667 1.58889,-0.366667c1.22222,0 2.44444,0.488889 2.81111,0.611111c0.122222,0.122222 0.244444,0.122222 0.366667,0.122222c1.22222,0.488889 1.71111,0.733333 2.68889,3.3c0.611111,1.46667 -0.244444,3.54444 -0.733333,4.64444c-0.244444,0.488889 -0.244444,1.1 -0.122222,1.58889c0.366667,1.34444 0.122222,1.95556 0.122222,2.2l-0.122222,0.122222c-0.611111,0.855556 -1.83333,2.56667 -1.83333,6.35556c0,4.15556 2.81111,6.11111 4.52222,6.47778c1.58889,0.611111 3.05556,1.46667 3.42222,3.78889l-5.25556,0c0.488889,0.733333 0.855556,1.58889 1.1,2.44444l5.5,0c1.22222,0 1.22222,-1.22222 1.22222,-1.22222c-0.244444,-4.76667 -3.17778,-6.47778 -5.37778,-7.21111Z" style="fill:#99c5ce;fill-rule:nonzero;"/></svg>