<?xml version="1.0" standalone="no"?><!DOCTYPE svg PUBLIC "-//W3C//DTD SVG 1.1//EN" "http://www.w3.org/Graphics/SVG/1.1/DTD/svg11.dtd"><svg width="100%" height="100%" viewBox="0 0 14 12" version="1.1" xmlns="http://www.w3.org/2000/svg" xmlns:xlink="http://www.w3.org/1999/xlink" xml:space="preserve" style="fill-rule:evenodd;clip-rule:evenodd;stroke-linejoin:round;stroke-miterlimit:1.41421;"><g id="Layer1"><path id="arrow right" d="M0.699997,6.74988l10.9101,0l-3.70512,3.97037c-0.273228,0.292367 -0.273132,0.767261 9.53674e-05,1.06003c0.273418,0.293174 0.716496,0.293174 0.990009,0l4.89998,-5.24928c0.273323,-0.292771 0.273323,-0.767261 9.53674e-05,-1.06084l-4.90007,-5.25089c-0.136662,-0.14578 -0.315762,-0.219275 -0.495052,-0.219275c-0.1791,0 -0.3582,0.0734955 -0.495052,0.219275c-0.273228,0.293174 -0.273132,0.768472 9.53674e-05,1.06084l3.70512,3.96997l-10.9102,0c-0.386524,0 -0.700092,0.335576 -0.699997,0.7503c0,0.413917 0.313473,0.749493 0.699997,0.749493Z" style="fill:#fff;fill-rule:nonzero;"/></g></svg>