<?xml version="1.0" encoding="utf-8"?>
<!-- Generator: Adobe Illustrator 19.1.0, SVG Export Plug-In . SVG Version: 6.00 Build 0)  -->
<svg version="1.1" id="Layer_1" xmlns="http://www.w3.org/2000/svg" xmlns:xlink="http://www.w3.org/1999/xlink" x="0px" y="0px"
	 viewBox="0 0 30 25.2" style="enable-background:new 0 0 30 25.2;" xml:space="preserve">
<style type="text/css">
	.st0{fill:none;stroke:#6E737A;stroke-width:2;stroke-linecap:round;stroke-linejoin:round;stroke-miterlimit:10;}
</style>
<path class="st0" d="M301.2,26h27.5c0,0,1.5,11.1-6.1,11.1h-14.1C308.5,37.1,301.2,37.6,301.2,26z"/>
<path class="st0" d="M328.7,26v-9.1c0,0-0.2-2.6-3.4-2.6c0,0-3.2-0.1-3.2,4.6"/>
<path class="st0" d="M1.2,13h27.5c0,0,1.5,11.1-6.1,11.1H8.5C8.5,24.1,1.2,24.6,1.2,13z"/>
<path class="st0" d="M28.7,13V3.8c0,0-0.2-2.6-3.4-2.6c0,0-3.2-0.1-3.2,4.6"/>
</svg>
