<?xml version="1.0" standalone="no"?><!DOCTYPE svg PUBLIC "-//W3C//DTD SVG 1.1//EN" "http://www.w3.org/Graphics/SVG/1.1/DTD/svg11.dtd"><svg width="100%" height="100%" viewBox="0 0 1487 743" version="1.1" xmlns="http://www.w3.org/2000/svg" xmlns:xlink="http://www.w3.org/1999/xlink" xml:space="preserve" style="fill-rule:evenodd;clip-rule:evenodd;stroke-linejoin:round;stroke-miterlimit:1.41421;"><g><path d="M742.396,0.0239024l-742.396,742.396l1485.4,0.604243l-743,-743Z" style="fill:#1a2f41;fill-opacity:0.297988;"/><path d="M750.584,87.2904l655.734,655.734l-15.3477,-0.0239024l-648.048,-648.048l-648.048,648.048l-15.3477,0.0239024l655.734,-655.734l-0.00133299,-0.00133299l7.66189,-7.66189l0.00133299,0.00133299l0.00133299,-0.00133299l7.66189,7.66189l-0.00133299,0.00133299Z" style="fill:#1e374c;"/><g><path d="M715.031,629.702c-4.64195,-0.159792 -9.04421,-1.49405 -13.2228,-3.49145c-6.47156,-3.09197 -12.7913,-7.98159 -19.0552,-12.9751l-2.19713,-3.81103c-0.639166,-4.4502 -1.78168,-10.5542 -2.32497,-16.4186c-0.543291,-5.88832 -0.599219,-12.4877 1.26235,-18.424c4.97751,-16.0191 17.617,-20.6211 30.4163,-18.8874c11.9205,1.62188 24.4162,8.51689 32.973,15.332c2.67651,2.14121 7.48624,5.12931 9.79523,8.85246c0.56726,0.918802 1.16648,2.17317 1.39818,3.69918c2.01337,13.822 -5.49683,29.3218 -15.5957,39.2848c-5.39297,5.30508 -10.9218,4.64994 -14.8047,5.7525c-2.97212,0.862875 -5.85636,1.18246 -8.64473,1.08658M717.252,617.678c1.03865,-0.095875 2.08528,-0.279635 3.13991,-0.583239c2.49275,-0.711073 5.0574,-0.910812 6.60738,-1.23839c1.32627,-0.287625 2.19713,-0.663135 3.068,-1.534c7.32645,-7.22258 12.1282,-17.2096 12.3359,-25.5427l-0.159792,-2.89223l-0.471385,-0.487364c-0.399479,-0.391489 -0.974729,-0.894833 -1.77369,-1.52601c-1.26235,-0.990708 -3.33166,-2.46878 -4.58602,-3.46748c-7.58211,-6.04811 -18.0884,-11.6009 -27.1166,-12.8233c-8.21329,-1.11854 -14.4292,1.11055 -17.3693,10.5702c-1.14251,3.65923 -1.26235,8.36509 -0.767,13.766c0.255667,2.71646 0.623187,5.37699 1.03066,7.99757l0.846896,5.38498l0.751021,0.599219c10.8099,8.42102 17.6809,12.3359 24.4641,11.7766" style="fill:#1c3144;"/><path d="M727.706,708.053c-37.4951,-0.103865 -81.2061,-20.8528 -95.2118,-61.3839c-0.870864,-2.50873 -3.01207,-10.4424 -1.84559,-14.2215c1.57395,-5.03344 6.23187,-6.99088 7.12671,-9.90708c0.527312,-1.67781 0.0719062,-2.72445 0.215719,-4.72983l0.263656,-1.58993l-1.82961,-9.42771c-1.43013,-9.88311 -1.22241,-19.4626 1.31828,-30.7439c2.93218,-13.1349 10.6741,-25.2551 14.3733,-37.1436c1.09457,-3.51542 3.95484,-6.73522 5.99219,-9.81919l1.62987,-2.9881c0.0239687,-0.0559271 0.56726,-5.19323 2.72445,-8.19731c7.47825,-10.3944 21.3402,-11.8006 30.3524,-12.9511c1.31828,-0.175771 5.70456,-3.42753 8.86843,-3.835c4.56205,-0.583239 9.7393,-0.0878854 14.1815,0.00798958c10.2267,0.19974 24.7837,5.1373 34.2673,9.49961c17.2974,7.91767 45.3009,21.0685 56.8858,40.7948c10.0189,17.1137 6.53548,42.0492 7.24655,59.842c0.615198,15.4998 -6.23986,28.379 -6.80712,41.5698c-0.439427,9.93904 -2.57265,17.1696 -8.98828,26.086c-7.8218,10.8419 -18.9113,14.533 -27.0048,20.2536c-10.8898,7.70995 -24.1925,7.72592 -36.3446,8.62076c-2.43682,0.18376 -4.91359,0.263656 -7.41433,0.263656M727.618,702.053c2.3809,0.00798958 4.73782,-0.0719062 7.06279,-0.247677c12.9351,-0.942771 24.1285,-1.03066 33.3245,-7.53417c10.0269,-7.07877 18.5119,-9.02823 25.5986,-18.8714c5.68059,-7.88572 7.47825,-13.9658 7.86974,-22.8342c0.655146,-15.2841 7.39036,-26.2857 6.80712,-41.0744c-0.790969,-19.7582 2.58063,-41.6577 -6.43161,-57.0456c-10.4344,-17.7768 -36.4085,-30.2246 -54.2173,-38.3819c-9.25992,-4.25046 -22.9221,-8.77256 -31.8864,-8.95632c-5.16127,-0.095875 -9.31585,-0.559271 -13.3027,-0.0559271c-2.50873,0.327573 -4.96952,3.33166 -8.86843,3.835c-9.79523,1.26235 -20.5732,2.63656 -26.2458,10.5223c-1.3822,1.9175 -1.15849,3.9868 -1.84559,6.42362l-0.127833,0.247677c-2.33296,6.03213 -6.25584,8.55684 -7.51021,12.6076c-4.20252,13.4704 -11.4331,24.0406 -14.2614,36.6722c-3.14789,14.0057 -2.46079,25.0793 0.623187,38.1103l-0.00798958,1.42215c-0.37551,1.49405 0.223708,4.47417 -0.695094,7.43031c-1.25436,4.05871 -6.34373,7.39036 -7.12671,9.90708c-0.455406,1.46209 0.75901,7.55015 1.78168,10.4823c12.9271,37.3992 53.7859,57.2374 89.4593,57.3412" style="fill:#1c3144;"/><path d="M735.095,763.052c-12.0004,-0.623187 -23.9368,-2.95614 -33.7879,-7.47026c-11.4331,-5.23318 -21.3961,-11.9045 -32.0702,-17.657c-8.62875,-4.64994 -20.3415,-9.85914 -29.9689,-17.5212c-7.36639,-5.86435 -22.5066,-14.1495 -31.423,-23.5693c-4.65793,-4.89761 -10.9377,-15.6596 -14.0297,-20.9726c-7.21459,-12.3119 -6.88702,-32.2779 -8.38906,-42.5205l-0.0559271,-1.13452c1.86157,-42.952 -2.35693,-91.8243 26.813,-132.371c6.69527,-9.29188 13.4065,-13.6462 19.9819,-18.8954c7.67,-6.12002 15.9632,-7.26253 21.452,-9.67538c8.6687,-3.82701 15.0763,-8.09345 23.9368,-12.0483c12.4877,-5.60869 29.1859,-15.5397 46.3635,-14.1895c33.3405,2.62058 68.7344,24.7198 96.8896,44.7337c13.6142,9.69136 28.9223,21.5399 36.824,36.1928c3.71516,6.903 5.9043,12.0802 6.88702,21.1804c1.97343,18.4 3.84299,31.7027 7.43031,50.6939c2.66852,14.1336 5.72054,21.1724 3.53139,37.4152c-5.64064,41.7695 -32.5655,80.9984 -66.8488,104.104c-11.8326,7.9736 -23.018,17.2575 -39.4046,20.9647c-10.0749,2.29301 -22.1311,3.3716 -34.1315,2.74043M735.726,751.083c10.6821,0.559271 21.6118,-0.359531 30.8558,-2.46079c13.5903,-3.06001 22.3309,-10.4264 35.3459,-19.207c31.8065,-21.436 56.5423,-57.7886 61.6716,-95.7711c1.85358,-13.766 -0.495354,-18.0325 -3.41954,-33.5802c-3.66722,-19.3428 -5.56874,-32.965 -7.57412,-51.6447c-0.774989,-7.10274 -2.29301,-10.762 -5.52879,-16.7861c-6.39965,-11.8725 -19.4227,-22.2829 -33.2127,-32.0941c-28.347,-20.1657 -61.2481,-40.2355 -90.8815,-42.5685c-13.1988,-1.03066 -25.7904,6.56744 -40.5311,13.1748c-6.93496,3.10795 -16.091,8.59679 -24.0007,12.0882c-10.2826,4.5221 -12.4078,2.97212 -18.8155,8.07747c-7.32645,5.84038 -12.264,8.92436 -17.7289,16.5304c-19.8701,27.612 -22.6505,59.1149 -23.6252,92.2717l-0.926791,33.1727l2.01337,20.0858c0.75901,6.5914 1.95745,12.6235 4.79375,17.4413c3.44351,5.9043 8.90838,15.1323 12.3839,18.7755c8.66071,9.14807 19.3907,13.822 30.1926,22.4427c8.5089,6.76717 18.416,11.0815 28.1793,16.3387c12.2241,6.59939 20.2056,12.2001 31.3831,17.3214c8.29318,3.80304 18.7356,5.84038 29.4256,6.39166" style="fill:#1c3144;"/><path d="M766.581,813.868c-2.301,-0.0798958 -4.53009,-0.335562 -7.02284,-0.535302c-24.0966,-1.88554 -47.3702,-9.31585 -69.797,-19.2629c-28.1073,-12.4398 -60.3054,-23.3296 -87.1743,-50.6619c-9.03622,-9.19601 -18.5358,-20.2616 -27.5401,-29.7452c-9.971,-10.5063 -6.5914,-20.8049 -13.9338,-26.6612c-13.9658,-11.1215 -23.2337,-18.8314 -27.3803,-35.0822l-0.0719062,-1.05462c1.89353,-17.2335 0.391489,-38.0783 4.81772,-55.8312c1.78967,-7.21459 3.73912,-11.2413 5.09735,-17.633c5.64863,-26.853 28.6906,-49.6952 43.0079,-72.9529c7.75788,-12.6155 17.1616,-25.9821 26.2298,-38.5897c5.88832,-8.18133 14.549,-10.8259 19.2948,-16.1709c10.738,-12.1042 24.5839,-21.4121 38.9892,-25.5027c8.71663,-2.48476 16.6423,-4.09067 24.6319,-5.07338l23.3535,-1.2304l0.399479,-0.623187l0.57525,-0.57525l2.11724,-0.862875c15.5877,0.0239687 48.9761,-14.2774 67.7277,-8.36509c7.00686,2.20512 16.6343,4.20252 23.9128,7.95762c7.14269,3.69918 14.3892,11.4011 19.91,15.7874c13.9898,11.1694 28.387,21.5559 41.2981,34.507c8.83648,8.87642 23.8409,19.9899 33.5403,29.8571c13.4624,13.7021 17.7369,49.5194 24.1605,64.2922c4.91359,11.3372 3.3716,25.1752 3.73912,36.6162c0.439427,14.3173 -0.239687,29.5455 -0.535302,43.3674c-0.167781,7.77386 1.29431,10.1787 -0.111854,17.5851c-1.44611,7.45428 -2.05332,20.3575 -6.54347,28.6426c-9.81919,18.0325 -21.9394,35.1701 -34.9944,50.7818c-23.3296,27.8996 -48.1292,48.7125 -77.2992,64.4759c-6.24785,3.36361 -13.2947,4.88163 -20.3335,5.92028l-19.3348,2.94017l-0.231698,0.591229l-0.75901,1.10256l-0.774989,0.703083l-1.47807,0.743031c-2.80434,0.527312 -5.18524,0.623187 -7.48624,0.543291M766.789,807.884l5.12931,-0.367521l0.19974,-0.495354l0.719062,-1.06261l0.751021,-0.711073l1.37421,-0.743031c15.1323,-3.58732 27.3803,-2.10925 39.1649,-8.46896c28.4349,-15.34 52.6593,-35.6335 75.5575,-63.0298c12.8472,-15.372 24.7278,-32.174 34.3232,-49.807c3.91489,-7.19861 4.17056,-17.8487 5.92028,-26.9009c1.39019,-7.26253 -0.215719,-5.96023 0.0159792,-16.5944c0.295614,-14.0137 0.95875,-28.9383 0.535302,-43.0479c-0.415458,-12.8153 1.06261,-24.4801 -3.24377,-34.4111c-8.06948,-18.5598 -10.2187,-49.5194 -22.9461,-62.4945c-10.738,-10.9218 -22.986,-19.2469 -33.5083,-29.8171c-12.5916,-12.6315 -26.5094,-22.6505 -40.7868,-34.0356c-6.73522,-5.369 -12.4158,-11.7926 -18.9353,-15.1562c-6.6713,-3.4515 -15.0044,-5.06539 -22.9541,-7.57412c-15.0843,-4.7538 -40.3074,5.45688 -58.5796,8.0535l-5.68059,0.455406l-0.415458,0.663135l-0.56726,0.56726l-2.13322,0.878854c-17.4972,-0.0399479 -31.1993,1.3822 -47.9934,6.15997c-13.1429,3.73912 -26.046,12.3279 -36.1449,23.7131c-7.73391,8.71663 -13.1828,7.7419 -18.9113,15.7075c-9.06817,12.5996 -18.3601,25.7984 -25.9901,38.2301c-15.5317,25.2311 -36.8799,45.4847 -42.2569,71.0434c-1.18246,5.57673 -3.86696,12.7194 -5.14529,17.8407c-2.18116,8.74859 -2.82831,17.7289 -3.18784,26.9089l-1.44611,27.3643l3.38758,9.06018c4.34633,8.33313 11.3053,14.1336 21.8036,22.4987c8.38906,6.69527 7.98958,20.3175 14.541,27.2205c9.46765,9.96301 18.3281,20.3575 27.4762,29.6813c25.8463,26.3017 56.6222,36.6722 85.3207,49.3916c22.0752,9.77126 44.6618,16.9379 67.8475,18.7595c2.70048,0.215719 4.77777,0.447417 6.75919,0.519323" style="fill:#1c3144;"/><path d="M729.157,865.777c-5.19323,-0.303604 -10.3944,-1.11055 -15.5717,-2.58862c-48.6326,-13.8539 -75.2379,-71.7864 -117.966,-84.6336c-23.8569,-7.15866 -48.4248,-14.4212 -72.3457,-23.2097c-0.774989,-0.279635 -33.748,-9.69136 -36.1129,-25.7664c-0.495354,-3.35562 -2.87625,-7.94963 -5.32106,-14.1096c-3.73113,-9.3558 1.85358,-22.0193 0.00798958,-28.4509c-2.32497,-8.0535 -2.19713,-20.3175 1.35823,-30.5841l3.62727,-7.2066l-0.135823,-11.7846c1.43812,-13.9658 6.87903,-27.636 9.10812,-38.6616c6.42362,-31.7826 26.7971,-57.9484 41.386,-85.9359c8.54086,-16.4026 22.3149,-35.3619 34.1475,-51.8044c9.93105,-13.798 20.5013,-30.3045 34.0915,-40.5551c5.01746,-3.79505 15.4279,-9.60348 19.8941,-12.6155c41.3301,-27.8437 90.3701,-60.9605 144.995,-59.7701l21.3082,2.44481l0.319583,-0.19974l1.02267,-0.415458l3.90691,-0.215719c21.1484,6.03213 45.5406,12.3359 66.1937,28.7865c51.7166,41.2262 108.099,87.7256 131.189,147.695c4.42623,11.537 4.53808,26.9568 5.52879,36.832c4.25046,42.3448 -14.0057,74.1912 -26.4136,111.047c-4.69787,13.9338 -7.25454,31.7746 -18.1843,46.9628c-15.9152,22.1231 -31.8385,44.2543 -47.7457,66.3535c-11.2254,15.6116 -30.4563,22.4747 -41.9773,30.0808c-16.7701,11.0496 -35.4098,19.1271 -52.3557,27.6679c-13.3027,6.70326 -21.444,11.8006 -37.9825,15.1003c-14.8207,2.98011 -30.3764,6.47156 -45.972,5.53678M730.012,853.84c13.3186,0.774989 27.2525,-2.22909 42.7602,-5.35302c14.589,-2.9162 21.0845,-7.07078 34.9464,-14.0457c17.7928,-8.9723 35.1542,-16.4426 51.1573,-26.9808c15.308,-10.0988 29.2658,-13.766 38.8453,-27.0767c15.9073,-22.0992 31.8305,-44.2383 47.7457,-66.3535c9.53956,-13.2467 10.8818,-26.9728 16.5544,-43.7829c13.3027,-39.5245 29.7532,-67.0885 25.8383,-106.022c-1.18246,-11.8406 -1.13452,-24.1925 -4.79375,-33.74c-21.7157,-56.4064 -75.2219,-100.972 -127.466,-142.614c-9.21199,-7.33444 -19.2789,-12.4478 -29.7692,-16.4905l-30.0488,-9.45167l-0.559271,0.247677l-3.61928,0.367521c-58.3879,-12.256 -111.319,22.7463 -159.592,55.2799c-6.76717,4.55406 -14.1096,8.25324 -19.3667,12.2241c-11.7207,8.84447 -20.9167,23.1778 -31.5828,37.9984c-12.0243,16.6982 -25.1911,34.8745 -33.2367,50.3344c-16.0271,30.7359 -34.2913,53.1786 -40.2675,82.7721c-3.84299,18.9912 -11.1614,32.6454 -8.82849,48.5287l-1.0706,4.3703c-5.32106,7.39835 -6.60738,21.6278 -4.29839,29.6493c3.23578,11.2653 -2.90022,21.0286 -0.391489,27.3324c1.67781,4.22649 5.2891,11.6009 6.0561,16.7861c0.95076,6.52749 18.0724,12.4877 28.379,16.2828c23.5053,8.62875 47.6898,15.7794 71.6586,22.97c49.5674,14.9165 70.2764,71.0593 117.806,84.5777c4.33035,1.24637 8.70065,1.92549 13.1429,2.18915" style="fill:#1c3144;"/><path d="M767.037,921.057c-12.7354,-0.103865 -25.7504,-2.88424 -39.2848,-8.84447c-12.1522,-5.32106 -30.0728,-11.2413 -42.952,-21.5c-20.725,-16.5225 -45.8362,-21.0845 -70.6519,-30.2086c-19.2389,-7.06279 -37.4392,-10.754 -57.7966,-26.9728c-37.7667,-30.1047 -74.0235,-61.9672 -97.2332,-99.7739c-1.17447,-1.90951 -9.57951,-13.2228 -12.0483,-17.4413c-4.47417,-7.62206 -3.21181,-18.8874 -3.6033,-21.5719c-0.607208,-4.12262 -4.07469,-13.5823 -1.66183,-21.2842c1.1505,-3.71516 3.13991,-7.14269 5.25714,-10.2267l4.36231,-5.88033l-1.73374,-6.48754c-1.69379,-9.204 -0.838906,-17.2016 0.806948,-27.1726c2.66053,-16.123 7.39036,-31.3192 14.4931,-46.5073c14.4132,-30.8717 45.3808,-60.2015 59.8499,-89.6031c4.05871,-8.25324 6.55945,-21.444 8.2852,-31.8145c3.74711,-22.7863 18.8155,-39.5484 30.3604,-58.1162c5.94425,-9.57951 12.9511,-22.0353 22.3548,-30.9037c3.91489,-3.70717 15.4838,-9.08415 16.4665,-9.77925c3.69119,-2.6046 9.81121,-9.96301 17.7289,-12.7354c2.99609,-1.03865 5.04143,-1.37421 6.55146,-1.63786l1.41416,-0.495354l0.719062,-3.17186c5.12931,-5.29709 12.7594,-8.94034 20.0698,-9.29188c1.87755,-0.0878854 6.61537,0.894833 8.18932,1.37421l0.982718,0.231698l19.2229,-3.69918c6.35172,-0.942771 12.5596,-2.04533 19.183,-4.73782c19.6304,-7.98159 41.8334,-13.1349 60.0657,-19.4786l0.455406,-0.135823l0.719062,-0.19175l0.431437,-0.095875c3.43552,-0.631177 9.55554,0.439427 11.1934,0.56726c11.7367,0.910812 27.0447,4.38628 38.358,9.2759c33.005,14.2534 60.4172,32.3019 92,57.4611c16.8181,13.3985 38.4139,26.1499 55.5276,42.7363c23.9767,23.2577 36.6562,50.7978 52.8511,75.174c6.19193,9.32384 13.031,18.1603 18.3121,29.0821l0.159792,0.37551l2.00538,2.18116l1.55797,3.63526l0.143812,2.18116l-0.623187,3.11594l-0.351542,0.695094l1.15849,7.86974c4.80973,32.8851 5.96023,65.6983 -2.301,98.7752c-1.62987,6.55146 -5.65662,10.1148 -6.63934,13.6063c-6.65532,23.4974 -15.372,46.5553 -26.4535,69.0939c-4.47417,9.08415 -12.8872,18.0724 -17.609,24.6319c-8.30916,11.5449 -17.7608,26.813 -26.11,38.3979c-42.4087,58.9711 -87.7576,109.449 -146.633,132.068c-12.3759,4.74581 -24.8236,7.32645 -37.551,7.23057M767.133,909.072c11.1774,0.0878854 22.1231,-2.19713 33.1488,-6.4396c55.3758,-21.2603 98.9829,-69.1658 141.216,-127.881c9.80322,-13.6063 15.9392,-24.2644 26.11,-38.3979c6.30378,-8.74859 12.6395,-14.9086 16.5864,-22.9221c10.746,-21.8435 19.207,-44.2383 25.6705,-67.0486c2.38888,-8.49292 4.9855,-7.01485 6.55146,-13.2547c7.72592,-30.9836 6.7512,-62.0711 2.05332,-94.1412l-1.29431,-8.81251l0.0239687,-1.85358l0.295614,-1.80565l0.231698,-0.711073l-0.671125,-0.743031l-0.527312,-0.679114l-0.175771,-0.247677l-0.527312,-0.95076l-0.415458,-0.95875c-4.72184,-9.7393 -10.6182,-17.2335 -17.4173,-27.4682c-17.5212,-26.3576 -28.4589,-51.1253 -51.2212,-73.2165c-16.858,-16.3387 -35.6096,-26.7811 -54.6487,-41.9613c-31.0715,-24.7597 -57.5729,-42.1291 -89.2836,-55.8312c-9.95502,-4.29839 -23.9528,-7.49423 -34.539,-8.33313c-2.39687,-0.18376 -4.05871,-0.431437 -5.29709,-0.599219l-2.99609,-0.119844l-29.6573,9.24395c-9.81121,2.90821 -19.5345,5.92827 -29.4656,9.96301c-12.2081,4.96952 -32.3498,6.61537 -40.4992,8.94034l-0.862875,0.175771l-1.50204,0.19974l-0.838906,0.0479375c-5.76848,-0.0559271 -6.10404,-1.74173 -7.80582,-1.65384c-2.04533,0.103865 -4.26644,0.695094 -6.37569,1.6858l-3.61928,2.52471l-1.11055,4.24247l-0.447417,0.407469c-3.89892,3.22779 -13.5743,4.9855 -13.83,5.08137c-6.51151,2.27703 -5.68059,4.77777 -14.7727,11.2094c-8.68467,6.136 -9.85115,3.66722 -15.1403,8.68467c-7.96561,7.53417 -13.9818,18.1603 -20.4054,28.5228c-13.1109,21.0685 -25.4948,34.0995 -28.7305,53.7539c-1.66183,10.0189 -4.3703,25.0314 -9.3558,35.1542c-16.6583,33.8359 -44.8136,57.4051 -59.7381,89.3794c-6.65532,14.2135 -11.0496,28.363 -13.5184,43.3674c-2.06131,12.4957 -2.5327,19.966 1.28632,31.0235l-0.790969,5.45688c-4.57004,6.35971 -8.03752,9.93904 -9.57152,14.9086c-1.34225,4.28242 0.735041,6.95094 2.07729,15.9951c1.3822,9.57152 -1.04664,11.9045 2.08528,17.2415c4.46618,7.63804 7.11872,9.47564 11.9045,17.2175c22.0273,35.8732 56.782,66.6331 94.5008,96.6899c18.3601,14.6369 33.6521,17.4652 54.457,25.0873c22.3389,8.21329 51.2532,13.9578 73.9915,32.0941c11.2493,8.96431 26.4695,13.8459 40.2994,19.902c11.9684,5.27312 23.3775,7.7419 34.5629,7.82979" style="fill:#1c3144;"/><path d="M749.947,961.722c-3.57134,0.255667 -7.36639,0.271646 -11.5449,-0.0639166c-29.8571,-2.33296 -54.1853,-50.1905 -70.524,-31.1833c-32.2779,37.5351 -248.971,-134.968 -252.111,-193.851c-0.878854,-16.5145 -19.2948,-31.1993 -24.2244,-48.329c-0.335562,-1.17447 -3.17186,-8.37308 -3.33964,-10.754l0,-0.57525c0.223708,-5.54477 1.64585,-5.88033 1.12653,-9.47564c-1.31029,-8.9723 -3.36361,-13.79 -1.62987,-24.0726c3.69918,-15.0204 6.91099,-30.8238 11.3931,-45.8602c4.19453,-14.1495 10.1068,-21.4201 16.7382,-34.1235c5.92028,-11.3772 13.3106,-34.3951 20.5013,-47.6179c9.85115,-18.1044 23.745,-38.358 33.9397,-55.6794c10.754,-18.2722 26.6213,-30.664 36.5284,-44.4141c0.19974,-0.327573 5.81641,-12.3359 9.48363,-17.4333c19.8062,-27.5401 39.9639,-56.6381 64.8674,-72.825c14.6289,-9.52358 29.3857,-18.1843 44.0945,-27.2684c8.04551,-4.97751 17.3134,-8.70864 26.9568,-11.505l28.9542,-5.83239l0.263656,-0.0719062l3.64325,-2.1492l0.966739,-0.0878854l0.37551,-0.175771c8.31715,-0.543291 19.7742,1.74972 26.3576,2.04533c4.64195,0.207729 7.68598,-1.03865 12.9511,-1.70977c13.9578,-1.79766 25.5267,-0.423448 37.5031,-6.44759c17.3214,-8.72462 44.1424,3.80304 60.0816,11.4491c30.4163,14.6209 58.308,32.3658 87.5738,55.6794c21.7796,17.3614 49.088,34.4591 72.05,52.7632c19.8222,15.7874 42.944,26.837 53.642,50.9735c1.87755,4.25046 6.26383,9.67538 7.55814,15.8194c1.65384,7.78185 2.57265,15.1003 4.96153,22.4108c1.86956,5.73652 3.39557,15.356 6.21589,20.1497c3.88294,6.63934 11.0656,15.5717 12.4158,24.6958c2.94816,20.1577 3.22779,44.5499 -0.0878854,64.7556c-4.09067,24.7917 -8.94833,40.8427 -13.3027,67.3202c-1.69379,10.2426 -5.72853,12.288 -6.52749,19.5665c-2.54069,22.994 -22.8981,47.3622 -33.6761,66.5452c-16.9619,30.1607 -38.5018,62.0391 -59.7141,91.5366c-9.7393,13.5104 -19.167,28.7146 -30.0648,41.7615c-23.1938,27.7238 -60.7128,47.9375 -91.8163,61.0404c-16.6503,7.00686 -28.4829,1.02267 -41.8095,9.68337c-2.78037,1.81363 -5.32106,5.86435 -10.2986,6.99887c-11.0975,2.5327 -19.7662,5.52879 -30.4723,6.31177M749.516,955.754c9.85115,-0.719062 17.8887,-3.51542 29.5694,-6.18394c4.57803,-1.03865 0.806948,-1.26235 8.36509,-6.18394c10.8339,-7.04681 34.2673,-6.60738 42.7522,-10.1787c30.8797,-13.007 67.2962,-32.7733 89.5472,-59.3626c10.738,-12.8552 19.7023,-27.4043 29.7931,-41.426c21.1644,-29.4176 42.5605,-61.0883 59.3626,-90.9614c11.7846,-20.9886 30.5761,-42.8801 32.941,-64.2602c0.735041,-6.7512 5.76049,-15.0364 6.55945,-19.8861c3.76309,-22.8182 9.8911,-46.6032 13.3027,-67.3202c3.20382,-19.5185 2.95614,-43.2875 0.0719062,-62.9179c-1.10256,-7.5901 -6.96691,-14.549 -11.6488,-22.5386c-3.18784,-5.43291 -5.4409,-17.3614 -6.73522,-21.3162c-2.52471,-7.70196 -3.61928,-15.8753 -5.12931,-23.034c-1.22241,-5.80843 -4.05072,-7.55814 -7.17464,-14.6289c-9.91507,-22.3389 -30.6081,-31.7586 -51.9003,-48.7125c-25.3749,-20.2376 -47.4661,-33.1647 -72.05,-52.7632c-28.9622,-23.0739 -56.4704,-40.5631 -86.4393,-54.9603c-17.1217,-8.22128 -40.6989,-18.6077 -54.7925,-11.513c-13.1908,6.64733 -27.1885,5.46487 -39.4366,7.03882c-3.69918,0.479375 -8.75658,1.9974 -13.9738,1.75771l-25.6545,-2.03734l-1.24637,0.886843c-0.838906,0.519323 -1.86956,1.09457 -2.40486,1.26235l-1.01468,0.0719062c-18.7995,2.58063 -38.7654,7.40634 -53.7779,16.6982c-14.8686,9.19601 -29.4176,17.7289 -43.9826,27.2045c-23.737,15.4359 -43.1917,43.3834 -63.2695,71.291c-4.14659,5.76848 -7.58211,14.4132 -9.40374,17.1696c-12.1921,17.0977 -25.0393,25.0633 -36.3047,44.2303c-10.6261,18.0405 -23.9608,37.3193 -33.8439,55.5036c-9.90708,18.2083 -10.9857,29.3377 -20.4533,47.522c-7.15866,13.6941 -12.3199,19.6384 -16.3067,33.0529l-11.2733,45.1891l-0.263656,10.722c0.431437,3.17985 1.2304,6.47955 1.96544,11.465c0.231698,1.66982 -0.0239687,3.96283 -0.343552,6.00816l-0.727052,4.5221l1.26235,4.21051c0.655146,1.78967 1.40617,3.74711 1.84559,5.26513c3.835,13.3266 23.5293,32.4057 24.4481,49.6712c3.08398,57.8765 216.038,219.969 241.581,190.256c20.9087,-24.3203 52.1001,27.2844 75.5415,29.122c3.88294,0.311594 7.36639,0.303604 10.6421,0.0639166" style="fill:#1c3144;"/></g></g></svg>