<?xml version="1.0" standalone="no"?><!DOCTYPE svg PUBLIC "-//W3C//DTD SVG 1.1//EN" "http://www.w3.org/Graphics/SVG/1.1/DTD/svg11.dtd"><svg width="100%" height="100%" viewBox="0 0 33 44" version="1.1" xmlns="http://www.w3.org/2000/svg" xmlns:xlink="http://www.w3.org/1999/xlink" xml:space="preserve" style="fill-rule:evenodd;clip-rule:evenodd;stroke-linejoin:round;stroke-miterlimit:1.41421;"><path d="M30.8936,44l-28.0851,0c-1.59149,0 -2.80851,-1.21702 -2.80851,-2.80851l0,-32.766c0,-1.59149 1.21702,-2.80851 2.80851,-2.80851l8.42553,0c0,-3.08936 2.52766,-5.61702 5.61702,-5.61702c0.374468,0 0.748936,0 1.02979,0.093617c2.15319,0.374468 3.93191,2.15319 4.4,4.30638c0.187234,0.374468 0.187234,0.842553 0.187234,1.21702l8.42553,0c1.59149,0 2.80851,1.21702 2.80851,2.80851l0,32.766c0,1.59149 -1.21702,2.80851 -2.80851,2.80851ZM2.80851,7.48936c-0.561702,0 -0.93617,0.374468 -0.93617,0.93617l0,32.766c0,0.561702 0.374468,0.93617 0.93617,0.93617l28.0851,0c0.561702,0 0.93617,-0.374468 0.93617,-0.93617l0,-32.766c0,-0.561702 -0.374468,-0.93617 -0.93617,-0.93617l-9.45532,0c-0.280851,0 -0.561702,-0.093617 -0.748936,-0.374468c-0.187234,-0.187234 -0.280851,-0.468085 -0.187234,-0.748936c0.093617,-0.561702 0.093617,-1.02979 0,-1.59149c-0.280851,-1.40426 -1.49787,-2.62128 -2.90213,-2.80851c-2.34043,-0.468085 -4.49362,1.31064 -4.49362,3.65106c0,0.280851 0,0.468085 0.093617,0.748936c0.093617,0.280851 0,0.561702 -0.187234,0.748936c-0.187234,0.280851 -0.468085,0.374468 -0.748936,0.374468l-9.45532,0Z" style="fill:#99c5ce;fill-rule:nonzero;"/><circle cx="16.8511" cy="5.61702" r="1.87234" style="fill:#99c5ce;"/><path d="M23.4043,13.1064l-13.1064,0c-0.280851,0 -0.561702,-0.187234 -0.748936,-0.374468c-0.187234,-0.280851 -0.187234,-0.561702 -0.093617,-0.842553l1.87234,-5.61702c0.187234,-0.468085 0.655319,-0.748936 1.21702,-0.561702c0.468085,0.187234 0.748936,0.655319 0.561702,1.21702l-1.49787,4.30638l10.4851,0l-1.49787,-4.4c-0.187234,-0.468085 0.093617,-1.02979 0.561702,-1.21702c0.468085,-0.187234 1.02979,0.093617 1.21702,0.561702l1.87234,5.61702c0.093617,0.280851 0.093617,0.561702 -0.093617,0.842553c-0.187234,0.280851 -0.468085,0.468085 -0.748936,0.468085Z" style="fill:#99c5ce;fill-rule:nonzero;"/><path d="M28.0851,40.2553l-22.4681,0c-0.561702,0 -0.93617,-0.374468 -0.93617,-0.93617l0,-29.0213c0,-0.561702 0.374468,-0.93617 0.93617,-0.93617l4.68085,0c0.561702,0 0.93617,0.374468 0.93617,0.93617c0,0.561702 -0.374468,0.93617 -0.93617,0.93617l-3.74468,0l0,27.1489l20.5957,0l0,-27.1489l-3.74468,0c-0.561702,0 -0.93617,-0.374468 -0.93617,-0.93617c0,-0.561702 0.374468,-0.93617 0.93617,-0.93617l4.68085,0c0.561702,0 0.93617,0.374468 0.93617,0.93617l0,29.0213c0,0.561702 -0.374468,0.93617 -0.93617,0.93617Z" style="fill:#99c5ce;fill-rule:nonzero;"/></svg>