<?xml version="1.0" standalone="no"?><!DOCTYPE svg PUBLIC "-//W3C//DTD SVG 1.1//EN" "http://www.w3.org/Graphics/SVG/1.1/DTD/svg11.dtd"><svg width="100%" height="100%" viewBox="0 0 41 44" version="1.1" xmlns="http://www.w3.org/2000/svg" xmlns:xlink="http://www.w3.org/1999/xlink" xml:space="preserve" style="fill-rule:evenodd;clip-rule:evenodd;stroke-linejoin:round;stroke-miterlimit:1.41421;"><path d="M34.1199,16.1633l-29.6327,0c-0.269388,0 -0.538776,-0.0897959 -0.718367,-0.359184l-3.59184,-4.4898c-0.269388,-0.359184 -0.269388,-0.808163 0,-1.07755l3.59184,-4.4898c0.179592,-0.269388 0.44898,-0.359184 0.718367,-0.359184l29.6327,0c0.538776,0 0.897959,0.359184 0.897959,0.897959l0,8.97959c0,0.538776 -0.359184,0.897959 -0.897959,0.897959ZM4.93622,14.3673l28.2857,0l0,-7.18367l-28.2857,0l-2.87347,3.59184l2.87347,3.59184Z" style="fill:#99c5ce;fill-rule:nonzero;"/><path d="M35.9158,28.7347l-26.9388,0c-0.538776,0 -0.897959,-0.359184 -0.897959,-0.897959l0,-8.97959c0,-0.538776 0.359184,-0.897959 0.897959,-0.897959l26.9388,0c0.269388,0 0.538776,0.0897959 0.718367,0.359184l3.59184,4.4898c0.269388,0.359184 0.269388,0.808163 0,1.07755l-3.59184,4.4898c-0.179592,0.269388 -0.44898,0.359184 -0.718367,0.359184ZM9.875,26.9388l25.5918,0l2.87347,-3.59184l-2.87347,-3.59184l-25.5918,0l0,7.18367Z" style="fill:#99c5ce;fill-rule:nonzero;"/><path d="M22.4464,6.28571c-0.538776,0 -0.897959,-0.359184 -0.897959,-0.897959l0,-2.69388c0,-0.538776 -0.359184,-0.897959 -0.897959,-0.897959c-0.538776,0 -0.897959,0.359184 -0.897959,0.897959l0,2.69388c0,0.538776 -0.359184,0.897959 -0.897959,0.897959c-0.538776,0 -0.897959,-0.359184 -0.897959,-0.897959l0,-2.69388c0,-1.52653 1.16735,-2.69388 2.69388,-2.69388c1.52653,0 2.69388,1.16735 2.69388,2.69388l0,2.69388c0,0.538776 -0.359184,0.897959 -0.897959,0.897959Z" style="fill:#99c5ce;fill-rule:nonzero;"/><path d="M22.4464,38.6122c-0.538776,0 -0.897959,-0.359184 -0.897959,-0.897959l0,-8.97959c0,-0.538776 0.359184,-0.897959 0.897959,-0.897959c0.538776,0 0.897959,0.359184 0.897959,0.897959l0,8.97959c0,0.538776 -0.359184,0.897959 -0.897959,0.897959Z" style="fill:#99c5ce;fill-rule:nonzero;"/><path d="M18.8546,41.3061c-0.538776,0 -0.897959,-0.359184 -0.897959,-0.897959l0,-11.6735c0,-0.538776 0.359184,-0.897959 0.897959,-0.897959c0.538776,0 0.897959,0.359184 0.897959,0.897959l0,11.6735c0,0.538776 -0.359184,0.897959 -0.897959,0.897959Z" style="fill:#99c5ce;fill-rule:nonzero;"/><path d="M15.4423,44c-0.44898,0 -0.808163,-0.269388 -0.897959,-0.718367c-0.0897959,-0.44898 0.179592,-0.987755 0.718367,-1.07755c0.538776,-0.0897959 0.628571,-0.359184 0.718367,-0.538776c0.44898,-0.897959 -0.269388,-2.78367 -0.718367,-3.59184c-0.179592,-0.359184 -0.0897959,-0.897959 0.269388,-1.16735c0.359184,-0.269388 0.897959,-0.269388 1.16735,0.0897959l3.41224,3.41224c0.808163,-2.1551 2.60408,-6.01633 5.65714,-6.37551c0.359184,0 0.628571,0.0897959 0.808163,0.359184c0.179592,0.269388 0.179592,0.628571 0.0897959,0.897959c0,0 -2.1551,4.4898 -0.0897959,6.10612c0.359184,0.269388 0.44898,0.897959 0.179592,1.25714c-0.269388,0.359184 -0.897959,0.44898 -1.25714,0.179592c-1.97551,-1.52653 -1.70612,-4.22041 -1.25714,-6.10612c-1.52653,1.43673 -2.60408,4.3102 -2.87347,5.56735c-0.0897959,0.269388 -0.359184,0.538776 -0.628571,0.628571c-0.269388,0.0897959 -0.628571,0 -0.897959,-0.269388l-1.88571,-1.88571c0,0.538776 -0.0897959,1.16735 -0.269388,1.70612c-0.269388,0.538776 -0.808163,1.25714 -1.97551,1.52653c-0.0897959,0 -0.179592,0 -0.269388,0Z" style="fill:#99c5ce;fill-rule:nonzero;"/><path d="M18.8546,18.8571c-0.538776,0 -0.897959,-0.359184 -0.897959,-0.897959l0,-2.69388c0,-0.538776 0.359184,-0.897959 0.897959,-0.897959c0.538776,0 0.897959,0.359184 0.897959,0.897959l0,2.69388c0,0.538776 -0.359184,0.897959 -0.897959,0.897959Z" style="fill:#99c5ce;fill-rule:nonzero;"/><path d="M22.4464,18.8571c-0.538776,0 -0.897959,-0.359184 -0.897959,-0.897959l0,-2.69388c0,-0.538776 0.359184,-0.897959 0.897959,-0.897959c0.538776,0 0.897959,0.359184 0.897959,0.897959l0,2.69388c0,0.538776 -0.359184,0.897959 -0.897959,0.897959Z" style="fill:#99c5ce;fill-rule:nonzero;"/></svg>