<?xml version="1.0" standalone="no"?><!DOCTYPE svg PUBLIC "-//W3C//DTD SVG 1.1//EN" "http://www.w3.org/Graphics/SVG/1.1/DTD/svg11.dtd"><svg width="100%" height="100%" viewBox="0 0 48 44" version="1.1" xmlns="http://www.w3.org/2000/svg" xmlns:xlink="http://www.w3.org/1999/xlink" xml:space="preserve" style="fill-rule:evenodd;clip-rule:evenodd;stroke-linejoin:round;stroke-miterlimit:1.41421;"><path id="Chat_Bubble_Dots_x40_2x.png" d="M13.2,16.5c-1.87,0 -3.3,1.43 -3.3,3.3c0,1.87 1.43,3.3 3.3,3.3c1.87,0 3.3,-1.43 3.3,-3.3c0,-1.87 -1.43,-3.3 -3.3,-3.3ZM24.2,16.5c-1.87,0 -3.3,1.43 -3.3,3.3c0,1.87 1.43,3.3 3.3,3.3c1.87,0 3.3,-1.43 3.3,-3.3c0,-1.87 -1.43,-3.3 -3.3,-3.3ZM24.2,0c-13.42,0 -24.2,8.91 -24.2,19.8c0,5.39 2.64,10.23 6.82,13.75l-2.42,10.45l12.98,-5.17c2.2,0.55 4.4,0.77 6.82,0.77c13.42,0 24.2,-8.91 24.2,-19.8c0,-10.89 -10.78,-19.8 -24.2,-19.8ZM24.2,37.4c-2.09,0 -4.18,-0.22 -6.27,-0.77c-0.22,0 -0.33,-0.11 -0.55,-0.11c-0.33,0 -0.55,0 -0.77,0.11l-9.13,3.63l1.54,-6.16c0.22,-0.77 -0.11,-1.65 -0.77,-2.2c-3.85,-3.3 -6.05,-7.59 -6.05,-12.1c0,-9.68 9.9,-17.6 22,-17.6c12.1,0 22,7.92 22,17.6c0,9.68 -9.9,17.6 -22,17.6ZM35.2,16.5c-1.87,0 -3.3,1.43 -3.3,3.3c0,1.87 1.43,3.3 3.3,3.3c1.87,0 3.3,-1.43 3.3,-3.3c0,-1.87 -1.43,-3.3 -3.3,-3.3Z" style="fill:#99c5ce;fill-rule:nonzero;"/></svg>