<?xml version="1.0" standalone="no"?><!DOCTYPE svg PUBLIC "-//W3C//DTD SVG 1.1//EN" "http://www.w3.org/Graphics/SVG/1.1/DTD/svg11.dtd"><svg width="100%" height="100%" viewBox="0 0 346 60" version="1.1" xmlns="http://www.w3.org/2000/svg" xmlns:xlink="http://www.w3.org/1999/xlink" xml:space="preserve" style="fill-rule:evenodd;clip-rule:evenodd;stroke-linejoin:round;stroke-miterlimit:1.41421;"><path d="M9.8,46.6l-1.8,3.3l-8,1.8c0,-0.1 1.2,-5.1 9.8,-5.1Z" style="fill:#e6e9ec;fill-rule:nonzero;"/><path d="M112.8,27.1l-0.8,3.8l-1.2,-5l-4.2,0l0,5.5l-4.8,0.8l-10,0.2l-3,0.2l-4.2,0.8l-5.2,1.8l-5.5,-1.2l-3,3l-3.1,1.9l-6.4,0l-4.4,-1.3l-3,-2l-2,0.2l-4.2,1l-5.5,0l-1.3,3.8l-1,-1.9l-1.8,-1.1l-6.2,1.1l-12.2,3.9l-7.8,2.5l2.2,3.5l-4.5,3l4.3,0l4,-2.2l38.8,0c1,0 18.8,-1.2 18.8,-1.2l0,-2.2l2.8,2.2l7.5,-2.5l6.2,-1.2l2.8,1.2l0,-3.2l3,-1.8l6,1.8l4.2,-3.2l1.2,3.2l6,-1.5l8.5,0l0,-5.2l0,-6l1.8,-3.8l-12.8,1.1ZM52.6,44.9c-0.5,-1.8 0,-3.5 0,-3.5c1.8,3.7 0.5,5.4 0,3.5ZM103.4,38.6c0,0 -0.8,-2.7 1,-3.1l-1,3.1Z" style="fill:#e6e9ec;fill-rule:nonzero;"/><path d="M346.5,49.1c-1,-1 -21,-4 -21,-4l-10.5,-4.2l-10,1.8c0,0 -2.5,-1.5 -3.2,-1.8c-0.7,-0.3 -3.2,-4.2 -3.2,-4.2l-12.2,3.2l-1.5,-7.2l-13.2,-3l-3.2,0l-4.2,3.5c0,0 3.5,-3 0.5,-3.5c-3,-0.5 -12.2,-2.5 -12.2,-2.5l-11.5,-1.2l-6.5,0l-5.5,0l0,7.8l2,3.5l7.8,0l16,1.6l12.2,4.1l7.8,2.2l4.2,0l2.8,-1.5l0,4.2c0,0 5.2,-0.2 6.8,0c1.6,0.2 10,0 10,0l2.2,1.2l15,0l1.8,-2.5l1.5,2.5c-0.4,-7.10543e-15 28.3,1 27.3,-7.10543e-15ZM235.6,32.3l0.7,-1.5l0.8,2.5l-1.5,-1ZM274.6,41.6c0,0 -1.2,-3.5 0.8,-4.5c0.5,-0.2 -0.8,4.5 -0.8,4.5Z" style="fill:#e6e9ec;fill-rule:nonzero;"/><g><g><path d="M167.7,53.1l-0.6,0.6c0,0 -1.8,0.3 -2.8,-0.3c2.84217e-14,-7.10543e-15 1.9,-0.9 3.4,-0.3Z" style="fill:#f17030;fill-rule:nonzero;"/><path d="M163.5,53.3l-0.9,1.1c0,0 -1.4,0.4 -1.7,0.4c-0.3,0 -2.9,0.3 -2.9,0.3l-3.1,2c0,0 3,-3.1 4.9,-3.3c0,0 3,0 3.7,-0.5Z" style="fill:#f17030;fill-rule:nonzero;"/><path d="M166.4,51.7c0,0 -3.3,-1 -4.9,0.6c0,0 -2.1,0.7 -2.3,0c0,0 2.9,-1.6 3.6,-1.8c0,0 4.1,-0.3 4,1" style="fill:#f17030;fill-rule:nonzero;"/><path d="M173.8,50.9l0.6,0.5" style="fill:#f17030;fill-rule:nonzero;"/><g><path d="M172.4,53.6c0.1,0.1 0.2,0.1 0.3,0.1c-2.84217e-14,0 -0.1,0 -0.3,-0.1Z" style="fill:#f17030;fill-rule:nonzero;"/><path d="M175.1,16c0,0 1.5,-0.4 2.7,-1l0,-13.8c0,0 0.1,-0.4 -0.7,-0.4c0,0 -0.6,-0.9 -1.3,-0.8c0,0 -1.2,0.3 -1,1.2l0,1.4c0,0 -0.4,-0.2 -1,0.5c0,0 0.1,-1.5 -0.7,-1.6c-0.8,0 -1.8,0.1 -2.1,0.6c0,0 -0.6,-1.5 -2,-1.2c-1.4,0.3 -1.6,1.7 -1.8,2.9c0,0 -1.5,0.4 -1,2.3c0,0 -2.8,-0.7 -3.6,1c-0.8,1.7 0.6,3.3 0.6,3.3l-0.9,0.2c0,0 -0.5,-0.8 -1.6,-0.8c0,0 -2,0.2 -2.1,2c-0.1,1.8 1.7,2.1 1.7,2.1c0,0 1,0.6 1.7,-0.5c0,0 -0.5,2 0.9,3.2l-1.6,-0.5c0,0 -0.1,-1.7 -1.2,-1.8c-1.1,-0.1 -2.1,0.8 -2.2,1.8c0,0 -1.3,-1.2 -2.6,-1c-1.4,0.2 -2,1.4 -2,1.4c0,0 -1.4,0 -1.7,0.3c0,0 -0.7,0.8 -0.6,1.4l-1.4,0.6l-0.5,0.6c0,0 -1,0.1 -1.4,1.1c0,0 -1.8,1.1 -1.4,1.9c0,0 0.7,0.6 1.6,0.6c0,0 0.8,1.9 2.2,1.2l-0.1,1l-1,0.6c0,0 -0.3,-1.5 -1.2,-1.2c0,0 -2.6,1.1 -2.4,2.9c0,0 0.6,1.5 2.2,0.8c0,0 0.5,2 1.8,1.8c0,0 -0.3,1.9 1.4,2.5c0,0 -1.8,0.8 -1.8,2.2c0,0 -1.4,-0.6 -2.2,0c0,0 -1.4,2.2 0.4,3.3c0,0 -0.6,1.8 0.5,2.6c0,0 1.4,0.8 2.5,0c0,0 0.8,0.9 1.7,1.1c0,0 1.4,0.2 2.5,-0.6c0,0 1,1 2.2,1c0,0 1.3,-0.1 2.8,-3.3c0,0 0.4,1.1 1.8,1.1c0,0 1.5,-0.3 2.2,-1.8c0,0 -0.5,2.1 1,2.2c0,0 1.8,-0.5 3,-1.5l3,-0.2l1,0.2c0,0 2.9,3 2.3,10l-3.9,1.4l-1.4,0.8l-1,0.6c0,0 -0.2,0.2 1.3,0.9l1.7,0.4c0,0 1.2,0.3 1.8,0.5c-0.5,-0.3 -1.6,-0.9 -1.6,-0.9l0.1,-0.7c0.6,-0.3 2.9,-1 2.9,-1l0.6,0.5c0,0 0.9,0 1.1,0c-0.2,0 -1.5,0.6 -1.5,0.6c0,0 -0.5,1.2 0.2,1.8l0.5,1.1l-0.8,1.1l-1.6,2.1l-0.9,0.6c0,0 -0.1,0.6 1,0c1,-0.6 2.4,-1.9 2.4,-1.9l0.5,-0.9c0,0 1.2,-0.4 1.4,-2.4l1.2,0l-0.7,-2.3l0.7,-0.4l0,-16.5c-6.5,-4.9 -13,-5.1 -13,-5.1c8,-0.2 11.2,1.9 11.2,1.9l0,-1.9c0,0 1.2,1.3 1.8,1.7l0,-14.7c-0.6,0.1 -1.7,0.1 -2.6,-0.2ZM153.3,23.3c-0.4,0.1 -1.4,0.6 -1.4,1.5c0,0 -0.7,-1.7 0.8,-1.6c0.3,0.1 0.5,0.1 0.6,0.1l0.1,0c0,0 0.6,0.1 -0.1,0ZM155,31.7c0,0 1.2,-1.1 2.7,0l-2.7,0ZM169.5,12.8l-1.8,-1.4c2.5,0.1 1.8,1.4 1.8,1.4ZM168.2,33.6c1.3,-0.8 1.4,0 1.4,0l-0.9,1.3c-1,0.7 -6.3,0.6 -6.3,0.6l0,-1.2c1.9,0.6 5.8,-0.7 5.8,-0.7ZM164.8,22.9c-0.3,0 -0.5,0 -0.7,0c-0.6,0.3 -2.7,1.4 -2.7,1.4l0.6,-2.4l2.7,0l0,-1.2c0,0 3,2 6.1,2.2c0.1,0 -4,-0.1 -6,0ZM173.1,25.5c-0.8,0 3.1,-1.3 4.2,0l0,1.1c2.84217e-14,-0.1 -3.4,-1.1 -4.2,-1.1Z" style="fill:#f17030;fill-rule:nonzero;"/></g></g><g><path d="M209.5,26.2c0,0 1.3,1.2 0,-0.5c-1.3,-1.7 -4.4,0 -4.4,0c-0.4,-1.2 -1.1,-1.3 -1.1,-1.3c0,0 -5.2,-0.6 -5.6,-0.7c-0.3,-0.1 3.3,0 3.3,0l1.9,-0.4l2.7,0c4.2,-0.2 3.1,-1.6 3.1,-1.6c-0.3,-0.8 -3.2,-0.9 -3.2,-0.9c0,0 -0.5,0.3 -0.1,-0.5c0.4,-0.8 -1.6,-1.6 -1.6,-1.6l-2.5,-1.8c-1.3,-2 -3.9,-0.5 -3.9,-0.5c-1.5,-0.7 -4,0.2 -4,0.2c-3.3,1.3 -1.5,-2 -1.5,-2c3.8,0 3.4,-2.5 3.4,-2.5c-1,-2.2 -3.8,-1.6 -3.8,-1.6c1.2,-1.2 0,-2.9 0,-2.9c-0.9,-1.7 -3,-0.8 -3.4,-0.6c0,-0.1 0,-0.3 -0.1,-0.5c-0.3,-2.1 -2.3,-1.8 -2.3,-1.8c0.3,-1.6 -0.4,-3.3 -0.4,-3.3c-1.5,-0.9 -2.3,0.6 -2.3,0.6c-2.5,-0.6 -3.9,1.3 -3.9,1.3l-1,-2.4c-0.9,-0.3 -1.7,0 -2,0c-0.3,0 -1.2,1.8 -1.2,1.8l0,49.5l1.1,0.7c0,0 1.2,1.9 1.5,2.3c0.3,0.4 0.8,1.6 0.9,1.9c0.1,0.3 1.4,1.2 1.4,1.2l1.3,0.5l1,0l-1.6,-1.7c0,0 -1.9,-2.7 -1.9,-3c0,-0.3 0,-1.9 0,-1.9l0.3,-1.7l0.8,0.7l0.3,1.4l0,1.9l1.8,0.2l1.4,-0.2c0,0 1.7,0.8 3.6,1.1c2.9,0.5 3.5,1.9 3.5,1.9l1.9,0.8l-0.8,0.9l0,0.9l0.8,0.6l0,-0.9l0.9,-0.6l3.1,0.9c1.9,-0.3 -1.9,-2.4 -2.2,-2.7c-0.3,-0.3 -1.1,-1.8 -1.1,-1.8c-1,-0.7 -2.4,-0.5 -2.4,-0.5l-1.6,-1.4c-0.1,-2.1 -1.8,-2.6 -2.2,-2.6c-0.4,0 -3.1,-1.2 -3.1,-1.2c0,0 -0.2,-1.5 -0.1,-1.8c0.1,-0.2 -1,-2.2 -1,-2.2l-1.4,-2.6l-0.3,-4.7c1.5,-0.8 4.9,0.2 4.9,0.2c3.8,3.3 4.8,0.2 4.8,0.2c1.5,1.2 4.8,0.4 4.8,0.4c0,1.2 1.8,2.6 1.8,2.6c1.2,0.3 1.7,-0.9 1.7,-0.9c3.3,2.2 4.9,-0.2 4.9,-0.2c2.3,0.8 3.8,-1.4 3.8,-1.4c0.7,-0.8 -0.7,-0.9 -0.7,-0.9l1.4,-0.9c0,-0.1 0,-0.3 0.1,-0.6c0.3,-1.6 -2.6,-1.7 -2.6,-1.7c0.8,-1.1 -1.4,-2.3 -1.4,-2.3l-0.2,-2c0,0 1.1,-1 1.4,-1.1c0.3,-0.1 1.2,-0.7 1.2,-0.7l2.2,-1.1c1.4,0.2 -0.1,-2 -0.1,-2ZM185.3,15.3l2.5,-2.5c2.4,2.2 -2.5,2.5 -2.5,2.5ZM188.4,27.9c3.5,-1.3 9.4,1.5 9.4,1.5c-2.1,0.1 -12.9,-0.1 -9.4,-1.5Z" style="fill:#f17030;fill-rule:nonzero;"/><path d="M209,37.7c-0.2,0.8 0,0 0,0Z" style="fill:#f17030;fill-rule:nonzero;"/></g></g></svg>