<?xml version="1.0" encoding="utf-8"?>
<!-- Generator: Adobe Illustrator 19.1.0, SVG Export Plug-In . SVG Version: 6.00 Build 0)  -->
<svg version="1.1" id="Layer_1" xmlns="http://www.w3.org/2000/svg" xmlns:xlink="http://www.w3.org/1999/xlink" x="0px" y="0px"
	 viewBox="0 0 40.4 21.5" style="enable-background:new 0 0 40.4 21.5;" xml:space="preserve">
<style type="text/css">
	.st0{fill:none;stroke:#6E737A;stroke-width:2;stroke-linecap:round;stroke-linejoin:round;stroke-miterlimit:10;}
</style>
<path class="st0" d="M35.1,15h1.3c0,0,0.7-0.5,1.3-2.1l1-2.5c0,0-0.2-1.6-1.5-3l-5.1-5.5c0,0-9.3-0.9-14.1,0c0,0-3.4,3.8-4.8,5.7
	c0,0-7.5,0.8-10.8,1.7c0,0-1,1.1-0.7,3.5c0,0,0.2,2.2,1.4,2.2h2.1"/>
<line class="st0" x1="13.1" y1="15" x2="26.9" y2="15"/>
<circle class="st0" cx="9.2" cy="16" r="3.9"/>
<circle class="st0" cx="31.2" cy="16" r="3.9"/>
</svg>
