<?xml version="1.0" standalone="no"?><!DOCTYPE svg PUBLIC "-//W3C//DTD SVG 1.1//EN" "http://www.w3.org/Graphics/SVG/1.1/DTD/svg11.dtd"><svg width="100%" height="100%" viewBox="0 0 45 44" version="1.1" xmlns="http://www.w3.org/2000/svg" xmlns:xlink="http://www.w3.org/1999/xlink" xml:space="preserve" style="fill-rule:evenodd;clip-rule:evenodd;stroke-linejoin:round;stroke-miterlimit:1.41421;"><path d="M44,25l-21.3,0c-0.8,0 -1.4,-0.4 -1.8,-1.1l-8.7,-17.5c-0.2,-0.3 -0.1,-0.7 0,-1c0.2,-0.2 0.5,-0.4 0.8,-0.4l15,0c0.6,0 1,0.4 1,1c0,0.6 -0.4,1 -1,1l-13.3,0l8,16l19.8,0l-8.3,-16.6c-0.2,-0.5 0,-1.1 0.4,-1.3c0.5,-0.2 1.1,0 1.3,0.4l9,18c0.2,0.3 0.1,0.7 0,1c-0.2,0.3 -0.5,0.5 -0.9,0.5Z" style="fill:#99c5ce;fill-rule:nonzero;"/><path d="M35,17c-0.6,0 -1,-0.4 -1,-1l0,-14l-4,0l0,14c0,0.6 -0.4,1 -1,1c-0.6,0 -1,-0.4 -1,-1l0,-15c0,-0.6 0.4,-1 1,-1l6,0c0.6,0 1,0.4 1,1l0,15c0,0.6 -0.4,1 -1,1Z" style="fill:#99c5ce;fill-rule:nonzero;"/><path d="M4.8,25l-2.8,0c-0.8,0 -1.4,-0.4 -1.8,-1.1c-0.3,-0.7 -0.3,-1.5 0.2,-2.1l11.8,-16.4c0.3,-0.4 0.9,-0.5 1.4,-0.2c0.4,0.3 0.5,0.9 0.2,1.4l-11.8,16.4l2.3,0l9.9,-13.6c0.3,-0.4 0.9,-0.5 1.4,-0.2c0.4,0.3 0.5,1 0.2,1.4l-10.2,14c-0.1,0.2 -0.4,0.4 -0.8,0.4Z" style="fill:#99c5ce;fill-rule:nonzero;"/><path d="M5,43c-0.6,0 -1,-0.4 -1,-1l0,-18c0,-0.6 0.4,-1 1,-1c0.6,0 1,0.4 1,1l0,18c0,0.6 -0.4,1 -1,1Z" style="fill:#99c5ce;fill-rule:nonzero;"/><path d="M25,43c-0.6,0 -1,-0.4 -1,-1l0,-18c0,-0.6 0.4,-1 1,-1c0.6,0 1,0.4 1,1l0,18c0,0.6 -0.4,1 -1,1Z" style="fill:#99c5ce;fill-rule:nonzero;"/><path d="M41,43c-0.6,0 -1,-0.4 -1,-1l0,-18c0,-0.6 0.4,-1 1,-1c0.6,0 1,0.4 1,1l0,18c0,0.6 -0.4,1 -1,1Z" style="fill:#99c5ce;fill-rule:nonzero;"/><path d="M43,44l-41,0c-0.6,0 -1,-0.4 -1,-1c0,-0.6 0.4,-1 1,-1l41,0c0.6,0 1,0.4 1,1c0,0.6 -0.4,1 -1,1Z" style="fill:#99c5ce;fill-rule:nonzero;"/><path d="M16,44c-0.6,0 -1,-0.4 -1,-1l0,-15l-2,0l0,15c0,0.6 -0.4,1 -1,1c-0.6,0 -1,-0.4 -1,-1l0,-16c0,-0.6 0.4,-1 1,-1l4,0c0.6,0 1,0.4 1,1l0,16c0,0.6 -0.4,1 -1,1Z" style="fill:#99c5ce;fill-rule:nonzero;"/><path d="M36,35l-5,0c-0.6,0 -1,-0.4 -1,-1l0,-5c0,-0.6 0.4,-1 1,-1l5,0c0.6,0 1,0.4 1,1l0,5c0,0.6 -0.4,1 -1,1ZM32,33l3,0l0,-3l-3,0l0,3Z" style="fill:#99c5ce;fill-rule:nonzero;"/></svg>