<?xml version="1.0" standalone="no"?><!DOCTYPE svg PUBLIC "-//W3C//DTD SVG 1.1//EN" "http://www.w3.org/Graphics/SVG/1.1/DTD/svg11.dtd"><svg width="100%" height="100%" viewBox="0 0 32 32" version="1.1" xmlns="http://www.w3.org/2000/svg" xmlns:xlink="http://www.w3.org/1999/xlink" xml:space="preserve" style="fill-rule:evenodd;clip-rule:evenodd;stroke-linejoin:round;stroke-miterlimit:1.41421;"><path id="transportation_-_vehicle_car_1_" d="M7,18c-1.7,0 -3,1.3 -3,3c0,1.7 1.3,3 3,3c1.7,0 3,-1.3 3,-3c0,-1.7 -1.3,-3 -3,-3ZM7,22c-0.6,0 -1,-0.4 -1,-1c0,-0.6 0.4,-1 1,-1c0.6,0 1,0.4 1,1c0,0.6 -0.4,1 -1,1ZM25,18c-1.7,0 -3,1.3 -3,3c0,1.7 1.3,3 3,3c1.7,0 3,-1.3 3,-3c0,-1.7 -1.3,-3 -3,-3ZM25,22c-0.6,0 -1,-0.4 -1,-1c0,-0.6 0.4,-1 1,-1c0.6,0 1,0.4 1,1c0,0.6 -0.4,1 -1,1ZM32,13l0,-2c0,-0.6 -0.4,-1 -1,-1l-2,0c-0.1,0 -0.1,0 -0.2,0l-0.8,-4c0,-3.3 -2.7,-6 -6,-6l-12,0c-3.3,0 -6,2.7 -6,6l-0.8,4c-0.1,0 -0.1,0 -0.2,0l-2,0c-0.6,0 -1,0.4 -1,1l0,2c0,0.6 0.4,1 1,1l1.4,0l-0.1,0.4c-1.3,0.6 -2.3,2 -2.3,3.6l0,10l2,0l0,2c0,1.1 0.9,2 2,2l2,0c1.1,0 2,-0.9 2,-2l0,-2l15,0l0,2c0,1.1 0.9,2 2,2l2,0c1.1,0 2,-0.9 2,-2l0,-2l3,0l0,-4l0,-6c0,-1.6 -1,-3 -2.3,-3.6l-0.1,-0.4l1.4,0c0.6,0 1,-0.4 1,-1ZM6,6c0,-2.2 1.8,-4 4,-4l12,0c2.2,0 4,1.8 4,4l1.6,8l-23.2,0l1.6,-8ZM6,29c0,0.6 -0.4,1 -1,1c-0.6,0 -1,-0.4 -1,-1l0,-1l2,0l0,1ZM27,29c0,0.6 -0.4,1 -1,1c-0.6,0 -1,-0.4 -1,-1l0,-1l2,0l0,1ZM30,18l0,6c0,1.1 -0.9,2 -2,2l-24,0c-1.1,0 -2,-0.9 -2,-2l0,-6c0,-1.1 0.9,-2 2,-2l24,0c1.1,0 2,0.9 2,2Z" style="fill:#fff;"/></svg>