<?xml version="1.0" standalone="no"?><!DOCTYPE svg PUBLIC "-//W3C//DTD SVG 1.1//EN" "http://www.w3.org/Graphics/SVG/1.1/DTD/svg11.dtd"><svg width="100%" height="100%" viewBox="0 0 34 32" version="1.1" xmlns="http://www.w3.org/2000/svg" xmlns:xlink="http://www.w3.org/1999/xlink" xml:space="preserve" style="fill-rule:evenodd;clip-rule:evenodd;stroke-linejoin:round;stroke-miterlimit:1.41421;"><path id="tool_-_ruler" d="M0,0l0,32l14,0l0,-6l0,-2l0,-4l0,-2l0,-4l0,-2l0,-4l0,-2l0,-6l-14,0ZM12,26l0,4l-10,0l0,-28l10,0l0,4l-6,0l0,2l6,0l0,4l-4,0l0,2l4,0l0,4l-6,0l0,2l6,0l0,4l-4,0l0,2l4,0Z" style="fill:#fff;"/><path d="M18.1,14.7c-1.8,0 -3.1,-1.1 -3.1,-3.1l0,-1.6l1.9,0l0,1.5c0,1 0.5,1.5 1.2,1.5c0.9,0 1.3,-0.6 1.3,-1.7c0,-0.9 -0.2,-1.5 -0.9,-2.2l-2.1,-2.3c-1,-1.1 -1.3,-2 -1.3,-3.4c0,-1.9 0.9,-3.4 3.1,-3.4c1.9,0 3,1.1 3,3.1l0,1.6l-1.9,0l0,-1.5c0,-1 -0.5,-1.5 -1.2,-1.5c-0.8,0 -1.2,0.7 -1.2,1.6c0,0.9 0.2,1.5 0.9,2.2l2.2,2.4c1,1.1 1.3,2 1.3,3.4c0,2 -1,3.4 -3.2,3.4Z" style="fill:#fff;fill-rule:nonzero;"/><path d="M27.6,16.4l-1.1,-1.7c-0.1,0 -0.2,0 -0.3,0c-1.9,0 -3.1,-1.1 -3.1,-3.1l0,-8.5c0,-2 1.2,-3.1 3.1,-3.1c1.9,0 3.1,1.1 3.1,3.1l0,8.5c0,1.2 -0.4,2 -1.2,2.5l1.4,2.2l-1.9,0l0,0.1ZM27.4,3.2c0,-1 -0.5,-1.5 -1.2,-1.5c-0.7,0 -1.2,0.5 -1.2,1.5l0,8.3c0,1 0.5,1.5 1.2,1.5c0.7,0 1.2,-0.5 1.2,-1.5l0,-8.3Z" style="fill:#fff;fill-rule:nonzero;"/><rect x="31.6" y="12.2" width="2.2" height="2.3" style="fill:#fff;fill-rule:nonzero;"/><path d="M17.5,19.4l0,4.6l2.5,0l0,1.8l-2.5,0l0,6.2l-1.9,0l0,-14.3l4.7,0l0,1.7l-2.8,0Z" style="fill:#fff;fill-rule:nonzero;"/><path d="M27.5,19.4l0,12.6l-1.9,0l0,-12.6l-2.1,0l0,-1.7l6,0l0,1.7l-2,0Z" style="fill:#fff;fill-rule:nonzero;"/><rect x="32.3" y="29.7" width="2.2" height="2.3" style="fill:#fff;fill-rule:nonzero;"/></svg>