<?xml version="1.0" standalone="no"?><!DOCTYPE svg PUBLIC "-//W3C//DTD SVG 1.1//EN" "http://www.w3.org/Graphics/SVG/1.1/DTD/svg11.dtd"><svg width="100%" height="100%" viewBox="0 0 32 32" version="1.1" xmlns="http://www.w3.org/2000/svg" xmlns:xlink="http://www.w3.org/1999/xlink" xml:space="preserve" style="fill-rule:evenodd;clip-rule:evenodd;stroke-linejoin:round;stroke-miterlimit:1.41421;"><path id="interior_-_bed" d="M31.6,22l-3.6,-16l0,-4c0,-1.1 -0.9,-2 -2,-2l-20,0c-1.1,0 -2,0.9 -2,2l0,4l-3.6,16l-0.4,0l0,8l2,0l0,2l2,0l0,-2l24,0l0,2l2,0l0,-2l2,0l0,-8l-0.4,0ZM6,3c0,-0.6 0.4,-1 1,-1l18,0c0.6,0 1,0.4 1,1l0,2c0,0.6 -0.4,1 -1,1l-3,0l0,-1c0,-0.6 -0.4,-1 -1,-1l-10,0c-0.6,0 -1,0.4 -1,1l0,1l-3,0c-0.6,0 -1,-0.4 -1,-1l0,-2ZM20,6l0,2l-8,0l0,-2l8,0ZM6,8l4,0l0,1c0,0.6 0.4,1 1,1l10,0c0.6,0 1,-0.4 1,-1l0,-1l4,0l1.7,6l-23.4,0l1.7,-6ZM30,28l-2,0l-24,0l-2,0l0,-4l28,0l0,4ZM2,22l1.7,-6l24.6,0l1.7,6l-28,0Z" style="fill:#fff;"/></svg>