<?xml version="1.0" standalone="no"?><!DOCTYPE svg PUBLIC "-//W3C//DTD SVG 1.1//EN" "http://www.w3.org/Graphics/SVG/1.1/DTD/svg11.dtd"><svg width="100%" height="100%" viewBox="0 0 128 128" version="1.1" xmlns="http://www.w3.org/2000/svg" xmlns:xlink="http://www.w3.org/1999/xlink" xml:space="preserve" style="fill-rule:evenodd;clip-rule:evenodd;stroke-linejoin:round;stroke-miterlimit:1.41421;"><g id="XMLID_1_"><path id="XMLID_35_" d="M0,68c42.7,0 85.3,0 128,0c0,3 0,6 0,9c-2.6,0 -5.2,0 -8.3,0c0,3 0.1,5.4 0,7.9c-0.4,11.2 -4,21.4 -13.7,27.3c-6.7,4.1 -9,8.7 -8,15.8c-3,0 -6,0 -9,0c0,-2.7 0,-5.5 0,-8.1c-16.9,0 -33.4,0 -50.4,0c0.1,2.9 0.3,5.5 0.4,8.1c-3,0 -6,0 -9,0c0,-1.2 -0.3,-2.3 -0.1,-3.5c0.7,-4.9 -0.8,-7.9 -5.5,-10.6c-9.1,-5.2 -14.3,-13.6 -15.5,-24.2c-0.6,-4.1 -0.7,-8.4 -1,-12.7c-2.9,0 -5.4,0 -7.9,0c0,-3 0,-6 0,-9ZM17.8,77.2c-3.3,20.1 8.1,33.7 27.8,33.7c12.5,0 25,0 37.4,0c19.1,-0.1 30.9,-14.6 27.3,-33.7c-30.8,0 -61.7,0 -92.5,0Z" style="fill:#fff;fill-rule:nonzero;"/><path id="XMLID_31_" d="M64,29.8c-11.9,0 -22.3,0 -34.1,0c3.8,-2.6 6.4,-4.8 9.3,-6.4c3.6,-1.9 3.4,-4.4 2,-7.5c-2.2,-4.9 -6.7,-7.5 -12.5,-7.1c-4.9,0.3 -9.3,3.5 -10.7,8.3c-0.7,2.4 -0.9,4.9 -0.9,7.4c-0.1,11.6 0,23.2 0,35.1c-3.1,0 -5.6,0 -8.8,0c0,-10 -0.1,-19.8 0,-29.6c0,-4.3 0,-8.7 0.7,-12.9c1.6,-9.7 10.1,-16.9 19.8,-17.1c10.5,-0.2 19.9,6.2 21.7,16.1c0.8,4.3 2.7,6.8 6.1,8.7c2.2,1.3 4.2,2.8 7.4,5Z" style="fill:#fff;fill-rule:nonzero;"/></g></svg>