<?xml version="1.0" standalone="no"?><!DOCTYPE svg PUBLIC "-//W3C//DTD SVG 1.1//EN" "http://www.w3.org/Graphics/SVG/1.1/DTD/svg11.dtd"><svg width="100%" height="100%" viewBox="0 0 40 44" version="1.1" xmlns="http://www.w3.org/2000/svg" xmlns:xlink="http://www.w3.org/1999/xlink" xml:space="preserve" style="fill-rule:evenodd;clip-rule:evenodd;stroke-linejoin:round;stroke-miterlimit:1.41421;"><path id="Music_Note_1_x40_2x.png" d="M39,0l-0.1,0l-26,4c-0.5,0.1 -0.9,0.5 -0.9,1l0,30c-0.8,-0.6 -1.9,-1 -3,-1l-4,0c-2.8,0 -5,2.2 -5,5c0,2.8 2.2,5 5,5l4,0c2.8,0 5,-2.2 5,-5l0,-23.1l24,-3.7l0,16.8c-0.8,-0.6 -1.9,-1 -3,-1l-4,0c-2.8,0 -5,2.2 -5,5c0,2.8 2.2,5 5,5l4,0c2.8,0 5,-2.2 5,-5l0,-32c0,-0.6 -0.4,-1 -1,-1ZM9,42l-4,0c-1.7,0 -3,-1.3 -3,-3c0,-1.7 1.3,-3 3,-3l4,0c1.7,0 3,1.3 3,3c0,1.7 -1.3,3 -3,3ZM35,36l-4,0c-1.7,0 -3,-1.3 -3,-3c0,-1.7 1.3,-3 3,-3l4,0c1.7,0 3,1.3 3,3c0,1.7 -1.3,3 -3,3ZM38,10.1l-24,3.7l0,-8l24,-3.7l0,8Z" style="fill:#99c5ce;fill-rule:nonzero;"/></svg>