<?xml version="1.0" standalone="no"?><!DOCTYPE svg PUBLIC "-//W3C//DTD SVG 1.1//EN" "http://www.w3.org/Graphics/SVG/1.1/DTD/svg11.dtd"><svg width="100%" height="100%" viewBox="0 0 259 148" version="1.1" xmlns="http://www.w3.org/2000/svg" xmlns:xlink="http://www.w3.org/1999/xlink" xml:space="preserve" style="fill-rule:evenodd;clip-rule:evenodd;stroke-linejoin:round;stroke-miterlimit:1.41421;"><path d="M50.8553,88.7091l3.60924,0l7.63044,17.9272l-4.09215,0l-1.63182,-3.99144l-7.52515,0l-1.62953,3.99144l-3.98916,0l7.62814,-17.9272l-8.56248e-06,0ZM54.9749,99.1887l-2.36649,-5.77432l-2.3642,5.77432l4.73069,0Z" style="fill:#fff;fill-rule:nonzero;"/><path d="M63.3012,88.8324l4.32559,0l4.65058,12.5419l4.65516,-12.5419l4.22261,0l-7.19788,17.9317l-3.45589,0l-7.20017,-17.9317l-7.10543e-15,1.42109e-14Z" style="fill:#fff;fill-rule:nonzero;"/><rect x="86.6112" y="88.835" width="3.91134" height="17.8036" style="fill:#fff;"/><path d="M107.681,88.8324l3.91134,0l0,7.04453l7.22534,0l0,-7.04453l3.91592,0l0,17.8059l-3.91592,0l0,-7.14524l-7.22534,0l0,7.14524l-3.91134,0l0,-17.8059l0,-1.42109e-14Z" style="fill:#fff;fill-rule:nonzero;"/><path d="M128.745,97.7862l0,-0.0526403c0,-5.05568 3.99144,-9.20501 9.48655,-9.20501c5.49282,0 9.43389,4.09443 9.43389,9.15244l0,0.0526403c0,5.06484 -3.99144,9.20963 -9.48201,9.20963c-5.4951,0 -9.43851,-4.09673 -9.43851,-9.15698l8.56248e-05,-8.56248e-05ZM143.574,97.7862l0,-0.0526403c0,-3.0508 -2.2429,-5.5958 -5.38983,-5.5958c-3.15608,0 -5.34404,2.49694 -5.34404,5.54316l0,0.0526403c0,3.05767 2.24061,5.59352 5.39211,5.59352c3.1515,0 5.34176,-2.4855 5.34176,-5.54088l-8.56248e-06,-1.42109e-14Z" style="fill:#fff;fill-rule:nonzero;"/><path d="M153.679,88.8324l4.22261,0l4.67804,7.52974l4.67805,-7.52974l4.2226,0l0,17.8059l-3.89304,0l0,-11.6219l-5.00761,7.59839l-0.0984078,0l-4.96185,-7.52287l0,11.5463l-3.84039,0l0,-17.8059l-8.56248e-07,-1.42109e-14Z" style="fill:#fff;fill-rule:nonzero;"/><path d="M178.277,88.8324l13.4254,0l0,3.48794l-9.53235,0l0,3.61153l8.39714,0l0,3.48336l-8.39714,0l0,3.7374l9.66507,0l0,3.48565l-13.5581,0l0,-17.8059l0,-2.56874e-05Z" style="fill:#fff;fill-rule:nonzero;"/><path d="M196.628,104.041l2.31156,-2.7693c1.60207,1.32057 3.27966,2.1628 5.31658,2.1628c1.60207,0 2.56789,-0.636251 2.56789,-1.6776l0,-0.0549294c0,-0.990996 -0.606497,-1.49908 -3.58634,-2.26349c-3.58634,-0.915466 -5.9002,-1.90875 -5.9002,-5.44247l0,-0.0503511c0,-3.22703 2.59765,-5.36236 6.22977,-5.36236c2.59536,0 4.80851,0.812479 6.61426,2.2635l-2.03691,2.94781c-1.57689,-1.09399 -3.12632,-1.75541 -4.62541,-1.75541c-1.50138,0 -2.29096,0.686601 -2.29096,1.55172l0,0.0503511c0,1.16951 0.766707,1.54943 3.84268,2.33902c3.61381,0.942935 5.64615,2.23603 5.64615,5.34405l0,0.0503511c0,3.536 -2.69834,5.5157 -6.53874,5.5157c-2.69834,0 -5.41499,-0.942935 -7.55033,-2.8494l0,-2.56874e-06Z" style="fill:#fff;fill-rule:nonzero;"/><path d="M175.007,0.407472l-0.233442,-0.407387l-19.8611,0l9.85276,18.1514l10.2418,-17.744l-5.65124e-05,-1.62687e-05Z" style="fill:#c4202f;fill-rule:nonzero;"/><path d="M60.4494,45.1533l-7.46794,12.931l-7.46565,12.9333l29.8603,0l-7.46565,-12.9333l-7.46107,-12.931l3.42499e-05,0Z" style="fill:#17b3b9;fill-rule:nonzero;"/><path d="M86.5174,8.56248e-05l-10.8666,18.8174l20.225,35.0373l9.91227,17.1627l21.7332,0l-20.5042,-35.5088l-20.4996,-35.5088l0,8.56248e-05Z" style="fill:#17b3b9;fill-rule:nonzero;"/><path d="M181.935,8.56248e-05l-20.5019,35.5088l-9.74291,16.8744l-9.74513,-16.8744l-20.4974,-35.5088l-19.8634,0l29.2218,53.8548l9.90996,17.1627l21.9507,0l9.90765,-17.1627l29.2195,-53.8548l-19.8588,0l0,-6.08401e-15Z" style="fill:#17b3b9;fill-rule:nonzero;"/><path d="M195.271,35.5089l-3.16981,-5.4951l-10.4546,19.2592l2.48321,4.58192l9.90996,17.1627l21.7332,0l-20.5019,-35.5088l-2.56874e-05,7.70623e-05Z" style="fill:#17b3b9;fill-rule:nonzero;"/></svg>