<?xml version="1.0" standalone="no"?><!DOCTYPE svg PUBLIC "-//W3C//DTD SVG 1.1//EN" "http://www.w3.org/Graphics/SVG/1.1/DTD/svg11.dtd"><svg width="100%" height="100%" viewBox="0 0 259 148" version="1.1" xmlns="http://www.w3.org/2000/svg" xmlns:xlink="http://www.w3.org/1999/xlink" xml:space="preserve" style="fill-rule:evenodd;clip-rule:evenodd;stroke-linejoin:round;stroke-miterlimit:1.41421;"><path d="M35.9692,62.7564l0,5.6985l-6.28052,0l0,-5.6985c-0.00173374,-0.0382219 -0.00695088,-0.0764438 -0.00695088,-0.114666c0,-1.60531 1.40899,-2.90833 3.14634,-2.90833c1.73909,0 3.14808,1.30301 3.14808,2.90833c0,0.0382219 -0.00521714,0.0764438 -0.00695088,0.114666ZM45.813,49.358l-2.03966,-0.755746l0,3.09248l-2.5678,-0.528156l0,-3.2419l-3.71098,-0.754004l0,3.09074l-2.93786,0l0,-3.09074l-3.9959,0l0,3.16719l-2.85447,0l0,-2.94133l-3.83259,0.679302l0,2.9396l-2.44619,0.828714l0,-2.86315l-1.95799,0.754012l-1.71303,1.35687l-0.081661,28.1225l15.2522,12.0624l15.0872,-11.8366l0,-28.6506l-2.20122,-1.43158Z" style="fill:#c41130;fill-rule:nonzero;"/><path d="M90.8198,92.6531c-1.3363,-1.18651 -1.66617,-2.73992 -1.66617,-4.03583c0,-0.913867 0.316404,-2.50767 1.54163,-3.72279c0.826351,-0.817936 2.0785,-1.45748 4.19739,-1.45748c0.55034,0 1.32115,0.0403919 1.99603,0.163251c0.523412,0.0959311 0.962676,0.176715 1.40362,0.205326c0.151471,0.013464 0.180081,0.0673198 0.180081,0.149786c0,0.109395 -0.0420762,0.272646 -0.0690022,0.762398c-0.0286094,0.449361 -0.0286094,1.19998 -0.0420762,1.4053c-0.013463,0.203643 -0.040389,0.286109 -0.124541,0.286109c-0.0959321,0 -0.109395,-0.0959306 -0.109395,-0.286109c0,-0.531826 -0.220473,-1.09058 -0.577268,-1.39016c-0.483019,-0.408968 -1.54163,-0.777545 -2.75338,-0.777545c-1.8311,0 -2.68438,0.531827 -3.16572,0.994652c-1.00475,0.954259 -1.23869,2.1677 -1.23869,3.55785c0,2.6036 2.02296,4.99009 4.96821,4.99009c1.03336,0 1.84456,-0.122859 2.39491,-0.681614c0.289476,-0.299573 0.467873,-0.900403 0.509949,-1.14612c0.026926,-0.149787 0.0555392,-0.203643 0.138004,-0.203643c0.0690022,0 0.0959321,0.0942477 0.0959321,0.203643c0,0.0959308 -0.164934,1.28244 -0.302943,1.74527c-0.0824652,0.259182 -0.111075,0.286109 -0.356795,0.395504c-0.552021,0.217107 -1.59716,0.313037 -2.47905,0.313037c-2.06335,0 -3.45351,-0.503216 -4.54072,-1.47094Z" style="fill:#e1dfde;fill-rule:nonzero;"/><path d="M107.033,93.6057c1.23868,0 3.79852,-0.708542 3.79852,-4.67537c0,-3.27175 -2.0095,-5.03048 -4.18393,-5.03048c-2.29897,0 -4.019,1.49955 -4.019,4.48519c0,3.17581 1.92703,5.22066 4.4044,5.22066ZM106.743,83.437c3.09671,0 5.40915,1.93545 5.40915,5.11294c0,3.05296 -2.17443,5.57409 -5.49162,5.57409c-3.76991,0 -5.34015,-2.90317 -5.34015,-5.35698c0,-2.20809 1.62409,-5.33005 5.42261,-5.33005Z" style="fill:#e1dfde;fill-rule:nonzero;"/><path d="M125.812,92.1751c0.053852,0.491435 0.149784,1.25383 0.742202,1.44569c0.398867,0.122859 0.757349,0.122859 0.893673,0.122859c0.0689983,0 0.111078,0.013464 0.111078,0.0673199c0,0.0824668 -0.122866,0.122859 -0.289476,0.122859c-0.301263,0 -1.78903,-0.0403919 -2.29729,-0.0824669c-0.316402,-0.026928 -0.387095,-0.0673199 -0.387095,-0.136323c0,-0.0538559 0.0286132,-0.0807839 0.0976193,-0.0942478c0.0689983,-0.015147 0.0824652,-0.245718 0.0555392,-0.491435l-0.661417,-7.03493l-0.0403928,0l-3.37273,7.08878c-0.289476,0.60083 -0.329865,0.723689 -0.454406,0.723689c-0.0959321,0 -0.164934,-0.136323 -0.425801,-0.627758c-0.358478,-0.66815 -1.54162,-3.02603 -1.61063,-3.16235c-0.124545,-0.245717 -1.66617,-3.51746 -1.81764,-3.88436l-0.0555392,0l-0.550338,6.3247c-0.013463,0.21879 -0.013463,0.462824 -0.013463,0.695078c0,0.203643 0.151467,0.38204 0.358478,0.422432c0.233936,0.0538559 0.43926,0.0690029 0.523412,0.0690029c0.0555392,0 0.109395,0.026928 0.109395,0.0673199c0,0.0959308 -0.0824691,0.122859 -0.247403,0.122859c-0.509945,0 -1.16968,-0.0403919 -1.28076,-0.0403919c-0.122858,0 -0.784275,0.0403919 -1.15622,0.0403919c-0.136325,0 -0.233936,-0.026928 -0.233936,-0.122859c0,-0.0403919 0.0690022,-0.0673199 0.138004,-0.0673199c0.111078,0 0.207007,0 0.412334,-0.0420749c0.45441,-0.0807838 0.496482,-0.612611 0.552021,-1.13097l0.989606,-8.88791c0.0151464,-0.149787 0.0690022,-0.245718 0.151467,-0.245718c0.0841486,0 0.138004,0.0538558 0.20701,0.205326l4.21086,8.57319l4.04761,-8.56141c0.0555392,-0.121176 0.109399,-0.217107 0.205331,-0.217107c0.0959321,0 0.138004,0.109395 0.16493,0.368577l0.923966,8.36954Z" style="fill:#e1dfde;fill-rule:nonzero;"/><path d="M139.998,92.1751c0.0538597,0.491435 0.149784,1.25383 0.742202,1.44569c0.398867,0.122859 0.757349,0.122859 0.893673,0.122859c0.0689983,0 0.111078,0.013464 0.111078,0.0673199c0,0.0824668 -0.124545,0.122859 -0.289476,0.122859c-0.301263,0 -1.78903,-0.0403919 -2.29729,-0.0824669c-0.316402,-0.026928 -0.387087,-0.0673199 -0.387087,-0.136323c0,-0.0538559 0.0286055,-0.0807839 0.0976116,-0.0942478c0.0689983,-0.015147 0.0824652,-0.245718 0.0555392,-0.491435l-0.661417,-7.03493l-0.0420801,0l-3.37104,7.08878c-0.289476,0.60083 -0.329869,0.723689 -0.454406,0.723689c-0.0959321,0 -0.164938,-0.136323 -0.425801,-0.627758c-0.358474,-0.66815 -1.54162,-3.02603 -1.61063,-3.16235c-0.124538,-0.245717 -1.66616,-3.51746 -1.81763,-3.88436l-0.0555392,0l-0.550338,6.3247c-0.0134669,0.21879 -0.0134669,0.462824 -0.0134669,0.695078c0,0.203643 0.151471,0.38204 0.358474,0.422432c0.233936,0.0538559 0.439267,0.0690029 0.523412,0.0690029c0.0538597,0 0.109399,0.026928 0.109399,0.0673199c0,0.0959308 -0.0824652,0.122859 -0.247403,0.122859c-0.509945,0 -1.16968,-0.0403919 -1.28076,-0.0403919c-0.122858,0 -0.784275,0.0403919 -1.15622,0.0403919c-0.136325,0 -0.233936,-0.026928 -0.233936,-0.122859c0,-0.0403919 0.0689983,-0.0673199 0.138004,-0.0673199c0.111078,0 0.20701,0 0.412334,-0.0420749c0.454406,-0.0807838 0.496486,-0.612611 0.552025,-1.13097l0.989598,-8.88791c0.0151464,-0.149787 0.0690061,-0.245718 0.151471,-0.245718c0.0824652,0 0.138004,0.0538558 0.20701,0.205326l4.21086,8.57319l4.04761,-8.56141c0.0538597,-0.121176 0.109399,-0.217107 0.205331,-0.217107c0.0959321,0 0.138004,0.109395 0.16493,0.368577l0.923966,8.36954Z" style="fill:#e1dfde;fill-rule:nonzero;"/><path d="M143.828,87.5805c0,-2.12562 0,-2.50767 -0.026926,-2.94356c-0.0269337,-0.464507 -0.138004,-0.681614 -0.592418,-0.777544c-0.109391,-0.0269279 -0.343328,-0.0403919 -0.467873,-0.0403919c-0.053852,0 -0.109391,-0.0269279 -0.109391,-0.0824671c0,-0.0824671 0.0689983,-0.109395 0.22047,-0.109395c0.619344,0 1.45916,0.0420752 1.58202,0.0420752c0.124545,0 0.949213,-0.0420752 1.36323,-0.0420752c0.151471,0 0.21879,0.0269279 0.21879,0.109395c0,0.0555392 -0.053852,0.0824671 -0.109391,0.0824671c-0.0959321,0 -0.178397,0.013464 -0.343335,0.0403919c-0.371941,0.0555382 -0.483019,0.299573 -0.509945,0.777544c-0.026926,0.435897 -0.026926,0.817937 -0.026926,2.94356l0,1.90852c0,1.96406 0.43926,2.80892 1.03168,3.36768c0.674876,0.627758 1.29422,0.748934 2.0785,0.748934c0.839814,0 1.66616,-0.393821 2.16097,-0.981187c0.632803,-0.775862 0.797734,-1.93545 0.797734,-3.33907l0,-1.70488c0,-2.12562 0,-2.50767 -0.026926,-2.94356c-0.026926,-0.464507 -0.138004,-0.681614 -0.59241,-0.777544c-0.109399,-0.0269279 -0.345015,-0.0403919 -0.467873,-0.0403919c-0.0538597,0 -0.109399,-0.0269279 -0.109399,-0.0824671c0,-0.0824671 0.0690061,-0.109395 0.220477,-0.109395c0.619336,0 1.37501,0.0420752 1.45747,0.0420752c0.0976116,0 0.745569,-0.0420752 1.15622,-0.0420752c0.151464,0 0.22047,0.0269279 0.22047,0.109395c0,0.0555392 -0.0555392,0.0824671 -0.109391,0.0824671c-0.0976193,0 -0.180084,0.013464 -0.345015,0.0403919c-0.370261,0.0824662 -0.48134,0.299573 -0.508266,0.777544c-0.0286132,0.435897 -0.0286132,0.817937 -0.0286132,2.94356l0,1.45916c0,1.47262 -0.16493,3.1085 -1.26561,4.07622c-0.991285,0.871792 -2.02296,1.00812 -2.83416,1.00812c-0.467873,0 -1.85971,-0.0538559 -2.83585,-0.967723c-0.673204,-0.639539 -1.1983,-1.59548 -1.1983,-3.58478l0,-1.99099Z" style="fill:#e1dfde;fill-rule:nonzero;"/><path d="M157.018,92.0809c0.0286132,1.11751 0.164938,1.47094 0.536879,1.58033c0.26255,0.0673199 0.565484,0.0824669 0.688343,0.0824669c0.0690061,0 0.111078,0.026928 0.111078,0.0807838c0,0.0824669 -0.0824652,0.109395 -0.249083,0.109395c-0.784275,0 -1.33461,-0.0403919 -1.45747,-0.0403919c-0.124545,0 -0.701809,0.0403919 -1.32115,0.0403919c-0.138004,0 -0.220477,-0.013464 -0.220477,-0.109395c0,-0.0538559 0.0403928,-0.0807838 0.109399,-0.0807838c0.111078,0 0.358474,-0.015147 0.563805,-0.0824669c0.345015,-0.0959308 0.414013,-0.491435 0.414013,-1.7318l0.0134669,-7.81079c0,-0.531827 0.0420724,-0.681614 0.151471,-0.681614c0.109391,0 0.343328,0.299574 0.481332,0.435897c0.20701,0.232253 2.2569,2.42688 4.37747,4.67705c1.36155,1.44401 2.86278,3.10681 3.30204,3.55786l-0.151471,-6.92553c-0.0134669,-0.886939 -0.109391,-1.18651 -0.536879,-1.29591c-0.247396,-0.0538558 -0.563797,-0.0673198 -0.673196,-0.0673198c-0.0976116,0 -0.111078,-0.0420752 -0.111078,-0.0959311c0,-0.0807838 0.111078,-0.0959311 0.276017,-0.0959311c0.619336,0 1.27907,0.0420752 1.43054,0.0420752c0.151471,0 0.605877,-0.0420752 1.16968,-0.0420752c0.151471,0 0.249083,0.0151473 0.249083,0.0959311c0,0.0538558 -0.0555392,0.0959311 -0.151471,0.0959311c-0.0689983,0 -0.166618,0 -0.331548,0.0403919c-0.452727,0.0959301 -0.508266,0.395504 -0.508266,1.21344l-0.026926,7.9875c0,0.900403 -0.0286132,0.967723 -0.124545,0.967723c-0.111078,0 -0.276009,-0.149787 -1.00474,-0.871792c-0.151471,-0.136323 -2.13236,-2.14077 -3.59152,-3.69418c-1.59716,-1.70488 -3.15225,-3.42153 -3.5932,-3.91297l0.178397,6.53171Z" style="fill:#e1dfde;fill-rule:nonzero;"/><path d="M170.805,89.9805c0,1.30769 0,2.38481 0.0689983,2.95871c0.0404006,0.393821 0.122866,0.695078 0.536887,0.748934c0.191849,0.026928 0.496471,0.0555389 0.619336,0.0555389c0.0824652,0 0.111078,0.0403919 0.111078,0.0807838c0,0.0690029 -0.0706933,0.109395 -0.222157,0.109395c-0.757349,0 -1.6224,-0.0403919 -1.69141,-0.0403919c-0.0689983,0 -0.937425,0.0403919 -1.34976,0.0403919c-0.151471,0 -0.22047,-0.026928 -0.22047,-0.109395c0,-0.0403919 0.0286055,-0.0807838 0.111071,-0.0807838c0.122866,0 0.287788,-0.0286109 0.412334,-0.0555389c0.274329,-0.0538559 0.343328,-0.355112 0.398875,-0.748934c0.0689983,-0.573902 0.0689983,-1.65102 0.0689983,-2.95871l0,-2.39995c0,-2.12562 0,-2.50767 -0.0269183,-2.94356c-0.0286132,-0.464507 -0.166625,-0.695078 -0.467873,-0.76408c-0.151479,-0.0403919 -0.329876,-0.0538558 -0.427488,-0.0538558c-0.053852,0 -0.109391,-0.0269279 -0.109391,-0.0824671c0,-0.0824671 0.0689983,-0.109395 0.22047,-0.109395c0.452727,0 1.32115,0.0420752 1.39015,0.0420752c0.0690138,0 0.934066,-0.0420752 1.34809,-0.0420752c0.151464,0 0.220477,0.0269279 0.220477,0.109395c0,0.0555392 -0.0538674,0.0824671 -0.111078,0.0824671c-0.0942525,0 -0.178397,0.013464 -0.343343,0.0403919c-0.371941,0.0673198 -0.48134,0.299573 -0.508258,0.777544c-0.0286132,0.435897 -0.0286132,0.817937 -0.0286132,2.94356l0,2.39995Z" style="fill:#e1dfde;fill-rule:nonzero;"/><path d="M178.386,89.9805c0,1.30769 0,2.38481 0.0690138,2.95871c0.0403851,0.393821 0.12285,0.695078 0.536871,0.748934c0.191864,0.026928 0.494807,0.0555389 0.619336,0.0555389c0.0824652,0 0.109399,0.0403919 0.109399,0.0807838c0,0.0690029 -0.0689983,0.109395 -0.220477,0.109395c-0.757349,0 -1.62408,-0.0403919 -1.69309,-0.0403919c-0.0689983,0 -0.935746,0.0403919 -1.34807,0.0403919c-0.153158,0 -0.220477,-0.026928 -0.220477,-0.109395c0,-0.0403919 0.0269337,-0.0807838 0.109399,-0.0807838c0.124545,0 0.289476,-0.0286109 0.414021,-0.0555389c0.274329,-0.0538559 0.343328,-0.355112 0.398859,-0.748934c0.0690138,-0.573902 0.0690138,-1.65102 0.0690138,-2.95871l0,-5.76595l-2.03644,0.0269279c-0.853281,0.013464 -1.18482,0.107712 -1.40362,0.435896c-0.151464,0.232254 -0.193544,0.328184 -0.235608,0.422433c-0.0404006,0.109394 -0.0824806,0.136322 -0.136333,0.136322c-0.0420646,0 -0.0706779,-0.0403919 -0.0706779,-0.122858c0,-0.136323 0.277688,-1.30769 0.302927,-1.41708c0.0286132,-0.0824671 0.0824806,-0.259182 0.139692,-0.259182c0.0942525,0 0.233944,0.136323 0.604206,0.163251c0.398859,0.0420752 0.922279,0.0690032 1.08721,0.0690032l5.16175,0c0.43926,0 0.757349,-0.0269279 0.977826,-0.0690032c0.205331,-0.0269279 0.329861,-0.0673198 0.385408,-0.0673198c0.0689983,0 0.0689983,0.0807838 0.0689983,0.163251c0,0.408968 -0.0420646,1.34976 -0.0420646,1.49955c0,0.122859 -0.0404006,0.176715 -0.0959321,0.176715c-0.0690138,0 -0.097627,-0.0403919 -0.111078,-0.230571l-0.0134669,-0.151469c-0.0404006,-0.408968 -0.371941,-0.722006 -1.69309,-0.748934l-1.73349,-0.0269279l0,5.76595Z" style="fill:#e1dfde;fill-rule:nonzero;"/><path d="M186.772,89.9805c0,1.30769 0,2.38481 0.0689983,2.95871c0.0403851,0.393821 0.12285,0.695078 0.536871,0.748934c0.191864,0.026928 0.496486,0.0555389 0.619352,0.0555389c0.0824652,0 0.111078,0.0403919 0.111078,0.0807838c0,0.0690029 -0.0706933,0.109395 -0.222157,0.109395c-0.757349,0 -1.6241,-0.0403919 -1.69141,-0.0403919c-0.0706933,0 -0.937425,0.0403919 -1.34977,0.0403919c-0.151464,0 -0.220477,-0.026928 -0.220477,-0.109395c0,-0.0403919 0.0286132,-0.0807838 0.111078,-0.0807838c0.122866,0 0.287796,-0.0286109 0.412341,-0.0555389c0.276009,-0.0538559 0.345007,-0.355112 0.398875,-0.748934c0.0689983,-0.573902 0.0689983,-1.65102 0.0689983,-2.95871l0,-2.39995c0,-2.12562 0,-2.50767 -0.0269337,-2.94356c-0.0286132,-0.464507 -0.16493,-0.695078 -0.467873,-0.76408c-0.151464,-0.0403919 -0.33154,-0.0538558 -0.427472,-0.0538558c-0.0538674,0 -0.109399,-0.0269279 -0.109399,-0.0824671c0,-0.0824671 0.0689983,-0.109395 0.220477,-0.109395c0.452727,0 1.31946,0.0420752 1.39015,0.0420752c0.0673188,0 0.934066,-0.0420752 1.34807,-0.0420752c0.151479,0 0.220477,0.0269279 0.220477,0.109395c0,0.0555392 -0.0555315,0.0824671 -0.111078,0.0824671c-0.0959321,0 -0.178397,0.013464 -0.343328,0.0403919c-0.371941,0.0673198 -0.48134,0.299573 -0.509953,0.777544c-0.0269183,0.435897 -0.0269183,0.817937 -0.0269183,2.94356l0,2.39995Z" style="fill:#e1dfde;fill-rule:nonzero;"/><path d="M191.323,87.5805c0,-2.12562 0,-2.50767 -0.0269337,-2.94356c-0.0269183,-0.464507 -0.137997,-0.681614 -0.592403,-0.777544c-0.109399,-0.0269279 -0.343343,-0.0403919 -0.467873,-0.0403919c-0.0538674,0 -0.109399,-0.0269279 -0.109399,-0.0824671c0,-0.0824671 0.0689983,-0.109395 0.220477,-0.109395c0.316394,0 0.688335,0 0.991277,0.0151473l0.563805,0.0269279c0.0959321,0 2.83585,0 3.15226,-0.0151473c0.260862,-0.0117806 0.481324,-0.0403919 0.590723,-0.0673198c0.0689983,-0.013464 0.124545,-0.0673198 0.193544,-0.0673198c0.0404006,0 0.053852,0.0538558 0.053852,0.122859c0,0.0942477 -0.0673188,0.257499 -0.109383,0.639539c-0.0134669,0.136323 -0.0420801,0.73547 -0.0690138,0.900403c-0.0134514,0.0673198 -0.0403851,0.149787 -0.0959321,0.149787c-0.0824652,0 -0.111078,-0.0673198 -0.111078,-0.176715c0,-0.0959301 -0.0134514,-0.328184 -0.0807703,-0.491435c-0.097627,-0.218789 -0.235624,-0.38204 -0.977826,-0.464507c-0.235624,-0.0269279 -1.73517,-0.0403919 -1.88496,-0.0403919c-0.0572264,0 -0.0841447,0.0403919 -0.0841447,0.136323l0,3.76318c0,0.0942477 0.0134669,0.136322 0.0841447,0.136322c0.178397,0 1.87149,0 2.1879,-0.0269279c0.329861,-0.0269279 0.523404,-0.0555387 0.64627,-0.191862c0.0959321,-0.107712 0.151464,-0.176714 0.20701,-0.176714c0.0403851,0 0.0689983,0.0269279 0.0689983,0.109395c0,0.0807838 -0.0689983,0.313037 -0.111078,0.764081c-0.0269337,0.270963 -0.0555469,0.775862 -0.0555469,0.871792c0,0.107712 0,0.259182 -0.0959166,0.259182c-0.0690138,0 -0.0959321,-0.0555387 -0.0959321,-0.122859c0,-0.136323 0,-0.272645 -0.0555469,-0.451043c-0.053852,-0.190179 -0.178397,-0.422432 -0.715269,-0.476288c-0.371941,-0.0403919 -1.73349,-0.0690027 -1.9691,-0.0690027c-0.0690138,0 -0.0959321,0.0420748 -0.0959321,0.0959306l0,1.19998c0,0.462824 -0.0134669,2.04484 0,2.33095c0.0420646,0.940795 0.247396,1.11751 1.59716,1.11751c0.358474,0 0.962664,0 1.32115,-0.149787c0.358474,-0.149787 0.523404,-0.422432 0.619336,-0.981187c0.0269337,-0.149787 0.0555469,-0.205326 0.122866,-0.205326c0.0841447,0 0.0841447,0.109395 0.0841447,0.205326c0,0.109395 -0.111078,1.03504 -0.180077,1.32284c-0.0959321,0.353429 -0.205331,0.353429 -0.742202,0.353429c-1.03336,0 -1.79071,-0.0269279 -2.32759,-0.0403919c-0.535192,-0.026928 -0.866732,-0.0403919 -1.07206,-0.0403919c-0.0286132,0 -0.262542,0 -0.550338,0.013464c-0.276009,0 -0.592418,0.026928 -0.799429,0.026928c-0.151464,0 -0.220477,-0.026928 -0.220477,-0.109395c0,-0.0403919 0.0286132,-0.0807838 0.111078,-0.0807838c0.122866,0 0.289476,-0.0286109 0.412341,-0.0555389c0.276009,-0.0538559 0.345007,-0.355112 0.398875,-0.748934c0.0689983,-0.573902 0.0689983,-1.65102 0.0689983,-2.95871l0,-2.39995Z" style="fill:#e1dfde;fill-rule:nonzero;"/><path d="M198.491,93.7571c-0.193544,-0.0959308 -0.20701,-0.15147 -0.20701,-0.518363c0,-0.681614 0.0555315,-1.2269 0.0689983,-1.44569c0.0134669,-0.149787 0.0420801,-0.217107 0.109399,-0.217107c0.0841447,0 0.0976116,0.0403919 0.0976116,0.149787c0,0.122859 0,0.313037 0.0404006,0.504899c0.206995,1.00812 1.11414,1.39016 2.03642,1.39016c1.32115,0 1.9691,-0.940795 1.9691,-1.81427c0,-0.939112 -0.398875,-1.48609 -1.5837,-2.45381l-0.619352,-0.504899c-1.45747,-1.18483 -1.78903,-2.02969 -1.78903,-2.95703c0,-1.45916 1.10069,-2.45381 2.84932,-2.45381c0.536871,0 0.935746,0.0538558 1.27907,0.136323c0.262557,0.0538558 0.373636,0.0690032 0.483019,0.0690032c0.109399,0 0.138012,0.0269279 0.138012,0.0942477c0,0.0690032 -0.0555315,0.518363 -0.0555315,1.44569c0,0.217107 -0.0286132,0.313038 -0.0959321,0.313038c-0.0841601,0 -0.0959321,-0.0673198 -0.111078,-0.176715c-0.0134669,-0.163251 -0.0959321,-0.531827 -0.178397,-0.681614c-0.0824652,-0.149787 -0.454421,-0.722006 -1.72003,-0.722006c-0.950892,0 -1.69309,0.585683 -1.69309,1.58033c0,0.777545 0.358474,1.2673 1.67795,2.29056l0.387087,0.299573c1.62242,1.2673 2.0095,2.11216 2.0095,3.20274c0,0.560438 -0.220477,1.59548 -1.16969,2.26363c-0.592418,0.408968 -1.3363,0.572219 -2.08018,0.572219c-0.64627,0 -1.27907,-0.0959308 -1.84288,-0.366893Z" style="fill:#e1dfde;fill-rule:nonzero;"/><path d="M58.1761,71.8102c-2.94908,-2.64508 -3.67778,-6.10976 -3.67778,-8.99774c0,-2.03708 0.698897,-5.59415 3.40358,-8.29884c1.82399,-1.82398 4.59126,-3.25307 9.27193,-3.25307c1.21599,0 2.91927,0.0909002 4.40797,0.365095c1.15638,0.213098 2.12798,0.394901 3.10108,0.455998c0.335292,0.0298032 0.394898,0.151997 0.394898,0.333801c0,0.242901 -0.0909002,0.607996 -0.150508,1.70179c-0.061097,1.00289 -0.061097,2.67488 -0.0923907,3.13088c-0.0298032,0.457489 -0.0909019,0.639289 -0.272704,0.639289c-0.213096,0 -0.24439,-0.213098 -0.24439,-0.639289c0,-1.1847 -0.485802,-2.43198 -1.2756,-3.09958c-1.06399,-0.911994 -3.40507,-1.73308 -6.07995,-1.73308c-4.04436,0 -5.92796,1.18619 -6.99195,2.21889c-2.22038,2.12798 -2.73598,4.83416 -2.73598,7.93374c0,5.80725 4.46757,11.1272 10.9737,11.1272c2.27998,0 4.07417,-0.272702 5.29016,-1.51999c0.637799,-0.669093 1.0327,-2.00728 1.1236,-2.55269c0.061097,-0.335292 0.122194,-0.457486 0.303996,-0.457486c0.151999,0 0.213098,0.213096 0.213098,0.457486c0,0.211607 -0.365095,2.85669 -0.669093,3.89087c-0.181804,0.578192 -0.242901,0.637799 -0.7898,0.8807c-1.21599,0.487291 -3.52578,0.700386 -5.47196,0.700386c-4.55997,0 -7.62975,-1.12658 -10.0319,-3.28437Z" style="fill:#e1dfde;fill-rule:nonzero;"/><path d="M87.5774,67.2413c0.108786,0 0.108786,-0.0551367 0.0819606,-0.163921l-2.37237,-6.35415c-0.137099,-0.354663 -0.272704,-0.354663 -0.4098,0l-2.23677,6.35415c-0.0268222,0.108785 0,0.163921 0.0819606,0.163921l4.85502,0ZM84.904,57.5879c0.301017,-0.762974 0.4098,-0.900073 0.573721,-0.900073c0.244391,0 0.326349,0.326352 0.57223,0.846425c0.436625,0.980543 4.2813,10.5535 5.7536,14.0703c0.873247,2.07285 1.52744,2.37237 2.04602,2.5363c0.354661,0.108783 0.709326,0.135607 0.953717,0.135607c0.137096,0 0.301017,0.0551367 0.301017,0.192232c0,0.135608 -0.272704,0.189255 -0.545408,0.189255c-0.354665,0 -2.12798,0 -3.79103,-0.053647c-0.463448,-0.0268231 -0.844935,-0.0268231 -0.844935,-0.16243c0,-0.110273 0.0536445,-0.110273 0.162427,-0.16541c0.137099,-0.0536479 0.382977,-0.244391 0.21906,-0.625878l-2.15481,-5.31847c-0.0551384,-0.108783 -0.0819606,-0.137097 -0.217569,-0.137097l-5.53604,0c-0.108785,0 -0.190743,0.0551367 -0.24588,0.192234l-1.36352,3.70907c-0.217566,0.57223 -0.354663,1.14446 -0.354663,1.55426c0,0.463448 0.4098,0.625878 0.818111,0.625878l0.219058,0c0.190743,0 0.24439,0.0819589 0.24439,0.192232c0,0.135608 -0.135607,0.189255 -0.354663,0.189255c-0.572232,0 -1.88061,-0.0804701 -2.15332,-0.0804701c-0.24588,0 -1.44548,0.0804701 -2.42751,0.0804701c-0.299526,0 -0.463446,-0.053647 -0.463446,-0.189255c0,-0.110273 0.108783,-0.192232 0.217566,-0.192232c0.163921,0 0.518584,-0.0268239 0.709328,-0.0536479c1.09082,-0.135607 1.55426,-0.953717 2.01771,-2.12649l5.64482,-14.5084Z" style="fill:#e1dfde;fill-rule:nonzero;"/><path d="M96.7122,74.3316c-0.327839,-0.163921 -0.354661,-0.244391 -0.354661,-0.873249c0,-1.14446 0.108783,-2.07136 0.135605,-2.45434c0,-0.24439 0.0551384,-0.381487 0.192234,-0.381487c0.135609,0 0.217566,0.0819606 0.217566,0.272704c0,0.190743 0,0.518584 0.0819606,0.846425c0.381487,1.68987 2.18163,2.29041 3.79103,2.29041c2.37237,0 3.59879,-1.33669 3.59879,-3.0817c0,-1.66305 -0.90007,-2.45433 -3.02656,-4.03542l-1.09082,-0.818112c-2.59143,-1.93724 -3.43636,-3.35441 -3.43636,-4.96381c0,-2.72704 2.15481,-4.36326 5.31847,-4.36326c0.953721,0 1.90893,0.135609 2.48116,0.272704c0.463448,0.108783 0.654191,0.108783 0.844935,0.108783c0.190743,0 0.245882,0.0283127 0.245882,0.163921c0,0.108783 -0.108783,0.871757 -0.108783,2.45433c0,0.354665 -0.0283161,0.518586 -0.190743,0.518586c-0.163921,0 -0.190747,-0.110273 -0.21906,-0.299526c-0.0268222,-0.274195 -0.217566,-0.901563 -0.354665,-1.14595c-0.162427,-0.272704 -0.953717,-1.14595 -3.10852,-1.14595c-1.74501,0 -3.19049,0.873247 -3.19049,2.50947c0,1.4723 0.736152,2.31724 3.10852,3.92664l0.682507,0.463448c2.91778,1.99089 3.92664,3.5988 3.92664,5.58968c0,1.36352 -0.518586,2.83731 -2.23677,3.95495c-1.00886,0.655681 -2.50798,0.818111 -3.81785,0.818111c-1.11764,0 -2.50798,-0.16243 -3.49001,-0.627367Z" style="fill:#e1dfde;fill-rule:nonzero;"/><path d="M118.473,67.9238c0,2.23528 0,4.06373 0.108783,5.01745c0.0819606,0.682504 0.192237,1.11764 0.926895,1.22642c0.327842,0.0551367 0.873251,0.108785 1.09082,0.108785c0.165415,0 0.192237,0.110273 0.192237,0.192232c0,0.108785 -0.110277,0.189255 -0.381487,0.189255c-1.30988,0 -2.83732,-0.0804701 -2.97292,-0.0804701c-0.11027,0 -1.77332,0.0804701 -2.48265,0.0804701c-0.272704,0 -0.381487,-0.053647 -0.381487,-0.189255c0,-0.0819589 0.0551384,-0.16541 0.192231,-0.16541c0.217573,0 0.490277,-0.0536462 0.707842,-0.107292c0.491757,-0.108785 0.627369,-0.572232 0.709323,-1.25474c0.10879,-0.953719 0.10879,-2.78218 0.10879,-5.01745l0,-9.73687l-3.46319,0.0551384c-1.49913,0.0268222 -2.07285,0.190743 -2.42751,0.736152c-0.272704,0.4098 -0.299526,0.57223 -0.381487,0.736152c-0.0551384,0.190743 -0.135609,0.219056 -0.245882,0.219056c-0.0536445,0 -0.162427,-0.0551384 -0.162427,-0.190743c0,-0.245882 0.49027,-2.31873 0.517092,-2.50947c0.0551384,-0.137096 0.163921,-0.436625 0.245882,-0.436625c0.163921,0 0.408309,0.190747 1.06399,0.272704c0.681013,0.0819606 1.60791,0.110273 1.88211,0.110273l9.05287,0c0.791283,0 1.33669,-0.055135 1.71818,-0.110273c0.354665,-0.055135 0.57223,-0.108783 0.682507,-0.108783c0.108783,0 0.108783,0.135609 0.108783,0.272704c0,0.709329 -0.0819606,2.37238 -0.0819606,2.64508c0,0.190747 -0.11027,0.29953 -0.219053,0.29953c-0.10879,0 -0.162434,-0.0804701 -0.19075,-0.408313l-0.0268222,-0.245878c-0.0819606,-0.707839 -0.60054,-1.22642 -2.89096,-1.28156l-2.99975,-0.0551384l0,9.73687Z" style="fill:#e1dfde;fill-rule:nonzero;"/><path d="M132.273,67.979c0,3.40805 0.0536513,4.7984 0.49027,5.20671c0.381487,0.382977 1.30838,0.546899 3.19049,0.546899c1.25474,0 2.31872,-0.0283144 2.89096,-0.709328c0.299533,-0.354665 0.491764,-0.846425 0.572237,-1.30987c0.0283093,-0.163921 0.11027,-0.299528 0.245875,-0.299528c0.108783,0 0.163921,0.108783 0.163921,0.354665c0,0.24588 -0.163921,1.63622 -0.354665,2.31873c-0.163921,0.543918 -0.245882,0.625878 -1.52743,0.625878c-1.71819,0 -3.05488,-0.0268239 -4.17252,-0.0819606c-1.09082,-0.0268231 -1.90892,-0.0536462 -2.61825,-0.0536462c-0.108783,0 -0.517099,0 -0.982034,0.0268231c-0.49027,0.0268231 -1.00886,0.053647 -1.39034,0.053647c-0.245882,0 -0.381487,-0.053647 -0.381487,-0.189255c0,-0.0819589 0.0536445,-0.192232 0.190743,-0.192232c0.217566,0 0.518586,-0.0536479 0.736152,-0.108785c0.463448,-0.108783 0.518586,-0.543918 0.627369,-1.22642c0.137099,-0.953719 0.137099,-2.78218 0.137099,-5.01745l0,-4.09205c0,-3.5988 0,-4.25299 -0.0551384,-4.98914c-0.0551384,-0.791287 -0.190743,-1.17277 -0.982034,-1.28156c-0.190743,-0.0268256 -0.600547,-0.0551384 -0.818112,-0.0551384c-0.0819606,0 -0.190743,-0.108783 -0.190743,-0.190743c0,-0.135609 0.108783,-0.190743 0.381487,-0.190743c1.09082,0 2.59143,0.055135 2.72704,0.055135c0.108783,0 1.91042,-0.055135 2.64507,-0.055135c0.245882,0 0.382981,0.055135 0.382981,0.190743c0,0.0819606 -0.110277,0.162431 -0.192237,0.162431c-0.162427,0 -0.517092,0.0283127 -0.789796,0.0566255c-0.709329,0.135609 -0.844935,0.490273 -0.900073,1.30838c-0.0268222,0.736152 -0.0268222,1.39034 -0.0268222,4.98914l0,4.14718Z" style="fill:#e1dfde;fill-rule:nonzero;"/><path d="M144.897,63.8318c0,-3.5988 0,-4.25299 -0.0536445,-4.98914c-0.0551384,-0.791287 -0.190743,-1.17277 -0.982034,-1.28156c-0.190743,-0.0268256 -0.600547,-0.0551384 -0.818112,-0.0551384c-0.0819606,0 -0.190743,-0.108783 -0.190743,-0.190743c0,-0.135609 0.108783,-0.190743 0.381487,-0.190743c1.09082,0 2.64508,0.055135 2.78217,0.055135c0.163921,0 5.18138,0.0268256 5.72679,0c0.463448,-0.0283127 0.900066,-0.110273 1.09081,-0.137096c0.108783,-0.0283127 0.217573,-0.108783 0.327842,-0.108783c0.0804735,0 0.108783,0.108783 0.108783,0.217566c0,0.163921 -0.137099,0.436625 -0.192231,1.09082c-0.0268222,0.219056 -0.0804735,1.25473 -0.135612,1.52744c-0.0268222,0.108783 -0.108783,0.245882 -0.217566,0.245882c-0.137092,0 -0.192231,-0.110273 -0.192231,-0.301017c0,-0.163921 -0.0268222,-0.543918 -0.135605,-0.818112c-0.163921,-0.381487 -0.408316,-0.543918 -1.71819,-0.709329c-0.408309,-0.0536445 -3.19049,-0.0804701 -3.46319,-0.0804701c-0.11027,0 -0.137092,0.0804701 -0.137092,0.245882l0,6.29752c0,0.165412 0,0.24588 0.137092,0.24588c0.299526,0 3.46319,0 4.0086,-0.0536462c0.57223,-0.0551367 0.926895,-0.0819606 1.17278,-0.327841c0.162427,-0.162429 0.272697,-0.299526 0.354658,-0.299526c0.0819606,0 0.135612,0.0536462 0.135612,0.190743c0,0.135607 -0.135612,0.518584 -0.189256,1.28156c-0.0551384,0.463448 -0.11027,1.3367 -0.11027,1.49913c0,0.192234 -0.0551384,0.438114 -0.217573,0.438114c-0.11027,0 -0.163914,-0.0834511 -0.163914,-0.219058c0,-0.219056 0,-0.463448 -0.10879,-0.764464c-0.0819606,-0.32635 -0.301013,-0.599054 -1.22791,-0.707837c-0.654191,-0.0819606 -3.21731,-0.110275 -3.62711,-0.110275c-0.137092,0 -0.163914,0.0819606 -0.163914,0.165412l0,1.93575c0,0.789798 -0.0268291,3.49001 0,3.95346c0.0551316,1.55426 0.491757,1.85528 2.86413,1.85528c0.627369,0 1.77183,0 2.40069,-0.247371c0.625882,-0.271214 0.953717,-0.679524 1.08933,-1.60791c0.0551316,-0.272704 0.11027,-0.354665 0.245875,-0.354665c0.137099,0 0.163921,0.190745 0.163921,0.354665c0,0.163921 -0.190743,1.7465 -0.326349,2.23677c-0.165408,0.599054 -0.409803,0.599054 -1.3367,0.599054c-1.80014,0 -3.19198,-0.0551367 -4.17252,-0.0819606c-1.01034,-0.0536462 -1.63622,-0.0536462 -1.99089,-0.0536462c-0.0551316,0 -0.518579,0 -1.03717,0.0268231c-0.463448,0.0268231 -1.00886,0.053647 -1.39034,0.053647c-0.245882,0 -0.381487,-0.053647 -0.381487,-0.189255c0,-0.0819589 0.0536445,-0.192232 0.190743,-0.192232c0.217566,0 0.518586,-0.0804701 0.736152,-0.108785c0.463448,-0.0804701 0.518586,-0.543918 0.627369,-1.22642c0.135605,-0.953719 0.135605,-2.78218 0.135605,-5.01745l0,-4.09205Z" style="fill:#e1dfde;fill-rule:nonzero;"/><path d="M163.759,63.1463c0,0.151999 0.0610936,0.274193 0.213098,0.365095c0.455992,0.274195 1.85379,0.487291 3.19198,0.487291c0.73019,0 1.58109,-0.0923924 2.27998,-0.578192c1.06399,-0.728699 1.85379,-2.37237 1.85379,-4.68216c0,-3.79997 -2.00579,-6.07995 -5.25886,-6.07995c-0.91199,0 -1.73308,0.0923907 -2.03708,0.1818c-0.152004,0.0625875 -0.242901,0.183294 -0.242901,0.366585l0,9.93953ZM161.327,60.5027c0,-4.74326 0,-5.59415 -0.0611004,-6.56724c-0.0610936,-1.0327 -0.303994,-1.51999 -1.30689,-1.73309c-0.242901,-0.061097 -0.759993,-0.0909002 -1.03419,-0.0909002c-0.120707,0 -0.242901,-0.0596065 -0.242901,-0.181804c0,-0.1818 0.152004,-0.242901 0.487296,-0.242901c1.36649,0 3.28287,0.0909036 3.43487,0.0909036c0.333804,0 2.64508,-0.0909036 3.58688,-0.0909036c1.91488,0 3.95196,0.181804 5.56435,1.3367c0.758499,0.546895 2.09669,2.03708 2.09669,4.13526c0,2.24869 -0.941807,4.49887 -3.67778,7.02175c2.49159,3.19198 4.55997,5.89815 6.32286,7.78324c1.6407,1.73159 2.94908,2.06689 3.70907,2.18759c0.576705,0.0909019 1.0014,0.0909019 1.18469,0.0909019c0.151997,0 0.274198,0.0923907 0.274198,0.183293c0,0.181802 -0.183294,0.2429 -0.73019,0.2429l-2.15778,0c-1.70328,0 -2.46328,-0.151998 -3.25308,-0.576701c-1.3069,-0.700388 -2.37089,-2.18908 -4.10397,-4.46907c-1.2771,-1.67199 -2.70618,-3.70907 -3.31418,-4.50036c-0.122194,-0.120705 -0.211604,-0.181802 -0.394898,-0.181802l-3.73887,-0.061097c-0.152004,0 -0.213098,0.0909002 -0.213098,0.242899l0,0.730191c0,2.91778 0,5.31996 0.151997,6.59705c0.0909036,0.8807 0.272704,1.54979 1.18619,1.67199c0.424701,0.061097 1.0938,0.120705 1.36799,0.120705c0.1818,0 0.242901,0.0923907 0.242901,0.183293c0,0.151999 -0.151997,0.2429 -0.485802,0.2429c-1.67348,0 -3.58836,-0.0909011 -3.74036,-0.0909011c-0.0298032,0 -1.94618,0.0909011 -2.85668,0.0909011c-0.335292,0 -0.487289,-0.0610978 -0.487289,-0.2429c0,-0.0909019 0.0611004,-0.183293 0.242901,-0.183293c0.274191,0 0.639286,-0.0596082 0.913484,-0.120705c0.606502,-0.122196 0.758506,-0.791288 0.8807,-1.67199c0.151997,-1.27709 0.151997,-3.67927 0.151997,-6.59705l0,-5.34976Z" style="fill:#e1dfde;fill-rule:nonzero;"/><path d="M190.4,74.0038c2.15331,0 6.48975,-1.14446 6.48975,-7.85328c0,-5.56286 -3.38123,-8.48064 -7.17226,-8.48064c-4.0086,0 -6.89956,2.50798 -6.89956,7.55375c0,5.39894 3.24563,8.78017 7.58207,8.78017ZM189.853,56.7966c5.40042,0 9.49098,3.30076 9.49098,8.6997c0,5.18137 -3.84468,9.46267 -9.62659,9.46267c-6.57172,0 -9.38072,-4.93549 -9.38072,-9.10801c0,-3.73589 2.89096,-9.05437 9.51633,-9.05437Z" style="fill:#e1dfde;fill-rule:nonzero;"/><path d="M205.508,72.4778c-2.34555,-2.01771 -2.91927,-4.66428 -2.91927,-6.87273c0,-1.55426 0.573718,-4.25448 2.70021,-6.32584c1.44548,-1.39183 3.62711,-2.48265 7.30936,-2.48265c0.953717,0 2.31724,0.0819606 3.49001,0.272704c0.900073,0.163921 1.66305,0.327842 2.45433,0.354665c0.245889,0 0.30102,0.110273 0.30102,0.245882c0,0.190743 -0.0551316,0.463448 -0.110277,1.30838c-0.0268222,0.764464 -0.0268222,2.04453 -0.0536445,2.37237c-0.0283093,0.354663 -0.137099,0.49027 -0.272697,0.49027c-0.163921,0 -0.192231,-0.162431 -0.192231,-0.49027c0,-0.898582 -0.381487,-1.82697 -1.00738,-2.31724c-0.846415,-0.709326 -2.59143,-1.28156 -4.71792,-1.28156c-3.08319,0 -4.5555,0.818109 -5.40044,1.60791c-1.77182,1.63622 -2.15481,3.70907 -2.15481,6.05462c0,4.44522 3.51834,8.39868 8.64456,8.39868c1.80015,0 2.99975,-0.135607 3.95496,-1.09082c0.518586,-0.517094 0.844941,-1.49913 0.926895,-1.93575c0.0551316,-0.245882 0.0819538,-0.32635 0.245875,-0.32635c0.10879,0 0.219066,0.162429 0.217566,0.32635c0,0.16392 -0.326342,2.18163 -0.57223,2.97292c-0.137085,0.436625 -0.190743,0.517095 -0.60054,0.682506c-0.98054,0.379996 -2.78069,0.517094 -4.33494,0.517094c-3.60029,0 -6.0278,-0.844935 -7.90841,-2.48116Z" style="fill:#e1dfde;fill-rule:nonzero;"/><path d="M224.841,63.8318c0,-3.5988 0,-4.25299 -0.0536581,-4.98914c-0.0551316,-0.791287 -0.192231,-1.17277 -0.983514,-1.28156c-0.189256,-0.0268256 -0.599053,-0.0551384 -0.818119,-0.0551384c-0.0804667,0 -0.189243,-0.108783 -0.189243,-0.190743c0,-0.135609 0.108776,-0.190743 0.381487,-0.190743c1.08932,0 2.56311,0.055135 2.69872,0.055135c0.219053,0 1.66453,-0.055135 2.37386,-0.055135c0.272711,0 0.38,0.055135 0.38,0.190743c0,0.0819606 -0.0804667,0.190743 -0.189256,0.190743c-0.163921,0 -0.30102,0 -0.60054,0.0551384c-0.627376,0.135605 -0.791297,0.463448 -0.844941,1.28156c-0.0551316,0.736152 -0.0551316,1.39034 -0.0551316,4.98914l0,1.39183l0.108776,0c0.381501,-0.436624 4.66429,-4.66279 5.56287,-5.58968c0.682494,-0.682504 1.30987,-1.28156 1.30987,-1.66454c0,-0.299526 -0.110277,-0.435135 -0.299533,-0.463448c-0.137099,-0.0283127 -0.219053,-0.137096 -0.219053,-0.217566c0,-0.108786 0.10879,-0.163921 0.272697,-0.163921c0.491764,0 1.22792,0.055135 1.80015,0.055135c0.137099,0 1.71819,-0.055135 2.31724,-0.055135c0.245875,0 0.354665,0.055135 0.354665,0.163921c0,0.108783 -0.0536445,0.189253 -0.245889,0.189253c-0.353164,0 -0.87175,0.137096 -1.3352,0.327839c-0.98054,0.436625 -1.44548,0.955208 -2.50797,1.96406c-0.600553,0.545408 -4.69111,4.47205 -5.20969,5.04577c0.627376,0.681013 5.618,5.67164 6.59854,6.57171c2.0192,1.79865 2.29191,2.09818 3.43786,2.56312c0.625875,0.245882 1.30838,0.326352 1.4723,0.326352c0.163921,0 0.29952,0.0819589 0.29952,0.192232c0,0.108785 -0.108776,0.189255 -0.518572,0.189255l-1.22643,0c-0.682507,0 -1.11913,0 -1.66305,-0.053647c-1.25474,-0.108784 -1.8821,-0.627368 -2.91927,-1.41866c-1.08933,-0.844935 -6.13509,-6.16191 -7.28105,-7.52543l-0.108776,0l0,2.26359c0,2.23528 0,4.06373 0.108776,5.01745c0.0834545,0.682504 0.192244,1.11764 0.928396,1.22642c0.326342,0.0551367 0.707829,0.108785 0.926895,0.108785c0.135598,0 0.190743,0.110273 0.190743,0.192232c0,0.108785 -0.110277,0.189255 -0.381487,0.189255c-1.17278,0 -2.61826,-0.0804701 -2.80901,-0.0804701c-0.190743,0 -1.63771,0.0804701 -2.37236,0.0804701c-0.245889,0 -0.382988,-0.053647 -0.382988,-0.189255c0,-0.0819589 0.0551452,-0.192232 0.190743,-0.192232c0.219066,0 0.518586,-0.0536479 0.737652,-0.108785c0.463441,-0.108783 0.517085,-0.543918 0.627362,-1.22642c0.135612,-0.953719 0.135612,-2.78218 0.135612,-5.01745l0,-4.09205Z" style="fill:#e1dfde;fill-rule:nonzero;"/></svg>