<?xml version="1.0" standalone="no"?><!DOCTYPE svg PUBLIC "-//W3C//DTD SVG 1.1//EN" "http://www.w3.org/Graphics/SVG/1.1/DTD/svg11.dtd"><svg width="100%" height="100%" viewBox="0 0 259 148" version="1.1" xmlns="http://www.w3.org/2000/svg" xmlns:xlink="http://www.w3.org/1999/xlink" xml:space="preserve" style="fill-rule:evenodd;clip-rule:evenodd;stroke-linejoin:round;stroke-miterlimit:1.41421;"><rect x="25.0369" y="43.3882" width="60.7222" height="62.0082" style="fill:#fff;"/><path d="M54.0309,77.7075l24.3369,0l0,21.7247l-24.3369,0c0,0 8.83556,-10.4873 0,-21.7247Z" style="fill:#747372;fill-rule:nonzero;"/><path d="M32.0433,98.8193l6.2131,0c4.57038,0 7.79812,-0.750188 9.6768,-2.24928c1.88765,-1.49653 2.82892,-3.99844 2.82892,-7.49291c0,-3.7689 -0.914335,-6.42469 -2.75069,-7.97252c-1.83892,-1.55168 -5.08975,-2.32238 -9.75502,-2.32238l-6.2131,0l0,20.0371l-1e-05,-1e-05Z" style="fill:#269a8b;fill-rule:nonzero;"/><path d="M32.0433,70.4275l6.2131,0c4.57038,0 7.79812,-0.747623 9.6768,-2.24544c1.88765,-1.49781 2.82892,-4.00101 2.82892,-7.49547c0,-3.76762 -0.914335,-6.4247 -2.75069,-7.97253c-1.83892,-1.55167 -5.08975,-2.32366 -9.75502,-2.32366l-6.2131,0l0,20.0371l-1e-05,0Z" style="fill:#269a8b;fill-rule:nonzero;"/><path d="M54.0309,49.3158l24.3369,0l0,21.7273l-24.3369,0c0,0 8.83556,-10.486 0,-21.7273l0,-7.10543e-15Z" style="fill:#cbc8c7;fill-rule:nonzero;"/><path d="M18.6502,37.0819l0,74.5855l73.1107,0l0,-3.30468l0,-71.2808l-73.1107,0l3.55271e-15,-2e-05ZM25.2557,43.6887l59.8997,0l0,61.3706l-59.8997,0l0,-61.3706l3.55271e-15,-7.10543e-15Z" style="fill:#cbc8c7;fill-rule:nonzero;"/><path d="M105.473,45.7302l9.57164,0c1.11053,0 2.23005,0.0795125 3.35341,0.23596c1.12335,0.157733 2.13259,0.471915 3.02768,0.942544c0.893815,0.471915 1.61836,1.13106 2.1749,1.97614c0.555266,0.846366 0.833551,1.96973 0.833551,3.37136c0,1.45037 -0.403955,2.65323 -1.21441,3.60732c-0.810458,0.955365 -1.87996,1.63759 -3.2085,2.04923l0,0.0718166c0.84636,0.121825 1.61323,0.3565 2.30186,0.706584c0.689918,0.351375 1.28109,0.798923 1.77737,1.34137c0.494991,0.543726 0.874572,1.1785 1.1426,1.90432c0.264173,0.724541 0.397533,1.4991 0.397533,2.31981c0,1.35419 -0.289814,2.48396 -0.869454,3.38931c-0.580908,0.906642 -1.32982,1.63887 -2.248,2.19414c-0.919456,0.556546 -1.95177,0.955365 -3.0995,1.19646c-1.14901,0.241085 -2.29032,0.361625 -3.4265,0.361625l-10.5142,0l0,-25.668l2e-05,1.04e-05ZM111.129,55.9905l4.09719,0c0.436007,0 0.863032,-0.0474492 1.2875,-0.144913c0.423186,-0.0961781 0.802768,-0.253906 1.1426,-0.471909c0.337269,-0.216724 0.609132,-0.506543 0.8156,-0.869454c0.203897,-0.36291 0.307765,-0.797637 0.307765,-1.30545c0,-0.530905 -0.115409,-0.972042 -0.343679,-1.32341c-0.23083,-0.35009 -0.527054,-0.621952 -0.888685,-0.815588c-0.36291,-0.193642 -0.773276,-0.332138 -1.23364,-0.416776c-0.459088,-0.0846372 -0.906636,-0.126956 -1.34136,-0.126956l-3.84328,0l0,5.47446l-1.1e-05,-4e-06ZM111.129,66.6137l5.07692,0c0.434727,0 0.874584,-0.0487289 1.32341,-0.144907c0.446268,-0.0961781 0.851502,-0.266732 1.21312,-0.507823c0.362922,-0.241085 0.659146,-0.555266 0.888696,-0.942544c0.229538,-0.387278 0.344947,-0.857907 0.344947,-1.41317c0,-0.605281 -0.151311,-1.09387 -0.453958,-1.4696c-0.301355,-0.374451 -0.682216,-0.657861 -1.1413,-0.851497c-0.4591,-0.193636 -0.955371,-0.325722 -1.48628,-0.398819c-0.532185,-0.0730963 -1.02719,-0.109005 -1.48756,-0.109005l-4.27801,0l0,5.83737l1.5e-05,-5e-06Z" style="fill:#fff;fill-rule:nonzero;"/><path d="M130.659,45.7302l9.93328,0c1.30674,0 2.54422,0.126956 3.7176,0.380867c1.17209,0.253912 2.19798,0.677092 3.08154,1.26955c0.882274,0.592454 1.58245,1.39009 2.10182,2.39291c0.520644,1.00281 0.779686,2.25313 0.779686,3.75222c0,1.812 -0.470629,3.35341 -1.41318,4.62296c-0.94255,1.26827 -2.31981,2.07231 -4.1331,2.41086l6.52601,10.8386l-6.77991,0l-5.36546,-10.259l-2.79302,0l0,10.259l-5.65526,0l0,-25.668l-6e-06,3.3e-05ZM136.314,56.3534l3.33546,0c0.509103,0 1.04642,-0.0179512 1.61451,-0.0551451c0.566819,-0.0359024 1.08105,-0.143621 1.54142,-0.325722c0.457809,-0.180815 0.83867,-0.465499 1.14132,-0.851497c0.301355,-0.385992 0.452678,-0.931003 0.452678,-1.63246c0,-0.65273 -0.133372,-1.17081 -0.398824,-1.55809c-0.265452,-0.387278 -0.604001,-0.682222 -1.01563,-0.888685c-0.410365,-0.205177 -0.880995,-0.344959 -1.41318,-0.41677c-0.532185,-0.0718166 -1.05155,-0.109005 -1.55937,-0.109005l-3.69837,0l0,5.83737l-1.4e-05,4.1e-06Z" style="fill:#fff;fill-rule:nonzero;"/><path d="M153.906,58.5642c0,-2.05308 0.343679,-3.91509 1.0336,-5.58345c0.688627,-1.66709 1.64913,-3.08668 2.88149,-4.25877c1.23236,-1.17337 2.69555,-2.07232 4.387,-2.70196c1.69145,-0.628363 3.54064,-0.942544 5.54756,-0.942544c2.00563,0 3.85353,0.314181 5.54627,0.942544c1.69145,0.629642 3.15465,1.52859 4.38701,2.70196c1.23236,1.17209 2.19285,2.59168 2.88277,4.25877c0.688638,1.66836 1.03232,3.53038 1.03232,5.58345c0,2.05565 -0.343679,3.91637 -1.03232,5.58346c-0.689918,1.66837 -1.65041,3.08796 -2.88277,4.26005c-1.23236,1.17209 -2.69556,2.0736 -4.38701,2.70196c-1.69273,0.628369 -3.54064,0.941264 -5.54627,0.941264c-2.00692,0 -3.8561,-0.312896 -5.54756,-0.941264c-1.69145,-0.628363 -3.15463,-1.52987 -4.387,-2.70196c-1.23236,-1.17209 -2.19286,-2.59168 -2.88149,-4.26005c-0.689918,-1.66708 -1.0336,-3.52781 -1.0336,-5.58346ZM159.779,58.5642c0,1.20928 0.187226,2.31469 0.561677,3.3175c0.374463,1.00282 0.911778,1.87355 1.61324,2.61091c0.701459,0.737367 1.54013,1.31187 2.51986,1.72223c0.978452,0.411645 2.07231,0.616822 3.2816,0.616822c1.20671,0 2.30186,-0.205177 3.28032,-0.616822c0.979732,-0.410359 1.8184,-0.984863 2.51986,-1.72223c0.700179,-0.737361 1.23877,-1.60809 1.61323,-2.61091c0.374463,-1.00281 0.561688,-2.10822 0.561688,-3.3175c0,-1.18363 -0.187226,-2.28391 -0.561688,-3.29827c-0.374451,-1.01564 -0.913046,-1.8915 -1.61323,-2.62887c-0.701459,-0.737367 -1.54013,-1.31058 -2.51986,-1.72223c-0.978452,-0.410359 -2.07361,-0.616822 -3.28032,-0.616822c-1.20928,0 -2.30314,0.206462 -3.2816,0.616822c-0.979732,0.411645 -1.8184,0.984863 -2.51986,1.72223c-0.701459,0.737367 -1.23877,1.61323 -1.61324,2.62887c-0.374451,1.01436 -0.561677,2.11464 -0.561677,3.29827Z" style="fill:#fff;fill-rule:nonzero;"/><path d="M186.063,45.7302l5.65656,0l0,9.57164l10.9848,0l0,-9.57164l5.65528,0l0,25.668l-5.65528,0l0,-11.0925l-10.9848,0l0,11.0925l-5.65656,0l0,-25.668Z" style="fill:#fff;fill-rule:nonzero;"/><path d="M214.904,45.7302l7.68654,0l10.9117,17.8378l0.0730963,0l0,-17.8378l5.65528,0l0,25.668l-7.39545,0l-11.2028,-18.2713l-0.0730963,0l0,18.2713l-5.65528,0l0,-25.668l1e-05,0Z" style="fill:#fff;fill-rule:nonzero;"/><path d="M105.473,80.1581l5.65527,0l0,9.57036l10.9861,0l0,-9.57036l5.65526,0l0,25.668l-5.65526,0l0,-11.0938l-10.9861,0l0,11.0938l-5.65527,0l0,-25.668l-1.42109e-14,-1.42109e-14Z" style="fill:#fff;fill-rule:nonzero;"/><path d="M132.229,92.9921c0,-2.05436 0.344959,-3.91509 1.0336,-5.58346c0.688638,-1.66709 1.64914,-3.08668 2.88278,-4.26005c1.23235,-1.17209 2.69427,-2.07231 4.38572,-2.70068c1.69273,-0.628363 3.54064,-0.94255 5.54755,-0.94255c2.00564,0 3.85483,0.314187 5.54756,0.94255c1.69017,0.628363 3.15335,1.52859 4.38572,2.70068c1.23236,1.17337 2.19414,2.59296 2.88278,4.26005c0.688627,1.66837 1.03231,3.52909 1.03231,5.58346c0,2.05437 -0.343679,3.91509 -1.03231,5.58346c-0.688638,1.66709 -1.65042,3.08796 -2.88278,4.25877c-1.23236,1.17337 -2.69555,2.0736 -4.38572,2.70196c-1.69273,0.62708 -3.54192,0.942544 -5.54756,0.942544c-2.00691,0 -3.85481,-0.315464 -5.54755,-0.942544c-1.69145,-0.628366 -3.15337,-1.52859 -4.38572,-2.70196c-1.23364,-1.17081 -2.19414,-2.59168 -2.88278,-4.25877c-0.688638,-1.66837 -1.0336,-3.52909 -1.0336,-5.58346ZM138.102,92.9921c0,1.20928 0.187237,2.31469 0.561688,3.31622c0.374451,1.0041 0.913046,1.87483 1.61323,2.6122c0.701459,0.736082 1.54141,1.31059 2.51986,1.72095c0.979732,0.410359 2.07361,0.616822 3.2816,0.616822c1.208,0 2.30186,-0.206462 3.28032,-0.616822c0.979732,-0.410359 1.81969,-0.984866 2.51987,-1.72095c0.701459,-0.737364 1.23877,-1.6081 1.61451,-2.6122c0.373171,-1.00153 0.561677,-2.10694 0.561677,-3.31622c0,-1.18363 -0.188505,-2.28391 -0.561677,-3.29955c-0.375731,-1.01436 -0.913046,-1.89022 -1.61451,-2.62887c-0.700179,-0.736085 -1.54014,-1.31059 -2.51987,-1.72095c-0.978452,-0.411642 -2.07231,-0.616822 -3.28032,-0.616822c-1.20799,0 -2.30186,0.20518 -3.2816,0.616822c-0.978452,0.410359 -1.8184,0.984863 -2.51986,1.72095c-0.700179,0.738647 -1.23877,1.61451 -1.61323,2.62887c-0.374451,1.01564 -0.561688,2.11592 -0.561688,3.29955Z" style="fill:#fff;fill-rule:nonzero;"/><path d="M164.387,80.1581l8.556,0l5.90918,16.7504l0.0730963,0l5.94509,-16.7504l8.5201,0l0,25.668l-5.65528,0l0,-19.6857l-0.0730845,0l-6.74273,19.6857l-4.31391,0l-6.4901,-19.6857l-0.0730963,0l0,19.6857l-5.65526,0l0,-25.668l-5.5e-06,1.42109e-14Z" style="fill:#fff;fill-rule:nonzero;"/><path d="M200.104,80.1581l17.439,0l0,5.22055l-11.7824,0l0,4.78582l11.1297,0l0,5.21926l-11.1297,0l0,5.22183l12.4352,0l0,5.22055l-18.0917,0l0,-25.668l-0.0001,-1e-05Z" style="fill:#fff;fill-rule:nonzero;"/><path d="M236.663,86.429c-0.4591,-0.579634 -1.08104,-1.00795 -1.86714,-1.28622c-0.784805,-0.278276 -1.52859,-0.416773 -2.23006,-0.416773c-0.410354,0 -0.833528,0.0487289 -1.26825,0.144907c-0.434727,0.0961781 -0.846372,0.247498 -1.23364,0.452681c-0.386004,0.206462 -0.700179,0.478325 -0.941282,0.816871c-0.242347,0.338546 -0.362899,0.748908 -0.362899,1.23236c0,0.773273 0.289826,1.36573 0.870722,1.77609c0.579651,0.411642 1.31059,0.761732 2.19286,1.05155c0.881006,0.289817 1.83123,0.579631 2.84559,0.87073c1.01565,0.289817 1.96331,0.700176 2.84559,1.23236c0.882274,0.530902 1.61451,1.24518 2.19416,2.139c0.579628,0.893815 0.870722,2.09027 0.870722,3.58937c0,1.426 -0.266744,2.67118 -0.798917,3.73427c-0.532196,1.06309 -1.25032,1.94536 -2.15696,2.64554c-0.905356,0.701459 -1.9569,1.22082 -3.15335,1.55937c-1.19645,0.338546 -2.45959,0.50782 -3.78941,0.50782c-1.6671,0 -3.21363,-0.253912 -4.64092,-0.761732c-1.426,-0.50782 -2.75453,-1.32854 -3.98691,-2.46472l4.0241,-4.42419c0.579628,0.774552 1.31059,1.37214 2.19286,1.79532c0.882274,0.423183 1.79404,0.634776 2.73786,0.634776c0.457809,0 0.924587,-0.0538595 1.39651,-0.164144c0.469361,-0.107719 0.892535,-0.271863 1.26828,-0.488586c0.37316,-0.218003 0.675806,-0.494997 0.906624,-0.834825c0.228259,-0.337263 0.343691,-0.736082 0.343691,-1.19517c0,-0.773273 -0.294945,-1.38368 -0.887417,-1.83123c-0.59374,-0.447547 -1.33623,-0.828412 -2.23004,-1.14259c-0.895118,-0.312902 -1.86202,-0.628366 -2.90075,-0.941264c-1.04,-0.314181 -2.00692,-0.737364 -2.90072,-1.26955c-0.893827,-0.530902 -1.63759,-1.23364 -2.22877,-2.10309c-0.592449,-0.869448 -0.888685,-2.01846 -0.888685,-3.44446c0,-1.37727 0.271863,-2.58655 0.815588,-3.62528c0.543726,-1.03872 1.26955,-1.90946 2.1749,-2.61091c0.906647,-0.700173 1.95305,-1.22595 3.13668,-1.57604c1.18363,-0.350084 2.40445,-0.525774 3.66118,-0.525774c1.45037,0 2.852,0.205183 4.20619,0.615542c1.3529,0.411645 2.57373,1.10028 3.66118,2.06719l-3.87917,4.24081l3e-06,-9e-06Z" style="fill:#fff;fill-rule:nonzero;"/></svg>