<?xml version="1.0" standalone="no"?><!DOCTYPE svg PUBLIC "-//W3C//DTD SVG 1.1//EN" "http://www.w3.org/Graphics/SVG/1.1/DTD/svg11.dtd"><svg width="100%" height="100%" viewBox="0 0 46 107" version="1.1" xmlns="http://www.w3.org/2000/svg" xmlns:xlink="http://www.w3.org/1999/xlink" xml:space="preserve" style="fill-rule:evenodd;clip-rule:evenodd;stroke-linejoin:round;stroke-miterlimit:1.41421;"><path d="M24.1,88.2c1.4,0 8.3,-3 8.5,-3c0,0.2 -2.1,6.2 -2.8,6.9c-1.6,2.5 -2.3,5 -3.4,7.8c0,0.9 -2.8,7.3 -3.2,7.3c-0.7,-1.4 -1.1,-2.5 -1.6,-3.4c-0.7,-1.8 -1.4,-3.2 -1.4,-3.9c-0.2,-1.6 -1.6,-6.6 -3.2,-7.8c-0.4,-0.5 -3.2,-7.4 -3.2,-7.4c0.7,-0.7 1.8,1.4 2.8,1.4c1.6,-0.7 2.5,1.1 4.1,1.8" style="fill:#f2f1ec;fill-rule:nonzero;"/><g><rect x="21.8" y="4.1" width="2.8" height="53.5" style="fill:#f2f1ec;"/><g><path d="M24.2,4.1l0.1,0.2l-0.1,-0.2Z" style="fill:#f4f3ee;fill-rule:nonzero;"/><path d="M24.3,5c0.1,0 0.1,0 0,0l-0.1,-0.6c-0.1,0.3 0.2,0.4 0.1,0.6Z" style="fill:#f4f3ee;fill-rule:nonzero;"/><path d="M24.3,5.1c0,0.2 0,0.3 0.1,0.3c-0.1,7.10543e-15 0,-0.3 -0.1,-0.3Z" style="fill:#f4f3ee;fill-rule:nonzero;"/><path d="M24.6,28.1c0,-0.8 0.1,-1.8 0,-2.8l0,0.1c0,-2.4 -0.1,-4.6 -0.1,-6.9l0,0.1c0,-0.1 -0.1,-0.2 -0.1,-0.4l0,0.1c0.1,-0.5 -0.1,-1.5 0,-1.8c0,-0.1 0,-0.2 -0.1,-0.1c0,-1.8 0,-3.8 -0.1,-5.7c0,-0.1 0,-0.1 0.1,-0.1c-0.1,-1.6 -0.1,-3.3 -0.1,-4.9c0,-0.1 0,0.2 -0.1,0c0,0.5 0.1,1 0,1.4l0,-0.1c0,0.3 0.1,0.1 0,0.4c0,0.1 0,0 -0.1,0c0,0.7 0,1.5 0.1,2.2c-0.1,0.2 0,0.8 -0.1,1.1c0,0.2 0,0.4 0.1,0.5c0,2.6 0,5.2 0,7.9c0.2,1.2 0,2.7 0,4.2c0,0.5 0.1,1.2 0,1.8l0.1,0.5c-0.1,3.5 0,7 -0.1,10.5c0,4 -0.2,7.5 0.1,11.4l0,-0.1c0,1.1 0,2.1 0,3.2c0.1,1.2 0.1,2.4 0.1,3.5l0,3.5l-2.6,0c0,-2.5 0,-5.3 0,-7.9c-0.1,-2.6 0.1,-5.1 0.1,-7.7c0.1,-2.7 -0.2,-5.5 -0.1,-8.2c0.2,-1.7 -0.2,-3.9 0,-5.4c0.2,-3.2 0.1,-6.3 -0.1,-9.5c0.1,-3 -0.1,-5.9 0,-8.8c-0.1,-1.4 0.1,-2.9 0.1,-4.4l0,0.1c0.1,-0.5 -0.2,-1.3 0,-1.5l0,0.1l0,-0.1c0.2,0 0.5,-0.2 0.7,-0.1c0.3,0 0,0 0.3,0.1c0.1,0 0,-0.1 0.2,-0.1c0,0.2 0.9,0 0.9,0.2c-0.2,0 0.3,0.1 -0.1,0.1c0.1,0 0.7,0 0.7,-0.1c0,-0.1 0.3,-0.2 -0.1,-0.2l-0.1,0.1c-0.1,-0.1 -0.1,0 -0.1,-0.1c-0.5,0 -0.5,-0.1 -0.9,-0.1c-0.2,0.1 -0.5,0 -0.7,0l-0.1,0c-0.1,-0.1 -0.5,0.2 -0.4,0c-0.2,0 -0.4,0 -0.7,0c0,0.9 0,1.9 0,2.9c0.1,0.1 0,0.8 0.1,0.6c-0.1,0.3 -0.1,1 -0.1,1.3l0,-0.1c-0.1,0.6 0.1,0.7 0,1.2c0.1,0.1 0,1 0.1,1.3c0,0.1 -0.1,0.1 -0.1,0.1c0,1 0,2 -0.1,2.8c0.1,0.7 0,1.7 0.1,2.3c0,0.5 -0.1,1.3 0,2l0,-0.1c0,0.8 0,1.7 0.1,2.3c-0.1,0.2 -0.1,0.6 -0.2,0.9c0.1,0.5 0,1.6 0.1,2.3c-0.1,0.1 0,0.6 -0.1,0.7c0.2,2.2 0.1,4.9 0,7.3c0.1,0.3 0.2,0.7 0.2,1c0,0.4 -0.1,0.8 -0.1,1.3l0,-0.1c0,0.4 -0.1,0.8 0,1.3l0,0.3c0,0 -0.1,0 -0.1,-0.2c0,3.7 0.1,7.5 0.1,11.3l0,-0.1l0.1,0.7l0,-0.1c-0.1,0.9 0,1.9 0,2.8c0,0 0,-0.1 -0.1,0c0.1,0.7 -0.1,1.1 0.1,1.4c0,0 0,0.1 -0.1,0c0.1,1.9 0.1,3.8 0,5.7l0,0.9c1.2,0 1.8,0 3,0l0,-0.8l0,-0.7c-0.1,-2.1 0,-4.4 0,-6.6c0,-0.9 0,-1.5 0,-2.4c-0.2,-1.5 0.1,-3.2 0,-4.9l0.1,0.1c-0.1,-0.2 0,-1 -0.1,-0.9l0,-0.3c-0.2,-1.1 0.1,-2 0,-3.3l0,0.1c0,-0.4 0,-0.8 0,-1l0,0.1c0.1,-1.1 0,-2.4 0,-3.5l0.1,0.1c-0.1,-0.6 0,-1.6 0,-2.4l0,-0.4l0.1,0c0.2,-1.4 0.1,-2.3 0.1,-3.2Z" style="fill:#f4f3ee;fill-rule:nonzero;"/></g></g><g><circle cx="23.2" cy="3.2" r="3.1" style="fill:#f2f1ec;"/><g><path d="M26.5,3.1c-0.1,0 -0.1,0 0,0l0.1,0.1c0.1,-0.1 -0.2,-0.1 -0.1,-0.1Z" style="fill:#f4f3ee;fill-rule:nonzero;"/><path d="M26.5,3.1c0,-0.1 -0.1,-0.1 0,0c0,-0.1 -0.1,0 0,0Z" style="fill:#f4f3ee;fill-rule:nonzero;"/><path d="M23.9,0.3c0.1,0 0.3,0.1 0.4,0.2c0.4,0.2 0.7,0.3 1,0.5l0.1,0c0,0.1 0.2,0.1 0.2,0.2l0.1,0c0.2,0.2 0.4,0.5 0.6,0.8l-0.1,0c0.3,0.2 0.3,0.6 0.3,0.9l0.1,0c0,-0.1 -0.1,-0.2 -0.1,-0.3c0,-0.1 -0.1,0 -0.1,-0.1c0,-0.1 0,-0.3 -0.2,-0.4c0.1,-0.1 0,-0.1 0,-0.2c0,0 0,-0.1 -0.1,-0.1c-0.1,-0.5 -0.5,-0.8 -0.9,-1.1c-0.3,0 -0.4,-0.3 -0.6,-0.4c-0.1,0 -0.2,0 -0.3,-0.1l-0.1,0c-0.5,-0.4 -1.2,-0.3 -1.8,-0.2c-0.7,0.1 -1.4,0.4 -1.7,1.1c-0.1,0.2 -0.3,0.3 -0.3,0.5c-0.1,0.5 -0.4,0.9 -0.3,1.4c-0.1,0.5 0,1.2 0.3,1.6c0.2,0.4 0.4,0.8 0.8,1.1c0.3,0.4 0.9,0.4 1.3,0.6c0.3,0.2 0.7,-0.1 0.9,0.1c0.6,0.2 1.1,-0.2 1.5,-0.6c0.5,-0.2 0.6,-0.7 1,-1.1c0,-0.2 0.3,-0.4 0.4,-0.7c0.1,-0.1 -0.1,-0.2 0.1,-0.3c0.1,0 -0.2,-0.1 -0.1,-0.2c0,-0.1 0.1,0 0.1,0l-0.1,0c0.2,0 0,-0.1 0.2,-0.1c0,0 0.1,-0.1 0.1,0c0,0 0,-0.1 -0.1,-0.1c-0.1,0 -0.2,0 -0.2,0l0.1,0l-0.1,0c0,0.1 -0.1,0.1 -0.2,0.1c0.1,0 0,0.1 0,0.1c-0.1,0 0.1,0.1 0,0.1c0,0.2 0,0.3 -0.1,0.5c0,0 0,0.1 0.1,0.1c-0.1,0 -0.2,0.1 -0.2,0.2c-0.2,0 0.1,0.2 -0.1,0.1c0.1,0.1 -0.1,0.1 0,0.2l-0.1,0c-0.1,0.1 -0.2,0.2 -0.3,0.3c0,0.2 -0.2,0.2 -0.2,0.3c-0.1,0 -0.2,0.1 -0.3,0.2c-0.1,0.1 -0.2,0.2 -0.2,0.3c-0.1,-0.1 -0.1,-0.1 -0.2,-0.1c0,0.1 -0.2,0.1 -0.3,0.2c0,-0.1 -0.1,0.1 -0.1,0c-0.3,0.3 -0.8,0.3 -1.1,0.1c-0.1,0 -0.1,0.2 -0.2,0.2c-0.1,0 -0.1,-0.1 -0.2,-0.1c-0.1,0 -0.1,-0.1 -0.2,-0.1l-0.1,0l0,-0.1c-0.5,-0.2 -1.1,-0.4 -1.5,-1l-0.1,-0.1c0,-0.2 -0.2,-0.2 -0.2,-0.4l0.1,0c-0.1,-0.1 0,-0.2 -0.2,-0.2l0.1,0c-0.2,-0.3 -0.2,-0.6 -0.2,-0.9c-0.2,-0.3 0,-0.5 -0.1,-0.8c0,-0.4 0.2,-0.7 0.4,-1c0.1,-0.1 0.1,-0.2 0.2,-0.3c0.1,-0.3 0.5,-0.3 0.6,-0.5l0,0.1c0,-0.1 0.2,-0.1 0.1,-0.2l0.1,0c0.1,-0.3 0.3,-0.1 0.5,-0.3c0,0 0.1,-0.1 0.2,-0.1c0.2,0.1 0.4,-0.1 0.6,-0.1l0,0.1c0.1,-0.1 0.3,0 0.4,0l0.1,0l0,0.1c0.2,-7.10543e-15 0.3,-7.10543e-15 0.5,-7.10543e-15Z" style="fill:#f4f3ee;fill-rule:nonzero;"/></g></g></svg>