<?xml version="1.0" standalone="no"?><!DOCTYPE svg PUBLIC "-//W3C//DTD SVG 1.1//EN" "http://www.w3.org/Graphics/SVG/1.1/DTD/svg11.dtd"><svg width="100%" height="100%" viewBox="0 0 108 112" version="1.1" xmlns="http://www.w3.org/2000/svg" xmlns:xlink="http://www.w3.org/1999/xlink" xml:space="preserve" style="fill-rule:evenodd;clip-rule:evenodd;stroke-linejoin:round;stroke-miterlimit:1.41421;"><g id="Layer 1"><path d="M5.9278,39.3062c0.125,-0.095 0.268,0.107 0.424,0.128c0.251,0.033 0.432,0.14 0.584,-0.037c0.205,-0.242 -0.132,-0.84 0.221,-1.105c0.169,-0.13 0.543,-0.121 0.71,-0.459l0.223,-0.456c0.279,-0.162 0.606,0.087 0.843,-0.395l0.736,-1.499c0.282,-0.571 -0.234,-1.137 -0.236,-1.655c-0.003,-0.359 0.421,0.142 0.682,0.093c0.184,-0.035 0.259,-0.199 0.354,-0.392l0.385,-0.781c0.109,-0.511 -0.467,-0.952 0.122,-1.397c0.152,-0.118 0.272,-0.192 0.452,-0.264c0.177,-0.071 0.527,-0.164 0.745,-0.199c0.349,-0.058 0.686,0.27 0.941,-0.103c0.411,-0.601 0.141,-0.992 0.022,-1.527c-0.038,-0.175 0,-0.132 0.131,-0.097c0.341,0.089 0.718,0.08 0.419,-0.361c-0.181,-0.267 -0.77,-0.836 -0.461,-1.199c0.511,-0.606 1.348,-1.031 0.992,-1.856c-0.069,-0.166 -0.612,-0.998 -0.199,-0.908c1.55,0.332 1.215,-1.971 1.442,-2.771l0.482,-0.977c0.159,-0.251 0.516,-0.375 0.841,-0.395c0.181,-0.011 0.329,0.087 0.489,-0.003c0.193,-0.114 0.073,-0.736 0.123,-0.91c0.178,-0.627 0.358,-1.207 0.768,-1.726c0.203,-0.259 0.365,-0.375 0.678,-0.394c0.123,-0.008 0.304,0.084 0.425,0.127c0.031,0.011 0.367,0.215 0.389,0.193c0.09,-0.092 0.061,-0.289 0.127,-0.424c0.11,-0.221 0.433,-0.039 0.617,-0.102c0.203,-0.182 0.525,-0.44 0.678,-0.555c0.169,-0.129 0.133,-0.549 0.256,-0.521c0.234,0.05 0.504,0.187 0.715,0.027c0.134,-0.101 0.181,-0.445 0.191,-0.552c0.037,-0.324 0.113,-1.503 0.477,-1.627c0.252,-0.087 0.58,-0.115 0.811,-0.33c0.502,-0.473 0.714,-1.546 0.829,-2.181c0.037,-0.204 0.015,-0.397 0.225,-0.294c0.326,0.16 0.597,0.319 0.687,0.58c0.371,-0.755 0.854,-1.574 1.25,-2.379c0.253,-0.515 0.93,0.577 1.137,0.155l1.25,-2.541c0.207,-0.071 0.465,0.505 0.524,0.581c0.041,0.053 0.025,0.14 0.066,0.195c0.037,0.046 0.002,-0.104 -0.002,-0.163c-0.008,-0.158 -0.039,-0.265 -0.035,-0.422c0.015,-0.514 0.107,-1.045 0.283,-1.559c0.139,-0.412 0.465,-1.13 0.903,-1.013c0.253,0.066 0.447,0.268 0.619,0.385c0.06,0.041 0.134,0.133 0.196,0.096c0.073,-0.043 0.009,-0.147 0.03,-0.227c0.168,-0.63 0.566,-0.939 1.1,-0.754c0.262,0.09 0.448,0.12 0.651,0.32c0.024,0.024 0.061,0.384 0.165,0.325c0.441,-0.259 0.169,-0.785 0.774,-0.753c0.376,0.02 0.739,0.252 0.881,0.515c0.17,0.315 0.141,0.662 0.521,0.418c0.404,-0.261 0.765,-0.515 1.132,-0.82c0.171,-0.143 0.383,-0.375 0.614,-0.426c0.193,-0.043 0.576,0.079 0.681,-0.069l0.866,-1.758c0.152,-0.261 0.486,-0.933 0.838,-0.883c0.232,0.03 0.626,0.306 0.75,0.449c0.179,0.208 0.265,0.574 0.261,0.128c-0.002,-0.091 -0.022,-0.504 0.095,-0.52c0.094,-0.013 0.381,0.189 0.455,0.225c0.546,0.268 0.851,0.55 1.11,1.032c0.031,0.057 0.092,0.317 0.134,0.389c0.12,0.209 0.5,-0.061 0.518,-0.068c0.612,-0.306 1.206,-0.539 1.747,-0.922c0.61,-0.431 1.114,-0.999 1.746,-1.407c0.256,-0.167 0.471,-0.297 0.776,-0.427c0.065,-0.029 0.064,-0.13 0.129,-0.098c0.206,0.101 0.066,0.409 0.198,0.584c0.09,0.116 0.26,-0.034 0.262,-0.035c0.182,-0.257 0.167,-0.413 0.483,-0.328c0.368,0.097 0.334,0.501 0.395,0.679c0.091,0.267 0.558,0.437 0.913,0.612c0.187,0.091 0.409,0.172 0.587,0.288c0.246,0.161 0.568,0.857 0.882,0.838c0.156,-0.011 0.24,-0.082 0.387,-0.132c0.711,-0.243 1.572,-0.082 2.337,-0.145c0.336,-0.029 0.823,-0.297 1.203,0.025c0.191,0.16 0.452,0.384 0.782,0.546c0.258,0.078 0.532,0.117 0.782,0.223c0.182,0.077 0.743,0.441 0.847,0.579c0.33,0.433 1.151,0.498 1.404,0.933c0.11,0.191 0.139,0.11 0.324,0.16c0.094,0.024 0.297,0.2 0.391,0.192c0.232,-0.02 0.676,-0.278 1.006,-0.234c0.167,0.022 0.422,0.047 0.585,0.126c0.341,0.168 0.263,0.422 0.393,0.68c0.227,0.445 0.397,0.685 0.914,0.773c0.478,0.079 1.013,-0.23 1.593,0.055c0.432,0.213 0.64,0.585 0.947,0.87c0.123,0.115 0.161,0.287 0.326,0.322c0.539,0.116 1.306,-1.617 1.716,-0.854c0.155,0.287 0.342,1.303 0.627,1.521c0.281,0.217 0.531,0.011 0.813,-0.005c0.516,-0.032 0.755,0.299 1.043,0.675c0.158,0.207 0.025,0.931 0.46,0.874c0.352,-0.047 0.51,-0.153 1.006,0.091c0.597,0.293 0.95,0.993 1.276,1.356c0.31,0.345 0.465,-0.556 0.613,-0.589c0.329,-0.074 1.17,0.478 1.368,0.673c0.038,0.036 -0.022,0.114 0.001,0.162c0.031,0.066 0.172,0.027 0.195,0.097c0.024,0.065 0.068,0.479 0.103,0.616c0.007,0.031 -0.025,0.443 0.132,0.389l0.192,-0.392c0.189,-0.204 0.45,-0.409 0.677,-0.555c0.778,-0.502 1.451,0.753 1.6,1.191c0.541,-0.412 1.214,-0.474 1.95,0.15c0.117,0.099 0.158,0.367 0.261,0.29c0.147,-0.113 0.342,-0.486 0.548,-0.459c0.311,0.042 0.631,0.231 0.946,0.384c0.131,0.066 0.29,0.063 0.422,0.127c0.125,0.062 0.701,0.466 0.685,0.58c-0.024,0.184 -0.06,0.487 0.328,0.485c0.211,-0.002 0.357,-0.23 0.522,0.094c0.129,0.256 0.1,0.453 0.457,0.55c0.276,0.072 0.511,-0.096 0.811,-0.006c0.443,0.133 0.333,0.487 0.719,0.678c0.524,0.258 1.003,0.088 1.594,0.379c0.232,0.115 0.234,0.305 0.425,0.452c0.666,0.509 2.027,0.532 2.282,1.283c0.061,-0.02 0.835,0.198 1.009,0.254c0.079,0.025 0.198,0.073 0.259,0.128c0.289,0.261 0.141,0.556 0.526,0.744c0.363,0.18 0.42,-0.037 0.778,0.059c0.578,0.154 1.273,0.526 1.177,1.065c-0.008,0.041 -0.097,0.409 -0.063,0.455c0.173,0.226 0.522,0.136 0.75,0.288c0.451,0.295 0.915,0.873 1.113,1.356c0.176,0.433 0.124,0.86 0.43,1.263c0.107,0.142 0.362,0.122 0.489,0.159c0.506,0.152 1.24,0.535 1.595,0.867c0.433,0.402 0.923,1.193 1.213,1.648c0.559,0.882 1.155,1.416 1.961,2.097c0.163,0.139 0.167,0.568 0.329,0.649c0.05,0.085 0.19,0.1 0.23,0.193c0.254,0.593 0.081,1.39 0.725,1.814c0.424,0.277 0.701,-0.192 1.01,0.415c0.064,0.127 -0.085,0.29 -0.063,0.455c0.017,0.128 0.252,0.385 0.329,0.485c0.508,0.669 0.88,1.414 1.539,1.971c0.319,0.271 0.55,0.488 0.623,0.873c0.011,0.068 0.05,0.458 0.132,0.55c0.586,0.65 1.332,1.177 2.089,1.676c0.279,0.182 0.418,0.271 0.525,0.581c0.025,0.079 -0.104,0.177 -0.064,0.293c0.299,0.879 1.089,1.532 0.925,2.559c-0.063,0.401 -0.194,0.597 -0.48,0.815c0.777,0.383 0.475,1.333 0.142,2.012c-0.187,0.381 -0.737,0.394 -0.581,0.686c0.041,0.076 0.095,0.147 0.131,0.226c0.229,0.498 0.573,0.931 0.726,1.489c0.188,0.695 0.198,1.497 0.046,2.208c-0.042,0.194 -0.26,0.762 -0.483,0.653c0.825,0.406 0.828,1.608 0.471,2.335c-0.177,0.357 -0.467,0.211 -0.714,0.296c0.068,0.202 0.556,0.509 0.524,0.744c-0.133,0.981 -0.88,1.024 -1.619,0.66c0.207,0.204 0.54,0.566 0.623,0.873c0.019,0.067 0.281,0.786 -0.061,0.617c0.331,0.279 0.438,0.577 0.688,0.905c0.094,0.124 0.309,0.108 0.36,0.257l-0.129,0.261c-0.074,0.065 -0.182,0.113 -0.291,0.099c-0.131,-0.018 -0.301,-0.214 -0.36,-0.095c-0.068,0.138 0.362,0.25 0.425,0.289c0.393,0.238 0.755,0.599 0.591,1.101c-0.218,0.668 -1.109,0.915 -1.582,1.244c-0.134,0.091 -0.26,0.196 -0.388,0.295c-0.319,0.243 0.295,0.437 0.491,0.645c0.309,0.329 0.034,0.152 0.036,0.423c0.001,0.228 0.249,0.44 0.425,0.613c0.34,0.337 0.757,0.713 0.983,1.131c0.074,0.139 0.279,0.182 0.131,0.39c-0.187,0.258 -0.243,0.092 -0.549,0.133c-0.05,0.005 -0.975,0.223 -0.942,0.266c0.243,0.317 0.934,0.482 0.883,1.001c-0.067,0.684 -0.649,1.055 -1.261,0.755c0.525,0.258 1.098,1.386 0.826,1.942c-0.142,0.284 -0.226,0.619 -0.551,0.459c0.821,0.403 1.816,1.963 0.733,2.787c-0.225,0.172 -0.585,0.361 -0.874,0.461c0.507,0.665 0.682,1.21 0.858,2.04c0.09,0.422 0.202,0.36 0.168,0.812c-0.054,0.685 -0.476,0.655 -1.004,0.395c0.188,0.553 -0.377,1.559 -0.863,2.084c-0.383,0.409 -0.38,0.066 -0.844,0.07c-0.074,0 0.074,0.06 0.097,0.129c0.043,0.124 0.045,0.226 0.069,0.357c0.166,0.971 -0.176,1.748 -0.535,2.731l-0.226,0.457c-0.21,0.106 -0.773,-0.302 -1.008,-0.416c0.585,0.288 0.226,1.208 -0.087,1.656c-0.15,0.215 -1.302,2.472 -1.068,2.588c-0.28,0.061 -1.34,0.201 -1.687,0.465c-1.049,0.799 -0.695,3.343 -0.621,4.226c0.03,0.347 -1.953,-0.839 -1.365,-0.186c0.1,0.111 0.664,0.468 0.46,0.711c-0.128,0.15 -0.549,0.112 -0.715,0.135c-0.357,0.046 -0.867,1.333 -1.026,1.76c-0.069,0.181 -0.414,2.092 -0.571,2.147c-0.279,0.094 -0.88,-0.836 -0.389,0.133c0.103,0.203 0.324,0.327 0.198,0.582c-0.116,0.238 -0.264,-0.019 -0.518,0.069c-0.351,0.118 -0.222,0.863 -0.189,1.04c0.141,0.742 -0.2,1.049 -0.705,1.434c-0.27,0.203 -0.231,0.798 -0.317,0.976c-0.212,0.43 -0.732,-0.036 -1.042,-0.188c0.331,0.967 -0.782,-0.057 -1.036,0.461c-0.382,0.777 -0.653,2.268 -1.676,1.764c0.09,0.264 0.155,1.04 -0.319,0.977c-0.144,-0.02 -0.517,-0.366 -0.652,-0.321c-0.131,0.044 -0.303,1.446 -0.571,1.823c-0.488,0.676 -0.991,0.04 -1.295,0.657c-0.929,1.888 -1.12,2.157 -2.78,2.031c-0.454,-0.034 -0.319,0.319 -0.58,0.849c-0.27,0.551 -0.788,0.097 -1.234,-0.122c0.478,0.627 -0.237,0.78 -0.71,0.783c-0.482,0.002 -0.172,1.635 -0.831,2.019c-0.365,0.213 -0.387,-0.596 -0.908,-0.124l-0.258,0.521c-0.291,0.168 -0.946,-0.303 -1.236,-0.446c-0.949,-0.465 -0.517,0.39 -1.099,0.915c-0.31,0.279 -0.801,-0.466 -1.171,-0.251c-0.171,0.1 -0.43,0.935 -0.513,1.043c-0.123,0.159 -0.526,-0.083 -0.78,-0.062c-0.828,0.07 -1.326,0.218 -2.073,0.599c-0.109,-0.01 -0.172,-0.173 -0.281,-0.175c-0.592,-0.012 -1.067,0.817 -1.063,1.338c0.003,0.485 -0.146,-0.114 -0.485,0.003c-0.257,0.086 -0.483,0.57 -0.614,0.751c-0.175,0.24 -0.639,1.527 -1.129,0.982c-0.115,-0.127 -0.078,-0.281 -0.231,-0.356c-0.127,-0.062 -0.263,0.472 -0.454,0.263c-0.123,-0.14 -0.272,-0.394 -0.457,-0.55c-0.077,-0.066 -0.666,0.393 -0.842,0.395c-0.313,0.001 -0.555,-0.307 -0.879,-0.351c-0.242,-0.034 -0.328,0.469 -0.483,0.653c-0.085,0.099 -0.683,-0.453 -0.848,-0.579c-0.249,-0.192 -0.539,0.273 -0.744,0.361c-0.216,0.093 -0.317,0.006 -0.52,-0.093c-0.197,-0.097 -0.62,-0.508 -0.815,-0.483c-0.031,0.004 -0.128,0.143 -0.162,0.163c-0.273,0.179 -0.552,0.382 -0.905,0.364c-0.593,-0.031 -0.58,-0.882 -1.078,-0.772c-0.555,0.121 -0.847,0.11 -1.269,-0.382c-0.177,-0.207 -0.389,-0.513 -0.524,-0.743c-0.035,-0.06 -0.022,-0.228 -0.133,-0.227c-0.131,0.001 -0.132,0.154 -0.257,0.197c-0.324,0.109 -0.634,0.356 -0.973,0.331c-0.367,-0.028 -0.427,-0.566 -0.588,-0.776c-0.067,-0.087 -0.126,-0.228 -0.23,-0.192c-0.192,0.064 -0.195,0.326 -0.32,0.488c-0.112,0.145 -0.319,0.217 -0.453,0.262c-0.456,0.155 -0.716,-0.734 -0.917,-1.098c-0.565,-1.024 -0.494,0.675 -0.966,0.981c-0.556,0.356 -1.28,-1.053 -1.506,-1.386l0.065,-0.132c-0.095,-0.163 -0.162,0.002 -0.066,-0.193l-0.224,0.456c-0.101,0.12 -0.187,-0.043 -0.26,-0.128c-0.296,-0.348 -0.409,-0.807 -0.658,-1.133c0.213,0.626 -0.779,0.831 -1.197,0.625c-0.477,-0.235 -0.241,1.096 -0.806,0.818c-0.181,-0.089 -0.378,-0.158 -0.424,-0.29c-0.107,-0.122 -0.192,-0.265 -0.295,-0.388c-0.344,-0.413 -1.103,-1.134 -1.694,-0.833c-0.004,0.001 -0.174,0.222 -0.195,0.228c-0.113,0.038 -0.128,-0.158 -0.194,-0.258c-0.15,-0.221 -0.201,-0.405 -0.362,-0.582c-0.31,-0.346 -0.706,0.218 -0.906,0.526c-0.272,0.414 -0.654,0.263 -0.974,-0.157c-0.106,-0.138 -0.416,-0.424 -0.459,-0.548l0.064,-0.131c-0.094,-0.124 -0.195,-0.031 -0.26,0.034c-0.34,0.344 -0.652,0.659 -1.032,0.949c-0.108,0.08 -0.313,0.255 -0.454,0.1c-0.342,-0.379 -0.163,-0.765 -0.721,-0.84c-0.474,-0.065 -0.782,0.157 -1.296,0.334c-0.137,0.046 -0.199,-0.096 -0.233,-0.268l-0.048,-0.332l-0.176,0.184c-0.039,0.019 -0.079,0.019 -0.194,0.096c-0.198,0.126 -0.116,0.243 -0.423,0.034c-0.35,-0.241 -0.07,-0.846 -0.592,-1.101c-0.48,-0.236 -0.85,-0.108 -1.266,-0.218c-0.443,-0.119 -1,-0.356 -1.336,-0.577c-0.246,-0.162 -0.656,-0.434 -0.816,-0.643c-0.051,-0.069 -0.184,-0.569 -0.199,-0.583c-0.172,-0.193 -0.447,-0.068 -0.616,-0.062c-0.489,0.02 -0.97,0.148 -1.462,0.172c-0.858,0.041 -0.641,-1.491 -0.434,-1.913c-0.211,-0.104 -0.311,0.025 -0.518,0.068c-0.302,0.062 -0.739,0.071 -1.038,0.137c-0.237,0.052 -0.284,0.16 -0.488,0.003c-0.294,-0.225 -0.344,-0.535 -0.394,-0.841c-0.013,-0.071 -0.029,-0.367 -0.133,-0.389c-0.224,-0.049 -0.565,0.058 -0.812,0.005c-0.482,-0.103 -0.673,-0.321 -1.01,-0.577c-0.323,-0.248 -0.783,-0.207 -1.141,-0.481c-0.309,-0.239 -0.329,-0.785 -0.848,-0.741c-0.563,0.046 -2.622,0.813 -2.57,-0.535c0.002,-0.068 -0.068,-0.128 -0.065,-0.195c0.009,-0.245 0.083,-0.446 0.093,-0.682c0,-0.042 0.144,-0.406 0.127,-0.424c-0.139,-0.139 -0.732,0.03 -0.909,0.04c-0.237,0.011 -1.627,0.181 -1.269,-0.545c-0.059,-0.345 -0.329,-1.296 -0.984,-1.292c-0.05,0 -0.307,0.204 -0.354,0.23c-0.239,0.12 -0.353,-0.82 -0.463,-1.036c-0.125,-0.248 -0.73,-0.273 -1.043,-0.513c-0.247,-0.189 -0.075,-0.152 -0.164,-0.324c-0.196,-0.388 -1.191,-0.777 -1.143,-1.129c0.038,-0.278 -0.32,-0.273 -0.524,-0.419c-0.361,-0.26 -0.338,-0.894 -0.884,-1.164c-0.543,-0.267 -0.947,-0.222 -1.529,-0.509c-0.196,-0.097 -0.456,-0.213 -0.456,-0.386c-0.003,-0.215 0.186,-0.52 0.092,-0.684c-0.136,-0.236 -0.724,-0.491 -1.011,-0.577c-0.099,-0.03 -0.772,-0.039 -0.845,-0.254c-0.137,-0.4 0.231,-0.673 0.285,-1.074c0.026,-0.189 -0.503,-0.294 -0.683,-0.418c-0.348,-0.237 -0.106,-0.35 -0.233,-0.517c-0.111,-0.147 -0.765,0.157 -0.909,0.038c-0.288,-0.244 0,-0.573 -0.133,-0.713c-0.347,-0.372 -0.576,-0.294 -0.915,-0.774c-0.215,-0.305 -0.269,-0.705 -0.461,-1.037c-0.36,-0.618 -0.971,-0.665 -1.631,-1.125c-0.574,-0.4 -1.131,-1.093 -1.342,-1.713c-0.236,-0.686 -0.421,-1.573 -0.826,-2.105c-0.299,-0.395 -1.372,-0.455 -1.629,-0.964c-0.196,-0.382 0.187,-0.158 0.291,-0.261c0.156,-0.161 -0.046,-0.167 -0.164,-0.324c-0.188,-0.244 -0.269,-0.689 -0.43,-0.939c-0.068,-0.106 -0.152,-0.078 -0.131,-0.226c0.01,-0.073 0.093,0.021 0.162,-0.001c-0.704,-0.346 -1.296,-0.547 -1.631,-1.126c-0.236,-0.406 0.284,-0.697 0.318,-1.139c0.011,-0.156 -0.151,-0.331 -0.264,-0.453c-0.338,-0.36 -0.599,-0.745 -0.916,-1.098c-0.238,-0.265 -0.329,-0.809 -0.591,-0.937c-0.004,-0.617 0.076,-1.531 -0.109,-2.078c-0.552,-0.076 -0.997,-0.218 -1.176,-0.739c-0.086,-0.254 0.332,-0.631 0.321,-0.652c-0.161,-0.318 -0.504,-0.557 -0.719,-0.84c-0.105,-0.137 -0.334,-0.227 -0.36,-0.42c-0.037,-0.278 0.455,-0.924 0.576,-1.171c0.155,-0.312 -0.137,-0.728 -0.234,-1.006c-0.042,-0.126 -0.165,-0.167 -0.195,-0.259c-0.033,-0.097 0.217,-0.283 0.224,-0.294c0.198,-0.277 0.361,-0.708 0.157,-0.974c-0.307,-0.406 -0.518,-0.61 -0.398,-1.168c0.099,-0.455 0.442,-1.924 1.094,-1.727c0.503,0.149 0.608,-0.439 0.481,-0.815c-0.087,-0.255 -0.329,-0.692 -0.038,-0.746c0.242,-0.047 0.492,-0.19 0.55,-0.459c0.078,-0.362 -0.065,-0.725 0.059,-1.104c0.211,-0.652 0.817,-0.561 0.445,-1.399c-0.045,-0.101 -0.066,-0.14 -0.133,-0.228c-0.429,-0.565 -0.992,-1.045 -1.503,-1.548c-0.248,-0.245 -0.436,-0.578 -0.201,-0.908c0.154,-0.215 0.38,-0.37 0.581,-0.523c0.606,-0.462 0.924,-0.737 1.453,-1.308c0.012,-0.013 0.425,-0.283 0.388,-0.457c-0.045,-0.197 -0.343,-0.642 -0.396,-0.843c-0.028,-0.098 -0.081,-0.191 -0.099,-0.291c-0.217,-1.145 0.881,-0.474 1.193,-1.112c0.169,-0.343 -0.465,-0.698 -0.33,-0.971c0.135,-0.274 0.655,-0.173 0.907,-0.364c0.506,-0.386 -0.158,-1.258 -0.269,-1.589c-0.121,-0.351 0.132,-0.28 0.384,-0.457c0.202,-0.143 0.362,-0.403 0.485,-0.652c0.199,-0.406 0.197,-1.017 0.151,-1.464c-0.013,-0.149 -0.173,-0.304 -0.098,-0.454c0.352,-0.719 0.802,-1.344 0.797,-2.115c-0.001,-0.121 -0.051,-0.237 -0.068,-0.357c-0.01,-0.075 0.034,-0.151 0.032,-0.227c-0.004,-0.094 -0.098,-0.498 -0.069,-0.52M9.7758,42.5942c-0.426,0.925 -0.807,1.852 -1.108,2.778c-0.84,2.579 -0.976,5.358 -1.337,7.996c-0.539,3.959 -3.871,8.117 -3.625,12.062c0.013,0.257 0.612,0.096 0.698,0.344c0.062,0.189 -0.029,0.98 0.004,1.157c0.137,0.721 -0.457,0.927 -0.219,1.621c0.084,0.246 0.556,0.124 0.697,0.344c0.241,0.375 0.261,1.221 0.591,1.732c0.828,1.281 2.031,2.522 2.686,3.918c1.468,3.123 4.703,8.083 8.399,9.901c-0.287,0.585 0.145,0.417 1.052,1.382c1.187,1.265 2.328,2.87 3.382,4.262c2.203,2.895 6.284,5.398 10.001,7.228c4.978,2.448 10.318,5.494 14.978,6.5c3.044,0.654 6.783,1.005 9.964,1.44c3.963,0.538 9.062,3.513 12.636,3.043c1.461,-0.193 2.467,-1.071 3.695,-1.644c1.121,-0.529 2.619,-1.038 3.809,-1.298c1.551,-0.343 3.898,-0.135 5.085,-1.538c0.934,-1.106 1.795,-1.513 2.878,-2.333c2.029,-1.545 3.479,-4.059 5.403,-5.708c1.292,-1.11 2.765,-2.174 3.798,-3.613c1.539,-2.145 2.49,-5.059 3.657,-7.431c2.612,-5.313 6.869,-11.641 6.835,-16.83c-0.012,-1.557 1.08,-3.708 0.661,-5.444c-0.535,-2.203 0.212,-4.43 -0.043,-6.367c-0.367,-2.791 0.003,-5.374 -0.284,-8.218c-0.199,-1.957 -1.15,-3.622 -1.311,-5.547c0.585,-1.188 0.483,-1.25 0.393,-1.741l-0.057,-0.656l-0.303,-0.825c-0.548,-1.373 -1.495,-3.267 -2.856,-3.937c-3.905,-1.92 -4.694,-7.672 -7.475,-10.021c-0.973,-0.825 -1.408,-0.8 -2.672,-1.602c-1.497,-0.957 -2.09,-2.761 -3.959,-3.68c-3.317,-1.632 -6.374,-2.316 -9.63,-3.296c-7.285,-2.19 -14.437,-7.267 -21.478,-9.7c-6.937,-2.397 -15.564,-1.11 -20.7,2.797c-3.027,2.3 -5.398,5.149 -8.169,7.809c-1.133,1.085 -3.197,1.736 -4.493,3.272c-3.05,3.602 -5.106,9.202 -7.321,13.705c-1.29,2.622 -2.987,5.366 -4.262,8.138M41.6588,106.161l0.016,0.115l0.017,-0.016c0.02,-0.028 -0.039,-0.065 -0.033,-0.099M103.091,39.8992l0.003,0.035l0.009,0.025l-0.012,-0.06ZM103.103,39.9592l0.042,0.195c0.04,0.087 0.082,0.147 0.062,0.091l-0.104,-0.286Z" style="fill:#f1f4f5;"/><path d="M57.1485,64.3853c-3.426,-0.115 -7.174,-2.031 -9.145,-4.623c-1.602,-2.11 -0.043,-5.64 1.798,-7.503c0.343,-0.346 0.671,-0.539 1.003,-0.688l0.993,-0.407l0.414,-0.295c1.003,-0.675 1.687,-0.801 2.926,-1.223c1.223,-0.418 2.562,-1.398 4.007,-0.687c1.41,0.693 1.793,1.961 2.427,2.943c1.45,2.253 3.933,5.021 2.002,8.952c-1.289,2.62 -3.76,3.62 -6.425,3.531M57.1195,63.6403c2.453,0.076 4.698,-0.826 5.816,-3.1c1.716,-3.491 -0.417,-5.856 -1.963,-8.252c-0.766,-1.189 -0.967,-2.113 -2.142,-2.691c-1.131,-0.557 -2.405,0.36 -3.464,0.721c-1.471,0.5 -2.019,0.559 -3.176,1.441l-0.066,0.038c-0.9,0.423 -1.251,0.389 -1.816,0.962c-1.819,1.84 -2.977,4.941 -1.739,6.573c1.896,2.495 5.396,4.209 8.55,4.308" style="fill:#f1f4f5;"/><path d="M58.7461,73.7412c-2.182,0.042 -4.63,-1.047 -6.573,-2.002c-3.415,-1.681 -5.208,-3.34 -7.593,-5.444c-2.71,-2.395 -5.346,-3.77 -5.609,-8.028c-0.418,-6.739 5.694,-9.945 9.5,-12.394c2.586,-1.507 5.167,-2.897 8.57,-2.717c1.802,0.093 3.722,1.235 5.364,2.042c2.107,1.037 5.087,2.939 5.88,5.268c0.055,0.165 0.629,1.213 0.698,1.494c0.149,0.684 -0.19,1.114 -0.114,1.333c0.767,2.25 1.226,4.69 0.391,7.47c-0.925,3.066 -3.525,8.185 -5.583,10.161c-0.688,0.66 -1.751,1.47 -2.785,1.936l-0.837,0.278l-0.028,0.157c-0.024,0.086 -0.109,0.305 -0.365,0.354c-0.298,0.057 -0.604,0.085 -0.916,0.092M58.7131,73.0312l0.652,-0.064l0.023,-0.117c0.026,-0.088 0.11,-0.308 0.367,-0.355c1.079,-0.204 2.537,-1.228 3.43,-2.084c1.933,-1.857 4.488,-6.845 5.394,-9.854c0.775,-2.579 0.36,-4.856 -0.382,-7.034c-0.152,-0.439 0.159,-1.097 0.093,-1.397c-0.049,-0.207 -0.545,-1.038 -0.679,-1.432c-0.687,-2.019 -3.394,-3.812 -5.52,-4.858c-1.746,-0.859 -3.474,-1.886 -5.087,-1.971c-2.38,-0.125 -4.336,0.565 -6.254,1.551l-1.912,1.061l-1.535,0.975c-3.711,2.359 -7.961,5.317 -7.621,10.771c0.239,3.887 2.532,5.031 5.369,7.538c2.387,2.108 4.115,3.707 7.436,5.34c1.979,0.974 4.267,1.964 6.226,1.93" style="fill:#f1f4f5;"/><path d="M58.0586,78.7583c-2.489,0.146 -5.015,-0.66 -7.551,-1.909c-7.652,-3.764 -13.11,-8.159 -15.576,-15.403c-0.466,-1.359 -1.253,-4.579 -0.588,-5.934l1.68,-3.411c0.627,-1.276 1.133,-2.479 2.235,-3.313c0.62,-0.474 1.269,-1.406 1.763,-1.905c1.501,-1.522 2.252,-2.088 4.05,-2.93l0.053,-0.02c4.579,-1.298 10.126,-4.393 14.966,-3.735c1.095,0.15 2.168,0.766 3.178,1.262c3.839,1.888 8.074,3.667 11.015,6.568c1.718,1.697 2.413,6.49 1.969,9.138c-0.978,5.852 -3.3,14.599 -8.263,19.07c-1.971,1.775 -4.421,1.347 -6.456,2.04c-0.822,0.279 -1.647,0.434 -2.475,0.482M58.0196,78.0473c0.769,-0.045 1.531,-0.188 2.285,-0.445c2.563,-0.871 4.336,-0.208 6.209,-1.894c4.762,-4.289 7.059,-12.802 8.039,-18.659c0.428,-2.566 -0.297,-7.062 -1.769,-8.516c-2.833,-2.797 -6.921,-4.513 -10.83,-6.435c-1.082,-0.532 -2.011,-1.066 -2.958,-1.195c-3.487,-0.474 -7.266,1.077 -10.988,2.464l-3.644,1.235l-1.11,0.561c-0.981,0.551 -1.637,1.116 -2.727,2.22c-0.327,0.331 -1.192,1.478 -1.837,1.971c-0.938,0.709 -1.369,1.718 -2.029,3.06l-1.678,3.412c-0.513,1.04 0.13,3.951 0.621,5.39c2.379,6.986 7.638,11.267 15.218,14.995c2.492,1.227 4.884,1.973 7.198,1.836" style="fill:#f1f4f5;"/><path d="M61.6143,83.6362c-0.43,-0.014 -0.841,-0.052 -1.2,-0.129c-2.547,-0.548 -3.916,-1.772 -5.75,-1.759c-3.225,0.017 -6.684,-1.229 -9.969,-2.845c-2.458,-1.208 -4.988,-2.497 -7.216,-3.833c-1.927,-1.158 -2.396,-1.953 -3.973,-2.522c-2.258,-0.815 -2.627,-3.644 -3.443,-4.908c-0.697,-1.076 -2.279,-2.991 -2.182,-4.83c0.103,-1.985 1.359,-4.043 2.189,-5.731c1.296,-2.634 1.265,-5.44 2.777,-8.516c0.891,-1.81 2.227,-6.225 3.977,-7.239c1.239,-0.718 2.232,-0.614 3.447,-1.183l0.147,-0.052c2.575,-0.569 5.28,-0.855 7.508,-1.613c2.153,-0.734 4.411,-2.079 6.994,-2.564c2.25,-0.424 4.564,0.318 6.667,0.875c0.148,0.035 1.63,-0.203 2.287,-0.006c2.869,0.861 5.855,2.555 8.074,4.259c1.146,0.879 2.534,3.291 3.219,4.194c0.327,0.428 1.47,1.371 2.053,2.14c3.463,4.553 3.726,9.151 3.295,14.743c-0.222,2.898 -2.211,6.284 -3.159,8.827c-2.113,5.656 -6.451,12.51 -12.255,12.548c-0.742,0.006 -2.198,0.185 -3.487,0.144M61.7303,82.2242c1.084,0.028 2.321,-0.146 3.362,-0.152c4.745,-0.033 8.787,-5.882 10.933,-11.626c1.106,-2.966 2.87,-5.792 3.072,-8.438c0.422,-5.486 0.133,-9.644 -3.009,-13.774c-0.67,-0.884 -1.441,-1.338 -2.052,-2.138c-0.952,-1.256 -1.999,-3.196 -2.953,-3.929c-2.115,-1.624 -4.949,-3.223 -7.617,-4.024c-0.402,-0.122 -1.456,0.195 -2.195,0.032l-0.043,-0.01c-2.258,-0.599 -4.19,-1.205 -6.046,-0.855c-2.524,0.474 -4.175,1.618 -6.798,2.511c-1.733,0.59 -3.862,0.937 -5.802,1.291l-1.822,0.36l-0.954,0.372c-0.919,0.279 -1.461,0.242 -2.268,0.71c-1.163,0.674 -2.36,4.49 -3.415,6.637c-1.506,3.062 -1.304,5.521 -2.778,8.517c-0.94,1.912 -1.961,3.573 -2.045,5.177c-0.065,1.237 1.044,2.571 1.956,3.982c1.004,1.557 1.21,3.794 2.733,4.344c1.679,0.605 2.809,1.79 4.221,2.64c2.174,1.303 4.661,2.571 7.113,3.777c3.226,1.588 6.445,2.715 9.332,2.7c2.161,-0.017 3.983,1.342 6.057,1.788c0.313,0.067 0.657,0.1 1.018,0.108" style="fill:#f1f4f5;"/><path d="M64.0713,89.7139c-3.105,-0.424 -6.317,-1.675 -9.308,-3.146c-1.903,-0.937 -3.815,-2.129 -5.475,-2.427c-0.28,-0.052 -1.528,-0.014 -1.941,-0.103c-1.646,-0.357 -3.404,-1.946 -4.743,-2.604c-3.589,-1.767 -8.165,-3.195 -10.692,-6.139c-1.25,-1.46 -4.165,-3.816 -4.864,-5.866c-0.093,-0.276 -0.768,-1.474 -0.819,-1.876c-0.101,-0.748 0.273,-0.535 0.028,-1.019c-3.017,-5.936 0.378,-10.854 3.513,-17.225c1.584,-3.22 1.35,-6.188 3.222,-9.995c0.111,-0.227 0.616,-1.858 1.138,-2.183c0.837,-0.495 2.129,-0.482 3.143,-0.448l0.864,0.023l2.583,-0.607c0.879,-0.157 1.718,-0.3 2.425,-0.54c0.562,-0.193 1.031,-0.593 1.81,-0.598c1.649,-0.011 2.624,-0.961 3.834,-1.544l1.288,-0.397l0.365,-0.326c0.139,-0.156 0.301,-0.344 0.516,-0.519c0.518,-0.425 2.369,-0.442 2.927,-0.444c1.128,-0.009 1.142,-0.6 2.377,-1.018c0.986,-0.337 3.078,-0.269 4.154,-0.037c1.784,0.385 3.55,1.452 5.196,2.262c2.748,1.352 4.937,2.711 7.619,4.029c3.75,1.846 6.025,2.922 7.247,6.507c1.817,5.337 3.313,11.925 2.852,17.915c-0.154,2.009 0.849,4.072 -0.334,6.477c-0.727,1.48 -1.067,3.318 -1.894,5c-1.507,3.062 -2.992,5.509 -4.59,8.754c-0.844,1.717 -2.135,2.922 -3.193,4.175c-0.984,1.16 -2.107,3.039 -3.534,3.527c-1.165,0.395 -2.762,0.165 -4.041,0.07l-1.077,-0.018l-0.139,0.163l-0.141,0.101l-0.137,0.054l-0.179,0.022ZM64.0613,88.9889l0.123,-0.145l0.116,-0.09l0.115,-0.055l0.126,-0.035c1.846,-0.155 3.468,0.509 5.015,-0.014c1.179,-0.405 2.073,-1.96 3.22,-3.315c1.126,-1.333 2.306,-2.416 3.099,-4.028c1.474,-2.996 3.222,-5.976 4.589,-8.755c0.965,-1.963 0.965,-3.112 1.894,-5c1.134,-2.305 0.067,-3.645 0.264,-6.217c0.45,-5.852 -1.014,-12.335 -2.816,-17.633c-1.116,-3.27 -3.11,-4.238 -6.889,-6.097c-2.513,-1.235 -5.08,-2.78 -7.618,-4.03c-1.734,-0.853 -3.361,-1.844 -5.032,-2.204c-1.019,-0.219 -2.964,-0.263 -3.777,0.016c-0.587,0.198 -1.456,1.045 -2.599,1.054c-0.739,0.004 -2.223,0.062 -2.484,0.262c-0.129,0.122 -0.715,0.833 -1.058,0.968l-0.037,0.012l-0.108,0.017c-1.447,0.2 -3.048,1.957 -5.244,1.971c-0.656,0.005 -0.66,0.244 -1.584,0.56c-1.712,0.58 -3.204,0.521 -5.091,1.166l-0.113,0.019c-1.215,0.007 -2.787,-0.201 -3.677,0.314c-0.29,0.188 -0.573,1.305 -0.866,1.898c-1.701,3.459 -1.714,6.931 -3.221,9.994c-3.223,6.551 -6.333,11.051 -3.517,16.59c0.359,0.711 0.001,0.94 0.042,1.248c0.053,0.411 0.544,1.021 0.789,1.741c0.642,1.883 3.291,3.953 4.729,5.63c2.4,2.798 6.707,4.115 10.467,5.965c1.705,0.838 2.989,2.202 4.58,2.548c0.506,0.108 1.325,-0.011 1.918,0.098c1.789,0.321 3.873,1.608 5.662,2.488c2.22,1.094 4.538,2.049 6.821,2.631l2.162,0.428Z" style="fill:#f1f4f5;"/><path d="M66.5274,93.0801l-0.1,-0.179l-0.714,0.154c-0.9,0.091 -1.75,-0.092 -2.622,-0.16c-1.456,-0.112 -2.943,-0.206 -4.39,-0.197c-1.379,0.01 -2.819,-0.496 -4.133,-1.143c-2.435,-1.197 -6.245,-2.791 -8.978,-4.136c-3.503,-1.722 -8.377,-3.838 -12.164,-5.7c-1.859,-0.914 -3.886,-2.477 -5.688,-3.362c-1.13,-0.556 -1.346,-1.711 -1.841,-2.36c-2.28,-2.999 -4.538,-7.389 -4.562,-11.175c-0.018,-2.625 -0.607,-5.082 -0.164,-8.324c0.367,-2.697 3.18,-5.528 3.926,-8.013c0.304,-1.008 0.218,-2.185 0.427,-3.148c0.245,-1.147 0.987,-2.55 1.223,-3.633c0.656,-3.054 2.079,-7.741 5.227,-9.34l0.083,-0.03c1.554,-0.344 2.282,-0.972 3.806,-1.488l0.187,-0.011l0.138,0.029l0.153,0.074l0.115,0.095l1.786,-0.478c0.642,-0.175 1.348,-0.319 2.262,-0.323c1.608,-0.014 4.68,-1.513 6.399,-2.385c1.337,-0.681 2.326,-0.496 3.451,-1.349l0.291,0.141l3.319,-0.255c3.611,-0.224 7.397,-0.21 10.99,0.87c3.016,0.906 7.149,2.199 9.887,4.302c1.431,1.097 2.038,2.947 3.417,3.938c2.848,2.042 3.736,4.698 5.351,7.2c2.087,3.234 4.404,6.918 4.435,11.382c0.015,2.348 -0.537,4.818 -0.519,7.37c0.026,4.277 0.219,7.676 -2.11,12.412c-1.918,3.897 -4.855,6.894 -7.462,9.979c-1.386,1.637 -2.223,5.619 -4.243,6.792c-2.324,1.346 -5.108,0.894 -7.093,2.4l-0.08,0.044l-0.01,0.007ZM64.8684,92.3601c0.514,0.032 0.999,0.005 1.537,-0.177l0.134,0.101l1.374,-0.707c1.879,-0.663 4.098,-0.786 5.44,-1.563c2.072,-1.204 2.087,-4.31 4.057,-6.636c2.652,-3.138 5.5,-6.039 7.368,-9.834c2.245,-4.565 2.063,-7.803 2.037,-12.093c-0.017,-2.396 0.53,-5.288 0.519,-7.37c-0.031,-4.229 -2.223,-7.748 -4.324,-11.001c-1.722,-2.671 -2.464,-5.071 -5.166,-7.009c-1.301,-0.934 -2.347,-3.117 -3.435,-3.951c-2.618,-2.011 -6.618,-3.271 -9.659,-4.185c-4.638,-1.394 -9.632,-0.961 -14.264,-0.572l-0.063,-0.097l-0.526,0.298c-0.966,0.417 -2.093,0.621 -2.673,0.917c-1.645,0.834 -4.897,2.447 -6.717,2.46c-1.774,0.01 -2.421,0.513 -4.008,0.815l-0.16,-0.007l-0.125,-0.034l-0.134,-0.069l-0.096,-0.08l-1.717,0.735l-1.975,0.699l-0.984,0.66c-2.15,1.822 -3.281,5.471 -3.867,8.194c-0.299,1.381 -0.947,2.347 -1.223,3.634c-0.112,0.518 -0.179,2.335 -0.44,3.203c-0.88,2.924 -3.538,5.219 -3.903,7.903c-0.437,3.204 0.152,5.38 0.17,8.223c0.023,3.559 2.173,7.797 4.418,10.749c0.827,1.085 0.616,1.675 1.588,2.153c2.101,1.033 3.628,2.35 5.689,3.362c4.037,1.986 8.386,3.842 12.163,5.7c2.99,1.471 6.256,2.797 8.979,4.136c1.276,0.629 2.598,1.079 3.814,1.071c1.477,-0.011 2.99,0.085 4.45,0.199c0.662,0.051 1.208,0.141 1.722,0.173" style="fill:#f1f4f5;"/><path d="M68.002,97.6612l-0.241,-0.005c-1.489,-0.213 -3.364,-0.522 -4.93,-0.315c-6.987,0.917 -14.34,-2.618 -21.843,-6.309c-3.107,-1.529 -6.216,-3.058 -9.321,-4.585c-3.094,-1.523 -3.786,-3.839 -6.04,-4.948c-3.453,-1.699 -7.58,-6.222 -7.902,-10.093l-0.005,-0.033c-0.084,-0.526 -1.283,-1.625 -1.571,-2.848l-0.016,-0.067c-0.272,-1.448 -0.904,-3.159 -1.164,-4.537c-0.843,-4.47 1.183,-9.778 3.515,-14.517c0.713,-1.449 1.438,-2.481 1.844,-3.725c1.34,-4.113 3.358,-11.663 7.069,-15.421c0.652,-0.664 2.032,-1.343 2.665,-1.751l0.125,-0.07c2.331,-1.094 5.211,-1.234 7.197,-1.492l0.028,-0.005c0.083,-0.017 1.058,-0.666 1.741,-0.794c2.046,-0.388 3.445,-0.975 5.272,-2.152l0.558,-0.169l0.317,-0.005l0.776,-0.47c1.532,-0.646 3.661,-0.904 4.559,-1.121c2.396,-0.581 5.952,-0.635 8.717,-0.42c1.705,0.13 3.81,-0.499 6.086,0.107c2.684,0.713 5.908,2.037 8.942,3.531c1.87,0.92 4.429,1.921 5.995,3.589c1.547,1.643 2.458,3.034 3.729,4.707c1.032,1.358 3.035,3.256 3.958,4.844c0.567,0.983 1.922,2.134 2.924,3.272l0.691,0.923l0.068,0.066c0.018,0.004 0.077,0.035 0.312,0.185c0.198,0.128 0.506,0.374 0.657,0.815c0.706,2.069 0.724,3.789 1.397,5.771c3.881,11.399 -2.565,23.146 -8.442,35.094c-1.185,2.408 -2.077,3.644 -3.137,5.798c-0.773,1.571 -2.132,1.904 -2.734,2.617c-1.224,1.444 -3.393,2.07 -4.648,2.501c-0.284,0.095 -0.653,0.131 -0.927,0.14l-0.298,0l-0.099,0.078l-0.095,0.065l-0.085,0.054c-0.569,0.316 -2.175,0.784 -2.588,0.859l-0.057,0.008c-0.449,0.058 -2.084,0.792 -2.915,0.828l-0.084,0ZM68.005,95.5272l1.09,-0.351c0.466,-0.18 1.013,-0.378 1.602,-0.453c0.209,-0.038 1.02,-0.28 1.534,-0.465l0.343,-0.142l0.036,-0.032l0.048,-0.041c0.348,-0.28 0.708,-0.389 1.049,-0.414c0.755,-0.054 0.454,0.082 0.756,-0.02c1.515,-0.518 2.958,-0.973 3.708,-1.859c1.101,-1.303 1.912,-1.093 2.448,-2.18c0.903,-1.833 2.182,-3.862 3.136,-5.798c6.054,-12.306 11.866,-23.098 8.339,-33.465c-0.321,-0.938 -0.533,-1.982 -0.736,-2.991l-0.613,-2.574l-0.223,-0.132l-0.166,-0.134l-0.203,-0.202l-0.169,-0.221c-0.903,-1.56 -2.572,-2.332 -3.769,-4.396c-0.907,-1.565 -2.299,-2.636 -3.81,-4.624c-1.361,-1.792 -2.138,-3.002 -3.583,-4.536c-1.22,-1.298 -3.211,-2.069 -5.383,-3.136c-2.97,-1.462 -6.053,-2.721 -8.551,-3.384c-1.89,-0.504 -3.355,0.138 -5.701,-0.042c-2.677,-0.207 -5.973,-0.136 -8.051,0.367c-1.487,0.359 -4.21,0.728 -4.808,1.334l-0.636,0.31l-0.393,0.028l-1.19,0.686c-1.432,0.771 -2.801,1.249 -4.561,1.581c-0.473,0.088 -0.871,0.613 -1.737,0.794l-0.108,0.018c-1.735,0.228 -3.497,0.342 -5.086,0.768l-1.505,0.54l-1.295,0.764c-0.38,0.217 -0.675,0.401 -0.901,0.63c-3.258,3.299 -5.112,10.14 -6.56,14.584c-0.461,1.415 -1.43,2.931 -1.959,4.006c-2.346,4.77 -4.03,9.484 -3.333,13.18c0.297,1.575 0.804,2.62 1.165,4.513c0.035,0.168 1.445,2.052 1.603,3.037l0.014,0.114c0.242,2.898 3.659,6.891 6.722,8.397c3.09,1.52 3.049,3.476 6.04,4.947c3.106,1.528 6.214,3.057 9.321,4.585c7.674,3.774 14.403,6.925 20.622,6.109c1.442,-0.191 3.055,-0.027 4.341,0.146l1.11,0.153l0.003,0.001ZM73.841,95.5152l-0.006,-0.08l-0.509,-0.562l0.515,0.642Z" style="fill:#f1f4f5;"/><path d="M70.2666,100.812c-2.646,0.045 -5.548,-0.807 -8.035,-0.997c-4.146,-0.32 -9.821,-0.816 -14.027,-2.077c-3.275,-0.986 -6.704,-3.011 -10.171,-4.717c-5.438,-2.674 -11.143,-5.228 -15.088,-8.563c-4.57,-3.866 -8.212,-9.495 -10.935,-14.187c-2.024,-3.489 -2.173,-7.35 -0.788,-11.949c0.281,-0.941 0.241,-2.472 0.548,-3.411c0.337,-1.041 0.738,-0.98 0.882,-1.771c0.293,-1.618 0.193,-3.844 0.768,-5.606c1.65,-5.056 4.666,-9.951 7.674,-13.867c1.925,-2.509 4.753,-6.604 6.853,-9.337c1.765,-2.303 4.584,-3.14 6.829,-3.904l0.426,0.165l0.049,0.09l0.433,-0.116c0.211,-0.098 0.497,-0.24 0.903,-0.377c2.954,-1.007 4.611,-2.343 7.418,-3.66c1.903,-0.894 5.209,-1.289 7.447,-0.983c3.69,0.499 7.79,-0.069 11.628,1.185c1.532,0.497 3.112,0.598 4.313,0.992c2.053,0.668 4.11,2.018 5.959,2.927c2.221,1.092 4.969,2.161 7.388,3.352c1.681,0.826 2.408,2.597 3.76,3.262c2.166,1.065 3.769,3.396 5.033,5.058c1.195,1.575 1.747,3.091 2.555,4.684c0.27,0.529 1.041,1.802 1.502,2.58l0.317,0.551l0.408,0.358c0.143,0.202 0.253,0.434 0.342,0.672l0.405,1.229l0.904,0.878c1.909,2.382 1.102,5.567 1.575,8.071c0.33,1.764 -1.039,3.067 -0.38,3.934c1.022,1.343 0.561,2.951 0.663,4.146c0.209,2.501 -0.13,4.797 -0.992,7.293c-0.745,2.145 -1.425,3.905 -2.113,6.013c-0.532,1.627 -1.363,1.965 -1.668,3.376c-0.096,0.443 -0.157,2.328 -0.324,2.965c-0.817,3.068 -2.921,7.11 -4.753,9.664c-3.992,5.564 -9.183,9.633 -15.173,11.674c-0.801,0.273 -1.653,0.388 -2.535,0.403M70.2016,100.112c0.821,-0.011 1.616,-0.117 2.373,-0.375c5.83,-1.988 10.905,-5.956 14.823,-11.416c1.793,-2.503 3.853,-6.467 4.642,-9.433c0.308,-1.168 0.032,-1.614 0.318,-2.932c0.213,-0.987 1.454,-2.736 1.686,-3.447c0.688,-2.107 1.386,-3.915 2.117,-6.025c0.834,-2.414 1.156,-4.612 0.956,-7c-0.136,-1.589 0.337,-2.646 -0.521,-3.777c-0.826,-1.086 0.455,-3.115 0.247,-4.231c-0.639,-3.382 0.579,-6.395 -2.305,-8.607l-0.104,-0.13c-0.521,-1.107 -0.348,-1.779 -0.983,-2.092l-0.164,-0.168c0.025,0.049 -1.66,-2.813 -1.831,-3.152c-0.852,-1.679 -1.344,-3.07 -2.489,-4.576c-1.312,-1.727 -2.802,-3.878 -4.779,-4.85c-1.985,-0.976 -1.808,-2.302 -3.762,-3.262c-2.797,-1.376 -4.748,-2.054 -7.388,-3.353c-1.972,-0.969 -3.869,-2.239 -5.865,-2.888c-1.434,-0.471 -2.418,-0.377 -4.312,-0.992c-3.804,-1.242 -7.497,-0.614 -11.504,-1.157c-2.127,-0.291 -5.29,0.097 -7.048,0.922c-2.622,1.23 -4.522,2.677 -7.492,3.691c-0.395,0.132 -1.299,0.659 -1.796,0.501l-0.085,-0.041l-0.146,-0.094l-0.034,-0.034l-3.261,1.245c-1.133,0.555 -2.179,1.275 -2.985,2.324c-2.679,3.49 -4.31,6.022 -6.85,9.337c-2.981,3.88 -5.948,8.703 -7.562,13.655c-0.576,1.764 -0.397,3.584 -0.744,5.511c-0.085,0.463 -0.85,1.686 -0.907,1.866c-0.376,1.149 -0.126,2.003 -0.543,3.394c-1.345,4.471 -1.175,8.117 0.722,11.387c2.717,4.685 6.309,10.221 10.78,14.002c3.856,3.263 9.454,5.769 14.942,8.469c3.543,1.743 6.861,3.709 10.061,4.672c4.12,1.237 9.718,1.729 13.877,2.051c2.731,0.208 5.45,1.037 7.916,1.005" style="fill:#f1f4f5;"/><path d="M66.9913,109.4c-3.854,-0.229 -8.396,-2.627 -11.335,-3.026c-2.977,-0.406 -6.831,-0.776 -9.916,-1.439c-4.902,-1.057 -10.508,-4.25 -15.155,-6.536c-3.676,-1.808 -8.067,-4.438 -10.547,-7.698c-1.099,-1.45 -2.107,-2.873 -3.168,-4.002c-0.276,-0.293 -0.37,-0.327 -0.688,-0.577c-0.254,-0.198 -0.462,-0.419 -0.62,-0.66l-0.175,-0.405l-1.983,-1.382c-2.851,-2.57 -5.057,-6.219 -6.162,-8.576c-0.607,-1.294 -1.294,-1.73 -2.492,-3.585l-0.109,-0.189l-0.134,-0.263l-0.075,-0.164l-0.231,-0.733l-0.029,-0.018l-0.91,-1.133c-0.16,-0.469 -0.192,-0.893 -0.157,-1.264l0.239,-0.938l-0.231,-0.188c-0.233,-0.305 -0.405,-0.705 -0.435,-1.23c-0.272,-4.379 3.161,-9.241 3.566,-12.222c0.318,-2.333 0.492,-5.434 1.393,-8.201c1.241,-3.801 3.87,-7.913 5.373,-10.969c2.001,-4.066 4.241,-10.058 7.451,-13.852c1.425,-1.687 4.074,-2.907 4.551,-3.365c2.477,-2.379 5.104,-5.464 8.183,-7.803c5.646,-4.296 14.85,-5.615 22.253,-3.055c7.339,2.534 13.975,7.371 20.946,9.469c3.025,0.909 6.298,1.655 9.754,3.354c2.01,0.99 3.216,3.166 4.079,3.717c0.822,0.522 1.704,0.77 2.849,1.739c3.471,2.935 3.833,8.027 6.88,9.526c2.055,1.011 3.288,3.555 3.887,5.088l0.278,0.77l0.117,0.334l-0.998,0.343l0.998,-0.007c0.001,0.262 0.019,0.247 0.075,0.567c0.084,0.469 0.08,0.953 -0.103,1.548l-0.209,0.494l0.51,2.093c0.272,0.846 0.557,1.762 0.673,2.908c0.318,3.141 -0.071,5.377 0.27,7.982c0.327,2.475 -0.429,4.239 0,6.008c0.539,2.231 -0.591,5.017 -0.586,5.819c0.039,5.838 -4.624,12.78 -6.911,17.431c-0.931,1.893 -2.13,5.306 -3.759,7.577c-1.209,1.684 -2.986,2.989 -4.062,3.913c-1.505,1.289 -3.231,4.024 -5.39,5.667c-1.386,1.051 -1.764,1.118 -2.478,1.964c-1.78,2.103 -4.453,1.837 -6.147,2.211c-1.012,0.221 -2.328,0.668 -3.284,1.118c-0.499,0.235 -2.406,1.55 -4.243,1.794c-0.516,0.069 -1.053,0.079 -1.603,0.046M66.9003,105.127c0.406,0.042 0.786,0.046 1.136,0c1.024,-0.137 1.088,-0.538 2.988,-1.427c1.239,-0.585 2.862,-1.134 4.18,-1.424c1.909,-0.421 3.384,-0.3 3.806,-0.799c1.116,-1.321 2.425,-2.051 3.157,-2.606c1.856,-1.413 2.72,-3.391 5.191,-5.507c1.455,-1.251 2.559,-2.029 3.374,-3.163c1.384,-1.93 2.045,-4.223 3.398,-6.974c2.436,-4.951 6.502,-11.095 6.474,-15.519c-0.015,-2.014 0.948,-3.837 0.706,-4.844c-0.585,-2.409 0.061,-5.355 -0.084,-6.457c-0.364,-2.77 -0.058,-5.866 -0.285,-8.106c-0.143,-1.409 -1.113,-3.4 -1.286,-5.469l0.211,-1.118l0.197,-0.419l-0.023,-0.124l-0.024,-0.317l-0.751,-1.799c-0.37,-0.708 -0.783,-1.294 -1.192,-1.495c-4.391,-2.161 -5.656,-8.327 -7.752,-10.099c-0.789,-0.668 -0.898,-0.453 -2.384,-1.397c-1.924,-1.228 -2.286,-2.805 -3.672,-3.488c-3.037,-1.492 -5.752,-2.09 -9.099,-3.096c-7.196,-2.165 -14.896,-7.376 -21.11,-9.522c-6.182,-2.138 -13.87,-0.936 -18.28,2.42c-2.844,2.161 -4.861,4.653 -7.811,7.485c-1.578,1.513 -3.236,1.844 -4.248,3.04c-2.759,3.262 -4.544,8.234 -6.88,12.982c-1.868,3.795 -4.015,6.95 -5.143,10.408c-0.743,2.28 -0.838,4.621 -1.224,7.454c-0.46,3.375 -2.33,6.291 -3.152,8.893l-0.285,1.874l0.575,0.84l0.022,0.186l0.014,0.191c0,0.017 -0.012,0.696 -0.04,0.888l0.01,0.788l-0.015,0.055l0.309,0.325l0.117,0.259l0.079,0.202c0.146,0.441 0.193,0.646 0.214,0.768l0.056,0.243l0.473,0.653c0.681,0.904 1.748,2.294 2.256,3.374c1.396,2.974 4.302,7.245 7.232,8.686l0.334,0.981l0.146,-0.186c0.054,0.043 0.594,0.406 1.163,1.012c1.264,1.345 2.488,3.066 3.456,4.341c1.833,2.411 5.432,4.681 9.034,6.453c5.099,2.508 9.946,5.281 14.169,6.193c2.874,0.618 6.341,0.938 9.594,1.381c3.682,0.501 7.82,2.688 10.669,2.98M5.2813,68.3239l0.331,-0.113l0.081,-0.414l-0.072,-0.03l-0.34,0.557ZM5.7603,68.1609l0.44,-0.15l-0.277,-0.117l-0.163,0.267ZM4.9533,67.1759l0.051,-0.346l-0.184,0.034l-0.111,0.21l0.244,0.102Z" style="fill:#f1f4f5;"/><path d="M106.327,59.3389c-0.878,-0.154 -1.833,-0.517 -2.718,-0.593c-2.036,-0.175 -3.8,0.343 -5.826,-0.059c-1.604,-0.316 -3.954,-0.817 -5.243,-0.727c-0.655,0.046 -1.291,0.509 -2.001,0.615c-2.523,0.375 -4.473,0.486 -6.911,0.176c-1.673,-0.21 -3.484,-0.482 -5.389,-0.56c-2.852,-0.111 -4.82,1.288 -7.447,1.475c1.002,-0.275 2.082,-0.288 3.108,-0.535c1.247,-0.301 2.314,-0.982 3.522,-1.353c1.986,-0.609 4.677,-0.176 6.117,-0.278c0.811,-0.058 1.994,0.53 3.03,0.57c1.188,0.046 2.844,0.26 3.925,-0.122c1.096,-0.384 1.674,-1.243 2.539,-1.911c1.167,-0.903 1.321,-0.086 2.673,-0.033c2.321,0.093 5.254,-1.008 7.66,-0.704c1.144,0.148 3.114,0.754 4.112,0.337c0.111,1.553 -1.287,1.793 -1.151,3.702" style="fill:#f1f4f5;"/><path d="M87.7295,98.5362c-1.004,-1.055 -2.095,-2.066 -3.077,-2.589c-0.584,-0.308 -0.203,-0.856 -0.75,-1.43c-0.865,-0.906 -1.349,-1.109 -2.159,-1.621c-1.437,-0.911 -0.419,-1.332 -0.575,-2.213c-0.144,-0.827 -2.299,-2.414 -2.907,-3.053c-0.634,-0.666 -0.894,-1.576 -1.202,-2.227c-0.552,-1.169 -2.315,-2.429 -3.215,-3.375c2.822,2.965 4.236,5.222 4.655,8.747c0.054,0.467 0.909,1.6 1.208,1.914c1.577,1.655 4.543,3.915 5.352,5.939c0.312,0.78 0.476,2.804 0.858,3.472c1.014,1.789 2.664,-1.511 3.182,-1.804c0.797,-0.455 -0.72,-1.077 -1.37,-1.76" style="fill:#f1f4f5;"/><path d="M19.4864,22.4942c1.114,0.937 2.308,1.822 3.343,2.231c0.616,0.244 0.296,0.829 0.903,1.338c0.959,0.806 1.463,0.955 2.327,1.375c1.528,0.743 0.563,1.274 0.815,2.135c0.236,0.806 2.552,2.144 3.229,2.711c0.7,0.592 1.063,1.467 1.44,2.081c0.675,1.097 2.57,2.158 3.57,2.998c-3.135,-2.632 -4.788,-4.722 -5.595,-8.178c-0.107,-0.458 -1.081,-1.489 -1.414,-1.768c-1.751,-1.472 -4.948,-3.389 -5.975,-5.309c-0.399,-0.743 -0.786,-2.735 -1.238,-3.359c-1.206,-1.662 -2.48,1.799 -2.964,2.149c-0.741,0.54 0.833,0.989 1.559,1.596" style="fill:#f1f4f5;"/><path d="M2.0381,62.732c2.869,-0.562 5.689,-2.16 8.448,-2.207c4.338,-0.071 8.241,1.561 12.593,0.504c1.907,-0.463 3.823,0.348 5.941,-0.9c0.72,-0.422 1.029,-0.766 1.678,-1.201c0.395,-0.262 0.437,0.166 0.867,0.172c1.393,0.021 3.318,0.557 4.503,-0.012c0.872,-0.421 1.689,-0.386 2.458,-0.596c0.537,-0.147 0.552,-0.67 1.002,-0.975c0.107,-0.068 0.889,0.161 0.468,0.364c-0.289,0.14 -1.175,0.078 -1.661,0.212c-0.881,0.243 -2.276,0.015 -2.927,0.234c-0.307,0.102 -0.481,0.343 -0.796,0.383c-0.474,0.061 -1.094,0.362 -1.507,0.332c-0.995,-0.07 -1.678,-0.477 -2.563,-0.235c-2.72,0.753 -5.552,1.257 -8.312,1.064c-2.789,-0.194 -4.313,0.829 -7.034,0.053c-0.926,-0.265 -1.727,-0.725 -2.635,-0.789c-0.661,-0.046 -2.456,-0.387 -3.12,-0.167c-0.286,0.098 -0.575,0.499 -0.915,0.542c-0.213,0.028 -0.629,-0.201 -0.867,-0.173c-1.309,0.169 -2.848,-0.267 -3.759,0.34c-0.204,0.139 -3.159,0.637 -2.317,1.706c0.637,0.811 0.236,-0.366 0.455,1.349" style="fill:#f1f4f5;"/><path d="M33.0625,6.5733c0.134,0.626 0.149,1.359 0.337,1.969c0.434,1.403 1.257,2.438 1.538,3.895c0.222,1.152 0.525,2.855 0.934,3.69c0.208,0.42 0.69,0.72 0.949,1.165c0.934,1.579 1.534,2.847 1.99,4.553c0.309,1.173 0.619,2.452 1.085,3.741c0.692,1.927 2.157,2.861 2.991,4.56c-0.451,-0.594 -0.753,-1.309 -1.196,-1.926c-0.536,-0.749 -1.279,-1.274 -1.853,-1.98c-0.942,-1.157 -1.382,-3.066 -1.838,-3.997c-0.26,-0.523 -0.187,-1.471 -0.44,-2.17c-0.289,-0.806 -0.597,-1.966 -1.143,-2.582c-0.553,-0.626 -1.281,-0.78 -1.958,-1.174c-0.919,-0.532 -0.414,-0.856 -0.746,-1.771c-0.565,-1.571 -2.092,-3.225 -2.54,-4.909c-0.21,-0.803 -0.34,-2.279 -0.887,-2.83c1.005,-0.494 1.542,0.374 2.777,-0.234" style="fill:#f1f4f5;"/><path d="M76.4961,12.3999c-1.505,3.171 -3.277,6.026 -4.812,9.262c-0.418,0.88 -0.243,1.202 -0.176,2.134c0.183,2.607 -1.57,5.067 -2.653,7.35c2.267,-4.776 5.452,-9.727 7.723,-14.509c0.495,-1.048 1.55,-0.817 2.307,-1.347c0.44,-0.303 0.55,-1.156 0.763,-1.604c0.065,-0.14 0.461,-0.463 -0.15,-0.566c-0.232,-0.038 0.032,0.419 -0.193,0.4c-0.739,-0.056 -1.885,-0.669 -2.809,-1.12" style="fill:#f1f4f5;"/><path d="M107.256,64.2803c-1.32,-0.485 -3.377,-0.486 -4.757,-1.125c-1.051,-0.485 -1.251,-1.366 -2.629,-1.628c-0.334,-0.061 -2.567,-0.423 -2.44,-0.234c0.302,0.446 2.094,0.17 2.658,0.276c2.036,0.386 4.072,0.771 6.107,1.155c0.313,0.059 1.219,0.105 1.267,0.467c0.049,0.366 -0.138,0.727 -0.206,1.089" style="fill:#f1f4f5;"/><path d="M29.9004,100.186c2.264,-2.442 3.311,-4.502 4.349,-7.054c0.468,-1.156 1.922,-2.072 2.799,-3.017c1.701,-1.831 2.797,-3.608 4.473,-5.413c-1.796,1.938 -2.467,3.64 -3.105,5.711c-0.191,0.627 -1.158,0.909 -1.401,1.509c-0.469,1.164 0.117,2.004 0.402,3.122c0.065,0.251 -0.613,0.658 -0.781,0.837c-1.034,1.117 -2.07,2.236 -3.11,3.354c-0.649,0.702 -1.322,2.601 -1.906,1.465c-0.572,-0.17 -1.154,-0.267 -1.72,-0.514" style="fill:#f1f4f5;"/><path d="M4.5616,52.7412c3.447,0.659 6.656,1.653 10.175,2.323c0.957,0.182 1.223,-0.068 2.109,-0.366c2.478,-0.834 5.3,0.241 7.781,0.714c-5.191,-0.99 -10.786,-2.823 -15.988,-3.817c-1.138,-0.215 -1.181,-1.293 -1.884,-1.893c-0.402,-0.351 -1.256,-0.241 -1.745,-0.335c-0.15,-0.026 -0.563,-0.329 -0.51,0.288c0.024,0.235 0.399,-0.137 0.438,0.087c0.132,0.729 -0.174,1.992 -0.376,2.999" style="fill:#f1f4f5;"/><path d="M43.4659,60.4551c-0.154,-0.133 -0.409,-0.257 -0.344,-0.417c0.088,-0.206 0.769,-0.641 0.854,-0.436c0.116,0.29 -0.092,0.58 -0.144,0.702c-0.114,0.275 -0.001,-0.044 0.018,0.251c-0.157,-0.041 -0.227,-0.059 -0.384,-0.1" style="fill:#f1f4f5;"/><path d="M43.0391,57.896c-0.154,-0.133 -0.409,-0.257 -0.343,-0.417c0.087,-0.206 0.768,-0.641 0.852,-0.436c0.118,0.29 -0.091,0.58 -0.142,0.702c-0.115,0.275 -0.001,-0.044 0.017,0.251c-0.155,-0.041 -0.227,-0.059 -0.384,-0.1" style="fill:#f1f4f5;"/><path d="M52.2803,47.6602c-0.155,-0.133 -0.409,-0.257 -0.343,-0.417c0.087,-0.206 0.768,-0.641 0.852,-0.436c0.117,0.289 -0.091,0.579 -0.142,0.702c-0.115,0.275 -0.001,-0.044 0.017,0.251c-0.157,-0.041 -0.227,-0.059 -0.384,-0.1" style="fill:#f1f4f5;"/><path d="M17.1651,48.6563c-0.155,-0.134 -0.41,-0.258 -0.344,-0.417c0.088,-0.207 0.768,-0.642 0.853,-0.436c0.117,0.289 -0.091,0.579 -0.143,0.701c-0.114,0.275 -0.001,-0.044 0.017,0.251c-0.155,-0.041 -0.226,-0.059 -0.383,-0.099" style="fill:#f1f4f5;"/><path d="M18.4444,44.6753c-0.154,-0.134 -0.409,-0.258 -0.343,-0.417c0.087,-0.207 0.768,-0.642 0.852,-0.436c0.118,0.289 -0.091,0.579 -0.142,0.701c-0.115,0.275 -0.001,-0.043 0.017,0.251c-0.157,-0.04 -0.227,-0.058 -0.384,-0.099" style="fill:#f1f4f5;"/><path d="M41.7598,13.398c-0.154,-0.134 -0.409,-0.258 -0.344,-0.417c0.088,-0.207 0.769,-0.642 0.854,-0.436c0.116,0.289 -0.092,0.579 -0.144,0.701c-0.114,0.275 -0.001,-0.043 0.018,0.252c-0.157,-0.041 -0.227,-0.059 -0.384,-0.1" style="fill:#f1f4f5;"/><path d="M44.7452,12.687c-0.154,-0.133 -0.409,-0.258 -0.343,-0.417c0.087,-0.206 0.768,-0.642 0.852,-0.436c0.118,0.289 -0.091,0.579 -0.142,0.702c-0.115,0.274 -0.001,-0.044 0.017,0.251c-0.157,-0.041 -0.227,-0.059 -0.384,-0.1" style="fill:#f1f4f5;"/><path d="M48.584,12.5449c-0.155,-0.134 -0.41,-0.258 -0.343,-0.417c0.087,-0.207 0.767,-0.642 0.852,-0.436c0.117,0.289 -0.091,0.579 -0.143,0.701c-0.114,0.275 -0.001,-0.043 0.017,0.252c-0.155,-0.041 -0.226,-0.059 -0.383,-0.1" style="fill:#f1f4f5;"/><path d="M65.6446,102.679c-0.155,-0.133 -0.41,-0.258 -0.344,-0.417c0.087,-0.206 0.768,-0.642 0.853,-0.437c0.117,0.29 -0.091,0.58 -0.143,0.703c-0.114,0.274 -0.001,-0.044 0.018,0.251c-0.157,-0.041 -0.228,-0.059 -0.384,-0.1" style="fill:#f1f4f5;"/><path d="M95.4991,76.0943c-0.155,-0.134 -0.41,-0.258 -0.343,-0.417c0.087,-0.207 0.768,-0.642 0.852,-0.436c0.117,0.289 -0.091,0.579 -0.142,0.701c-0.115,0.275 -0.001,-0.043 0.017,0.251c-0.157,-0.041 -0.227,-0.058 -0.384,-0.099" style="fill:#f1f4f5;"/><path d="M63.7959,86.4722c-0.154,-0.133 -0.41,-0.258 -0.344,-0.417c0.088,-0.206 0.768,-0.642 0.853,-0.436c0.117,0.289 -0.091,0.579 -0.143,0.702c-0.114,0.274 -0.001,-0.044 0.017,0.251c-0.155,-0.041 -0.226,-0.059 -0.383,-0.1" style="fill:#f1f4f5;"/><path d="M66.7813,86.3301c-0.154,-0.134 -0.409,-0.258 -0.343,-0.417c0.087,-0.207 0.768,-0.642 0.852,-0.436c0.118,0.289 -0.091,0.579 -0.142,0.701c-0.115,0.275 -0.001,-0.043 0.017,0.252c-0.157,-0.041 -0.227,-0.059 -0.384,-0.1" style="fill:#f1f4f5;"/><path d="M70.1934,84.9082c-0.154,-0.133 -0.409,-0.257 -0.343,-0.417c0.087,-0.206 0.768,-0.641 0.852,-0.436c0.118,0.289 -0.091,0.579 -0.142,0.702c-0.115,0.275 -0.001,-0.044 0.017,0.251c-0.156,-0.041 -0.227,-0.059 -0.384,-0.1" style="fill:#f1f4f5;"/><path d="M97.2051,40.5523c-0.155,-0.134 -0.409,-0.258 -0.343,-0.417c0.087,-0.207 0.768,-0.642 0.852,-0.436c0.117,0.289 -0.091,0.578 -0.142,0.701c-0.115,0.275 -0.001,-0.043 0.017,0.252c-0.156,-0.041 -0.227,-0.059 -0.384,-0.1" style="fill:#f1f4f5;"/><path d="M13.3262,66.5689c-0.154,-0.134 -0.409,-0.258 -0.343,-0.417c0.087,-0.207 0.768,-0.642 0.852,-0.436c0.118,0.289 -0.091,0.579 -0.142,0.701c-0.115,0.275 -0.001,-0.044 0.017,0.251c-0.157,-0.041 -0.227,-0.059 -0.384,-0.099" style="fill:#f1f4f5;"/><path d="M57.6827,70.4072c-0.154,-0.133 -0.409,-0.258 -0.344,-0.417c0.087,-0.206 0.769,-0.641 0.853,-0.436c0.118,0.289 -0.091,0.579 -0.143,0.702c-0.114,0.274 -0.001,-0.044 0.018,0.251c-0.156,-0.041 -0.227,-0.059 -0.384,-0.1" style="fill:#f1f4f5;"/><path d="M52.4219,75.0991c-0.153,-0.134 -0.409,-0.258 -0.343,-0.417c0.087,-0.207 0.769,-0.642 0.853,-0.436c0.117,0.289 -0.092,0.579 -0.143,0.701c-0.115,0.275 -0.001,-0.043 0.018,0.251c-0.156,-0.04 -0.228,-0.058 -0.385,-0.099" style="fill:#f1f4f5;"/></g></svg>