<?xml version="1.0" standalone="no"?><!DOCTYPE svg PUBLIC "-//W3C//DTD SVG 1.1//EN" "http://www.w3.org/Graphics/SVG/1.1/DTD/svg11.dtd"><svg width="100%" height="100%" viewBox="0 0 90 88" version="1.1" xmlns="http://www.w3.org/2000/svg" xmlns:xlink="http://www.w3.org/1999/xlink" xml:space="preserve" style="fill-rule:evenodd;clip-rule:evenodd;stroke-miterlimit:1.41421;"><g opacity="0.05"><path d="M38.7437,43.8689c0.103734,-0.145874 0.21887,-0.291701 0.339496,-0.428649c0.954828,-1.09492 2.4483,-1.98443 3.55837,-2.23472c2.25464,-0.51087 5.02672,1.79749 5.28708,3.77458c0.24514,1.88177 -1.88724,3.51947 -3.36504,3.9813c-1.20513,0.378303 -2.24441,-0.670145 -3.04237,-0.819412c-0.109919,-0.0160575 -0.530648,0.00574193 -1.02681,-0.0567874c-0.498097,-0.0620109 -1.14508,-0.219699 -1.62495,-0.688332c-0.629612,-0.61378 -0.854733,-1.33301 -0.752057,-2.06152c0.0735051,-0.520854 0.308025,-1.01659 0.626294,-1.46646l-1.3e-05,4e-07ZM39.5776,44.4683c-0.247441,0.351138 -0.397756,0.693812 -0.442984,1.01139c-0.0536801,0.390252 0.0472458,0.785603 0.452601,1.18105c0.239288,0.231902 0.610322,0.352862 1.03329,0.405009c0.425423,0.0535595 0.828365,0.027215 1.04208,0.0557968l0.0364668,0.0047086c1.084,0.208138 1.86442,1.07135 2.5588,0.853937c1.33184,-0.415416 2.79438,-1.76359 2.64974,-2.86577c-0.187414,-1.43134 -2.43472,-3.26966 -4.03912,-2.90534c-0.874002,0.196252 -2.18242,0.957414 -3.01265,1.90707c-0.100109,0.116945 -0.193386,0.236199 -0.27823,0.352154l6.2e-06,-5.4e-06Z" style="fill:none;stroke-width:0.25px;stroke:#fff;"/><path d="M36.1891,40.8114c1.57324,-2.45572 4.32186,-3.66448 6.84079,-3.53394c0.782265,0.0406226 1.66054,0.585596 2.12875,0.686691c1.01844,0.218484 2.05303,0.867498 2.88234,1.33035c0.97929,0.550996 2.44871,1.09574 3.44284,1.94508c0.558341,0.475528 0.831518,1.19636 1.19812,1.567c1.00625,1.01797 0.458722,2.95924 0.234611,3.72137c-0.822773,2.83309 -3.11332,5.38606 -5.52779,6.16554c-0.558196,0.180868 -1.19639,0.449469 -1.95076,0.408608c-1.67405,-0.0880918 -3.38058,-1.63979 -4.62598,-1.99408c-0.483591,-0.135275 -1.35516,0.413391 -2.25855,0.199233c-0.928451,-0.218821 -1.60292,-0.887862 -2.29613,-1.39139c-0.719711,-0.521264 -1.62438,-1.1337 -2.1753,-1.92494c-0.606381,-0.870578 -0.772329,-1.92873 -0.145386,-3.23073c0.65045,-1.34559 1.47482,-2.73371 2.25244,-3.9488l5e-06,8e-06ZM37.2283,41.4737c-0.764572,1.19813 -1.56042,2.53821 -2.17869,3.82236c-0.440306,0.913345 -0.298047,1.49743 0.0451718,1.98928c0.40339,0.577166 1.08882,1.05172 1.88889,1.63321c0.554425,0.403067 1.21202,1.03626 1.85263,1.18945c0.483684,0.112471 1.44338,-0.431891 2.31261,-0.186822c1.60835,0.456719 3.04361,1.87724 4.35568,1.94756c0.460803,0.0233565 0.818719,-0.124469 1.50452,-0.346831c1.95826,-0.635299 3.99185,-2.82629 4.72192,-5.33735c0.327193,-1.11491 0.449447,-2.12927 0.0734215,-2.51188c-0.531774,-0.538569 -0.726003,-1.15427 -1.12122,-1.49652c-0.841893,-0.714187 -2.18898,-1.21203 -3.24415,-1.80272c-0.934929,-0.524592 -1.7495,-1.03282 -2.53809,-1.20117c-0.767646,-0.163616 -1.41494,-0.634944 -1.93379,-0.662395c-2.10785,-0.107304 -4.42191,0.911321 -5.7389,2.96384l-3.3e-06,-1.2e-05Z" style="fill:none;stroke-width:0.25px;stroke:#fff;"/><path d="M35.0299,34.4086c1.95191,-2.6381 6.33874,-3.52966 8.94998,-2.06753c2.1175,1.18876 3.30914,2.44999 5.31974,3.57219c2.0558,1.15562 4.421,1.58524 6.71999,2.87543c1.46296,0.817744 2.19533,1.48263 2.99857,2.75492c0.286207,0.449165 0.637195,1.49079 0.832469,1.91362l0.0722369,0.137992c0.019295,0.0217417 0.0149133,0.0208469 0.00245005,0.00141324l-0.088476,0.0599833l0.267513,0.279202c0.220889,1.74126 -0.839823,3.20937 -1.59847,4.56847c-2.82413,5.03615 -7.88838,9.87727 -13.5833,7.44944c-1.25941,-0.533802 -4.16988,-2.25834 -5.36134,-1.98724c-1.112,0.250805 -3.729,1.83426 -5.0766,0.404704l-0.165175,-0.210376l-1.76482,-1.3445c-1.77059,-1.32743 -3.3065,-2.69091 -3.29193,-5.59183c0.00917851,-2.242 1.377,-4.41377 2.47885,-6.3806c1.0628,-1.89629 1.80121,-3.86704 2.93415,-5.88777c0.105144,-0.190774 0.223316,-0.371584 0.354186,-0.547519l-2.395e-05,4.6e-07ZM35.7355,35.5528c-1.14258,2.03884 -1.79998,3.86775 -2.93081,5.8848c-1.17996,2.10789 -2.31531,3.946 -2.32499,5.79262c-0.0141515,3.12238 1.93683,3.78327 4.65263,6.0208l0.12649,0.147246c0.605092,0.950649 2.76014,-0.328671 4.0335,-0.61864c1.73003,-0.393892 4.57531,1.40405 6.10789,2.05298c4.7109,2.0096 9.2343,-1.91087 12.0411,-6.9227c0.778056,-1.38708 1.42625,-2.32826 1.4731,-3.36897l-0.00979847,-0.287279l-0.0935345,-0.163338c-0.266166,-0.52495 -0.649455,-1.6252 -0.820784,-1.89709c-0.680272,-1.07646 -1.25461,-1.60775 -2.56574,-2.34199c-2.27791,-1.27721 -4.45478,-1.6031 -6.7207,-2.8742c-2.02318,-1.13436 -3.36297,-2.47696 -5.32245,-3.57457c-2.22646,-1.24753 -6.27546,-0.289267 -7.64594,2.15035l3.697e-05,-1.9e-05Z" style="fill:none;stroke-width:0.25px;stroke:#fff;"/><path d="M32.4398,30.9703c2.33353,-3.22612 8.13545,-5.85484 11.9589,-3.71061c3.10574,1.73839 5.45665,3.87402 8.33985,5.01467c1.49694,0.593265 3.18357,1.10249 4.78671,2.00272c2.52136,1.41274 8.11272,4.81264 7.48111,8.80169c-0.218408,1.38909 -1.05376,2.717 -1.68182,3.84122c-2.47085,4.40811 -4.83147,12.5834 -9.98109,14.2553c-2.28944,0.743853 -4.09623,0.666537 -6.4927,-0.226823c-1.58622,-0.594153 -2.25801,-1.36124 -3.27928,-1.3781c-4.0626,-0.0569056 -8.37217,1.05309 -12.5342,-2.02843l-0.761674,-0.619753l-0.817778,-0.497016c-4.17765,-2.80811 -4.92216,-7.12156 -3.94811,-11.5939c1.02468,-4.71577 3.96726,-9.76196 6.93003,-13.861l5.2e-05,3.2e-05ZM33.6996,31.8798c-2.9231,4.0501 -5.71413,8.88167 -6.66955,13.2807c-0.946354,4.3479 -0.0943775,8.11273 4.07054,10.449l0.135296,0.0951839c3.85169,3.40293 7.50157,2.2422 12.3573,2.31092c1.50775,0.0240057 2.53539,1.00207 3.8032,1.47459c2.0994,0.78568 3.54278,0.832141 5.4653,0.206432c4.37311,-1.42109 6.82636,-9.47111 9.10612,-13.538c0.705274,-1.2609 1.33949,-2.28117 1.50274,-3.32412c0.41777,-2.64467 -3.6171,-5.47247 -6.70596,-7.20194c-1.48308,-0.830981 -2.94368,-1.25798 -4.59815,-1.91354c-3.07437,-1.21255 -5.61834,-3.47342 -8.52719,-5.10314c-2.87061,-1.60685 -7.86601,0.400586 -9.93968,3.26395l3.4e-05,-3.59e-05Z" style="fill:none;stroke-width:0.25px;stroke:#fff;"/><path d="M25.7585,32.0829c4.11177,-5.66645 10.1019,-9.94329 16.0552,-10.6268c4.59445,-0.526905 9.74814,3.74215 13.6529,5.19777c14.9193,5.57232 14.7764,18.0105 7.67461,30.6875c-3.30433,5.90118 -6.96924,9.14707 -13.1476,9.55134c-4.60003,0.301652 -10.7793,-2.7427 -15.123,-2.54298c-3.06828,0.141133 -5.13194,-1.37166 -7.07717,-3.27656l-0.0958641,-0.12958c-1.64863,-3.13377 -4.41493,-4.76861 -6.72365,-7.79254c-1.24887,-1.64035 -0.505599,-4.76583 -0.496063,-6.33907c0.022199,-5.06382 2.08408,-10.3168 5.28063,-14.7292l7.1e-06,0.00012ZM26.6099,32.6817c-3.07322,4.23534 -5.06934,9.27809 -5.08923,14.1384c-0.0134743,2.13341 -0.683143,4.4336 0.282279,5.70067c1.69226,2.2161 4.38731,4.24902 6.13106,6.80747l0.627195,1.03687l1.37053,1.22564c1.42145,1.12604 2.9224,1.81141 4.89151,1.72195c4.90496,-0.230251 10.4134,2.84918 15.1028,2.54114c5.70033,-0.372268 9.10222,-3.29805 12.3068,-9.01922c6.96901,-12.4426 6.8884,-23.9697 -7.12825,-29.2034c-4.55297,-1.69892 -8.86911,-5.6326 -13.1716,-5.14056c-5.62961,0.647339 -11.3705,4.7496 -15.3231,10.1911l6e-06,-6e-05Z" style="fill:none;stroke-width:0.25px;stroke:#fff;"/><path d="M21.1257,29.8036c3.22447,-4.35462 7.40802,-7.86706 11.2877,-9.6144c1.86568,-0.841347 4.32351,-3.39987 7.18868,-3.58796c0.566948,-0.0248025 0.647266,0.131729 0.870893,0.116234c0.917875,-0.071355 1.78697,-0.0312574 2.6876,0.149474c1.81021,0.360096 3.1292,0.170735 5.1493,0.506598c6.34586,1.05313 12.1688,6.01435 17.4351,8.96308l0.162212,0.573557l0.147885,-0.0893873c0.198094,0.333036 1.27862,1.02977 1.73728,1.60453c0.955971,1.19712 2.33043,3.5099 2.87212,5.01907c1.89548,5.24184 3.99246,12.6619 0.348717,19.1656c-3.88828,6.93901 -7.17813,14.5261 -13.425,18.3903c-3.7529,2.32006 -6.51493,-0.799637 -9.45546,-0.606853c-2.74769,0.178305 -5.91216,0.312119 -8.73899,0.0643755c-2.36426,-0.206225 -9.81853,-1.58932 -13.8925,-4.31966c-3.57058,-2.39018 -5.62152,-7.12334 -8.08679,-9.71594c-1.44101,-1.51527 -1.34209,-4.51856 -1.91022,-6.28052c-0.55349,-1.71515 0.108448,-4.3798 0.112894,-5.67108c0.0232078,-5.11793 2.28448,-10.3147 5.5085,-14.6671l7.9e-05,8.18e-05ZM22.2898,30.6653c-3.05799,4.13393 -5.20267,9.04364 -5.22367,13.811c-0.00806239,2.05326 -0.660936,3.73704 -0.182541,5.21868c0.661926,2.05361 0.545142,4.63925 1.5832,5.72945c2.75705,2.9005 4.54245,7.30008 7.83942,9.50795c3.76255,2.52296 10.9144,3.88264 13.2157,4.08195c2.70777,0.23621 5.78117,0.110271 8.51772,-0.0671145c3.63911,-0.236348 5.64561,2.761 8.78549,0.818755c5.83457,-3.6066 8.89772,-10.6803 12.9229,-17.8653c3.29335,-5.87649 1.45421,-12.7062 -0.447164,-17.9661c-0.479703,-1.33219 -1.76491,-3.50533 -2.64085,-4.60486c-0.0595112,-0.0751427 -1.53345,-1.23472 -1.84864,-1.76101l-0.0547811,-0.138535l-3.91574,-2.40316c-4.15859,-2.68691 -8.25492,-5.4775 -12.7682,-6.22622c-1.50457,-0.247469 -3.40204,-0.153423 -5.19357,-0.513355c-0.762792,-0.149387 -1.49429,-0.186033 -2.28637,-0.120483l-0.0428974,0.00219414c-0.350199,0.0184017 -0.734993,-0.126822 -0.870705,-0.119391c-2.6447,0.172408 -3.79199,2.16282 -6.67104,3.46042c-3.68418,1.66175 -7.65933,5.02093 -10.7183,9.15511l3.85e-05,1.936e-05Z" style="fill:none;stroke-width:0.25px;stroke:#fff;"/><path d="M18.4764,24.3891c0.506499,-0.647413 1.04195,-1.23323 1.62072,-1.72712c5.41545,-4.63201 13.9634,-10.6783 21.2512,-11.5512l0.273146,0.0147021l0.176376,0.0437791l5.50423,1.07295c13.4619,3.08195 29.521,10.2431 31.3828,25.5331c0.428448,3.52543 0.91879,7.48983 0.620415,11.1234c-0.321373,3.87576 -5.6471,10.3236 -7.73886,12.9961c-5.56442,7.10929 -9.57176,17.0228 -18.843,16.1149c-1.94334,-0.188731 -3.19214,-1.26171 -4.64177,-1.2775c-7.09184,-0.0712057 -16.4244,-1.38509 -23.2882,-5.21693c-1.13176,-0.629147 -3.49247,-2.16473 -5.10835,-3.42495c-0.247341,-0.192466 -0.549951,-0.424975 -0.842998,-0.679723l-0.652113,-0.666758l-1.88637,-1.58523c-8.91788,-8.37986 -8.59574,-22.1137 -1.70179,-34.3654c1.12442,-1.99462 2.35539,-4.4641 3.87444,-6.40414l0.000124,1.98e-05ZM19.6486,25.3657c-1.36005,1.74932 -2.51472,4.04404 -3.71293,6.1765c-7.16938,12.7377 -6.76916,26.5127 3.19481,33.9989l0.150777,0.149011c0.262666,0.349874 0.786444,0.762201 1.34382,1.19554c1.55687,1.21394 3.85154,2.70409 4.9118,3.29444c6.5417,3.65012 15.5774,4.95359 22.5593,5.02426c1.65242,0.0152077 3.57159,1.16712 4.77699,1.28366c8.16372,0.801323 11.3639,-7.71007 17.4921,-15.535c2.29772,-2.93903 7.14363,-8.89465 7.41673,-12.1787c0.283856,-3.44843 -0.183365,-7.25337 -0.615609,-10.8161c-1.97671,-16.2272 -21.3772,-22.9804 -35.6676,-25.2912l-0.0653953,-0.00833416l-2.50628,0.491431c-6.19639,1.71059 -13.0936,6.61602 -17.8368,10.6742c-0.509672,0.434975 -0.986546,0.957439 -1.44174,1.54138l2.73e-05,1.216e-05Z" style="fill:none;stroke-width:0.25px;stroke:#fff;"/><path d="M13.2104,24.5507c0.802317,-1.11921 1.63686,-2.22637 2.49178,-3.31932c2.78757,-3.56747 5.27751,-5.74013 8.78694,-7.84471c2.54212,-1.52298 5.55863,-3.47353 7.88442,-5.4168c11.6937,-9.77203 28.6876,2.63929 40.1973,9.0873c20.117,11.2708 12.538,37.7907 -0.504814,54.3297c-5.05781,6.41215 -10.4229,10.6144 -17.0084,11.4116l-2.75081,0.124265l-0.592972,0.105299l-2.65103,0.565483c-14.6748,1.96283 -41.5122,-11.0123 -44.4265,-33.9892c-1.11656,-8.79 2.95518,-17.2174 8.57404,-25.0537l4.6e-05,8.3e-05ZM14.7193,25.6709c-5.51163,7.69565 -9.24586,15.6215 -8.2185,23.6972c2.9451,23.2306 32.013,35.7707 44.7708,31.8384l0.113072,-0.0262043l0.635987,-0.114773l0.190199,-0.0127356c7.07465,0.200065 12.7536,-3.693 18.378,-10.8298c13.1072,-16.6194 19.3219,-41.2977 1.0659,-51.5253c-13.4337,-7.52514 -27.9424,-17.7561 -38.076,-9.2849c-2.43862,2.03981 -5.557,4.0467 -8.1241,5.58466c-3.30458,1.98438 -5.62452,3.99959 -8.2735,7.38906c-0.850352,1.09069 -1.673,2.1843 -2.46182,3.28436l-3.8e-05,3.29e-05Z" style="fill:none;stroke-width:0.25px;stroke:#fff;"/><path d="M11.0599,21.1228c2.7888,-4.13002 5.34575,-6.6934 9.03048,-9.26747c2.71248,-1.89899 5.94236,-4.31992 8.4066,-6.68862c11.8856,-11.4336 31.2787,0.681747 44.8251,7.07189c22.7144,10.7177 16.6878,40.2636 3.45603,59.6902c-5.81246,8.53843 -12.3893,13.9356 -20.9959,14.2927l-0.470433,0.0372096l-2.86898,0.825877c-15.903,3.25433 -46.4352,-8.9435 -51.4001,-33.9399c-2.15359,-10.8486 3.10079,-21.7636 10.0172,-32.0219l3e-06,1.34e-05ZM11.9439,21.72c-6.8998,10.2353 -11.9206,20.8246 -9.8549,31.2184c5.1536,25.9428 38.8015,37.7632 52.9436,32.2956l0.154155,-0.0351592l0.533425,-0.0416903c8.12957,-0.336719 14.4399,-5.40355 20.1765,-13.8274c13.2658,-19.4772 18.5911,-47.9248 -3.0291,-58.1264c-14.0595,-6.63552 -32.4263,-18.0478 -43.633,-7.26756c-2.52175,2.42451 -5.80669,4.88714 -8.53359,6.79414c-3.57425,2.49576 -6.04092,4.96346 -8.75702,8.99011l-7e-05,-4.05e-05Z" style="fill:none;stroke-width:0.25px;stroke:#fff;"/></g></svg>
