<?xml version="1.0" standalone="no"?><!DOCTYPE svg PUBLIC "-//W3C//DTD SVG 1.1//EN" "http://www.w3.org/Graphics/SVG/1.1/DTD/svg11.dtd"><svg width="100%" height="100%" viewBox="0 0 32 32" version="1.1" xmlns="http://www.w3.org/2000/svg" xmlns:xlink="http://www.w3.org/1999/xlink" xml:space="preserve" style="fill-rule:evenodd;clip-rule:evenodd;stroke-linejoin:round;stroke-miterlimit:1.41421;"><path d="M32,6.1c-1.2,0.5 -2.4,0.9 -3.8,1c1.4,-0.8 2.4,-2.1 2.9,-3.6c-1.3,0.8 -2.7,1.3 -4.2,1.6c-1.1,-1.3 -2.9,-2.1 -4.7,-2.1c-3.6,0 -6.6,2.9 -6.6,6.6c0,0.5 0.1,1 0.2,1.5c-5.5,-0.3 -10.3,-2.9 -13.6,-6.9c-0.6,1 -0.9,2.1 -0.9,3.3c0,2.3 1.2,4.3 2.9,5.5c-1.1,0 -2.1,-0.3 -3,-0.8l0,0.1c0,3.2 2.3,5.8 5.3,6.4c-0.6,0.1 -1.1,0.2 -1.7,0.2c-0.4,0 -0.8,0 -1.2,-0.1c0.8,2.6 3.3,4.5 6.1,4.6c-2.2,1.8 -5.1,2.8 -8.2,2.8c-0.5,0 -1.1,0 -1.6,-0.1c2.9,1.9 6.4,3 10.1,3c12.1,0 18.7,-10 18.7,-18.7c0,-0.3 0,-0.6 0,-0.8c1.3,-1 2.4,-2.2 3.3,-3.5Z" style="fill:#3897e4;fill-rule:nonzero;"/></svg>